solid OpenSCAD_Model
  facet normal -0.47892 -0.877859 0
    outer loop
      vertex 15.0125 0.75 0
      vertex 15.6932 0.378658 2.5
      vertex 15.0125 0.75 2.5
    endloop
  endfacet
  facet normal -0.47892 -0.877859 -0
    outer loop
      vertex 15.6932 0.378658 2.5
      vertex 15.0125 0.75 0
      vertex 15.6932 0.378658 0
    endloop
  endfacet
  facet normal -0.321116 -0.94704 0
    outer loop
      vertex 15.6932 0.378658 0
      vertex 16.4275 0.129675 2.5
      vertex 15.6932 0.378658 2.5
    endloop
  endfacet
  facet normal -0.321116 -0.94704 -0
    outer loop
      vertex 16.4275 0.129675 2.5
      vertex 15.6932 0.378658 0
      vertex 16.4275 0.129675 0
    endloop
  endfacet
  facet normal -0.153779 -0.988105 0
    outer loop
      vertex 16.4275 0.129675 0
      vertex 17.1937 0.0104389 2.5
      vertex 16.4275 0.129675 2.5
    endloop
  endfacet
  facet normal -0.153779 -0.988105 -0
    outer loop
      vertex 17.1937 0.0104389 2.5
      vertex 16.4275 0.129675 0
      vertex 17.1937 0.0104389 0
    endloop
  endfacet
  facet normal 0.0181296 -0.999836 0
    outer loop
      vertex 17.1937 0.0104389 0
      vertex 17.9689 0.0244961 2.5
      vertex 17.1937 0.0104389 2.5
    endloop
  endfacet
  facet normal 0.0181296 -0.999836 0
    outer loop
      vertex 17.9689 0.0244961 2.5
      vertex 17.1937 0.0104389 0
      vertex 17.9689 0.0244961 0
    endloop
  endfacet
  facet normal 0.189494 -0.981882 0
    outer loop
      vertex 17.9689 0.0244961 0
      vertex 18.7302 0.171425 2.5
      vertex 17.9689 0.0244961 2.5
    endloop
  endfacet
  facet normal 0.189494 -0.981882 0
    outer loop
      vertex 18.7302 0.171425 2.5
      vertex 17.9689 0.0244961 0
      vertex 18.7302 0.171425 0
    endloop
  endfacet
  facet normal 0.355236 -0.934777 0
    outer loop
      vertex 18.7302 0.171425 0
      vertex 19.455 0.446865 2.5
      vertex 18.7302 0.171425 2.5
    endloop
  endfacet
  facet normal 0.355236 -0.934777 0
    outer loop
      vertex 19.455 0.446865 2.5
      vertex 18.7302 0.171425 0
      vertex 19.455 0.446865 0
    endloop
  endfacet
  facet normal 0.510431 -0.859919 0
    outer loop
      vertex 19.455 0.446865 0
      vertex 20.1218 0.842638 2.5
      vertex 19.455 0.446865 2.5
    endloop
  endfacet
  facet normal 0.510431 -0.859919 0
    outer loop
      vertex 20.1218 0.842638 2.5
      vertex 19.455 0.446865 0
      vertex 20.1218 0.842638 0
    endloop
  endfacet
  facet normal 0.650468 -0.759533 0
    outer loop
      vertex 20.1218 0.842638 0
      vertex 20.7107 1.34699 2.5
      vertex 20.1218 0.842638 2.5
    endloop
  endfacet
  facet normal 0.650468 -0.759533 0
    outer loop
      vertex 20.7107 1.34699 2.5
      vertex 20.1218 0.842638 0
      vertex 20.7107 1.34699 0
    endloop
  endfacet
  facet normal 0.7712 -0.636593 0
    outer loop
      vertex 20.7107 1.34699 2.5
      vertex 21.2043 1.94496 0
      vertex 21.2043 1.94496 2.5
    endloop
  endfacet
  facet normal 0.7712 -0.636593 0
    outer loop
      vertex 21.2043 1.94496 0
      vertex 20.7107 1.34699 2.5
      vertex 20.7107 1.34699 0
    endloop
  endfacet
  facet normal 0.869032 -0.494757 0
    outer loop
      vertex 21.2043 1.94496 2.5
      vertex 21.5879 2.61878 0
      vertex 21.5879 2.61878 2.5
    endloop
  endfacet
  facet normal 0.869032 -0.494757 0
    outer loop
      vertex 21.5879 2.61878 0
      vertex 21.2043 1.94496 2.5
      vertex 21.2043 1.94496 0
    endloop
  endfacet
  facet normal 0.941062 -0.338234 0
    outer loop
      vertex 21.5879 2.61878 2.5
      vertex 21.8502 3.34845 0
      vertex 21.8502 3.34845 2.5
    endloop
  endfacet
  facet normal 0.941062 -0.338234 0
    outer loop
      vertex 21.8502 3.34845 0
      vertex 21.5879 2.61878 2.5
      vertex 21.5879 2.61878 0
    endloop
  endfacet
  facet normal 0.985157 -0.171658 0
    outer loop
      vertex 21.8502 3.34845 2.5
      vertex 21.9833 4.11232 0
      vertex 21.9833 4.11232 2.5
    endloop
  endfacet
  facet normal 0.985157 -0.171658 0
    outer loop
      vertex 21.9833 4.11232 0
      vertex 21.8502 3.34845 2.5
      vertex 21.8502 3.34845 0
    endloop
  endfacet
  facet normal 1 -0 0
    outer loop
      vertex 21.9833 4.11232 2.5
      vertex 21.9833 4.88769 0
      vertex 21.9833 4.88769 2.5
    endloop
  endfacet
  facet normal 1 0 0
    outer loop
      vertex 21.9833 4.88769 0
      vertex 21.9833 4.11232 2.5
      vertex 21.9833 4.11232 0
    endloop
  endfacet
  facet normal 0.985157 0.171658 0
    outer loop
      vertex 21.9833 4.88769 2.5
      vertex 21.8502 5.65155 0
      vertex 21.8502 5.65155 2.5
    endloop
  endfacet
  facet normal 0.985157 0.171658 0
    outer loop
      vertex 21.8502 5.65155 0
      vertex 21.9833 4.88769 2.5
      vertex 21.9833 4.88769 0
    endloop
  endfacet
  facet normal 0.941062 0.338234 0
    outer loop
      vertex 21.8502 5.65155 2.5
      vertex 21.5879 6.38122 0
      vertex 21.5879 6.38122 2.5
    endloop
  endfacet
  facet normal 0.941062 0.338234 0
    outer loop
      vertex 21.5879 6.38122 0
      vertex 21.8502 5.65155 2.5
      vertex 21.8502 5.65155 0
    endloop
  endfacet
  facet normal 0.869031 0.494758 0
    outer loop
      vertex 21.5879 6.38122 2.5
      vertex 21.2043 7.05504 0
      vertex 21.2043 7.05504 2.5
    endloop
  endfacet
  facet normal 0.869031 0.494758 0
    outer loop
      vertex 21.2043 7.05504 0
      vertex 21.5879 6.38122 2.5
      vertex 21.5879 6.38122 0
    endloop
  endfacet
  facet normal 0.771199 0.636594 0
    outer loop
      vertex 21.2043 7.05504 2.5
      vertex 20.7107 7.65301 0
      vertex 20.7107 7.65301 2.5
    endloop
  endfacet
  facet normal 0.771199 0.636594 0
    outer loop
      vertex 20.7107 7.65301 0
      vertex 21.2043 7.05504 2.5
      vertex 21.2043 7.05504 0
    endloop
  endfacet
  facet normal 0.65047 0.759532 -0
    outer loop
      vertex 20.7107 7.65301 0
      vertex 20.1218 8.15736 2.5
      vertex 20.7107 7.65301 2.5
    endloop
  endfacet
  facet normal 0.65047 0.759532 0
    outer loop
      vertex 20.1218 8.15736 2.5
      vertex 20.7107 7.65301 0
      vertex 20.1218 8.15736 0
    endloop
  endfacet
  facet normal 0.510431 0.859919 -0
    outer loop
      vertex 20.1218 8.15736 0
      vertex 19.455 8.55313 2.5
      vertex 20.1218 8.15736 2.5
    endloop
  endfacet
  facet normal 0.510431 0.859919 0
    outer loop
      vertex 19.455 8.55313 2.5
      vertex 20.1218 8.15736 0
      vertex 19.455 8.55313 0
    endloop
  endfacet
  facet normal 0.355236 0.934777 -0
    outer loop
      vertex 19.455 8.55313 0
      vertex 18.7302 8.82858 2.5
      vertex 19.455 8.55313 2.5
    endloop
  endfacet
  facet normal 0.355236 0.934777 0
    outer loop
      vertex 18.7302 8.82858 2.5
      vertex 19.455 8.55313 0
      vertex 18.7302 8.82858 0
    endloop
  endfacet
  facet normal 0.189496 0.981881 -0
    outer loop
      vertex 18.7302 8.82858 0
      vertex 17.9689 8.97551 2.5
      vertex 18.7302 8.82858 2.5
    endloop
  endfacet
  facet normal 0.189496 0.981881 0
    outer loop
      vertex 17.9689 8.97551 2.5
      vertex 18.7302 8.82858 0
      vertex 17.9689 8.97551 0
    endloop
  endfacet
  facet normal 0.0181272 0.999836 -0
    outer loop
      vertex 17.9689 8.97551 0
      vertex 17.1937 8.98956 2.5
      vertex 17.9689 8.97551 2.5
    endloop
  endfacet
  facet normal 0.0181272 0.999836 0
    outer loop
      vertex 17.1937 8.98956 2.5
      vertex 17.9689 8.97551 0
      vertex 17.1937 8.98956 0
    endloop
  endfacet
  facet normal -0.153777 0.988106 0
    outer loop
      vertex 17.1937 8.98956 0
      vertex 16.4275 8.87033 2.5
      vertex 17.1937 8.98956 2.5
    endloop
  endfacet
  facet normal -0.153777 0.988106 0
    outer loop
      vertex 16.4275 8.87033 2.5
      vertex 17.1937 8.98956 0
      vertex 16.4275 8.87033 0
    endloop
  endfacet
  facet normal -0.321116 0.94704 0
    outer loop
      vertex 16.4275 8.87033 0
      vertex 15.6932 8.62134 2.5
      vertex 16.4275 8.87033 2.5
    endloop
  endfacet
  facet normal -0.321116 0.94704 0
    outer loop
      vertex 15.6932 8.62134 2.5
      vertex 16.4275 8.87033 0
      vertex 15.6932 8.62134 0
    endloop
  endfacet
  facet normal -0.478922 0.877857 0
    outer loop
      vertex 15.6932 8.62134 0
      vertex 15.0125 8.25 2.5
      vertex 15.6932 8.62134 2.5
    endloop
  endfacet
  facet normal -0.478922 0.877857 0
    outer loop
      vertex 15.0125 8.25 2.5
      vertex 15.6932 8.62134 0
      vertex 15.0125 8.25 0
    endloop
  endfacet
  facet normal 0.0568881 -0.998381 0
    outer loop
      vertex 3.05 6.55 0.5
      vertex 15.3349 7.25 2.5
      vertex 3.05 6.55 2.5
    endloop
  endfacet
  facet normal 0.0568881 -0.998381 0
    outer loop
      vertex 15.3349 7.25 2.5
      vertex 3.05 6.55 0.5
      vertex 15.3349 7.25 0.5
    endloop
  endfacet
  facet normal 0.54876 -0.83598 0
    outer loop
      vertex 15.3349 7.25 0.5
      vertex 15.838 7.5802 2.5
      vertex 15.3349 7.25 2.5
    endloop
  endfacet
  facet normal 0.54876 -0.83598 0
    outer loop
      vertex 15.838 7.5802 2.5
      vertex 15.3349 7.25 0.5
      vertex 15.838 7.5802 0.5
    endloop
  endfacet
  facet normal 0.397456 -0.917621 0
    outer loop
      vertex 15.838 7.5802 0.5
      vertex 16.3901 7.81936 2.5
      vertex 15.838 7.5802 2.5
    endloop
  endfacet
  facet normal 0.397456 -0.917621 0
    outer loop
      vertex 16.3901 7.81936 2.5
      vertex 15.838 7.5802 0.5
      vertex 16.3901 7.81936 0.5
    endloop
  endfacet
  facet normal 0.234409 -0.972138 0
    outer loop
      vertex 16.3901 7.81936 0.5
      vertex 16.9751 7.96041 2.5
      vertex 16.3901 7.81936 2.5
    endloop
  endfacet
  facet normal 0.234409 -0.972138 0
    outer loop
      vertex 16.9751 7.96041 2.5
      vertex 16.3901 7.81936 0.5
      vertex 16.9751 7.96041 0.5
    endloop
  endfacet
  facet normal 0.0644325 -0.997922 0
    outer loop
      vertex 16.9751 7.96041 0.5
      vertex 17.5756 7.99918 2.5
      vertex 16.9751 7.96041 2.5
    endloop
  endfacet
  facet normal 0.0644325 -0.997922 0
    outer loop
      vertex 17.5756 7.99918 2.5
      vertex 16.9751 7.96041 0.5
      vertex 17.5756 7.99918 0.5
    endloop
  endfacet
  facet normal -0.107447 -0.994211 0
    outer loop
      vertex 17.5756 7.99918 0.5
      vertex 18.1738 7.93453 2.5
      vertex 17.5756 7.99918 2.5
    endloop
  endfacet
  facet normal -0.107447 -0.994211 -0
    outer loop
      vertex 18.1738 7.93453 2.5
      vertex 17.5756 7.99918 0.5
      vertex 18.1738 7.93453 0.5
    endloop
  endfacet
  facet normal -0.276156 -0.961113 0
    outer loop
      vertex 18.1738 7.93453 0.5
      vertex 18.7521 7.76836 2.5
      vertex 18.1738 7.93453 2.5
    endloop
  endfacet
  facet normal -0.276156 -0.961113 -0
    outer loop
      vertex 18.7521 7.76836 2.5
      vertex 18.1738 7.93453 0.5
      vertex 18.7521 7.76836 0.5
    endloop
  endfacet
  facet normal -0.4367 -0.899607 0
    outer loop
      vertex 18.7521 7.76836 0.5
      vertex 19.2934 7.50559 2.5
      vertex 18.7521 7.76836 2.5
    endloop
  endfacet
  facet normal -0.4367 -0.899607 -0
    outer loop
      vertex 19.2934 7.50559 2.5
      vertex 18.7521 7.76836 0.5
      vertex 19.2934 7.50559 0.5
    endloop
  endfacet
  facet normal -0.584332 -0.811515 0
    outer loop
      vertex 19.2934 7.50559 0.5
      vertex 19.7818 7.15398 2.5
      vertex 19.2934 7.50559 2.5
    endloop
  endfacet
  facet normal -0.584332 -0.811515 -0
    outer loop
      vertex 19.7818 7.15398 2.5
      vertex 19.2934 7.50559 0.5
      vertex 19.7818 7.15398 0.5
    endloop
  endfacet
  facet normal -0.714698 -0.699433 0
    outer loop
      vertex 20.2026 6.72393 0.5
      vertex 19.7818 7.15398 2.5
      vertex 19.7818 7.15398 0.5
    endloop
  endfacet
  facet normal -0.714698 -0.699433 0
    outer loop
      vertex 19.7818 7.15398 2.5
      vertex 20.2026 6.72393 0.5
      vertex 20.2026 6.72393 2.5
    endloop
  endfacet
  facet normal -0.823939 -0.566678 0
    outer loop
      vertex 20.5436 6.22814 0.5
      vertex 20.2026 6.72393 2.5
      vertex 20.2026 6.72393 0.5
    endloop
  endfacet
  facet normal -0.823939 -0.566678 0
    outer loop
      vertex 20.2026 6.72393 2.5
      vertex 20.5436 6.22814 0.5
      vertex 20.5436 6.22814 2.5
    endloop
  endfacet
  facet normal -0.908828 -0.417171 0
    outer loop
      vertex 20.7946 5.68128 0.5
      vertex 20.5436 6.22814 2.5
      vertex 20.5436 6.22814 0.5
    endloop
  endfacet
  facet normal -0.908828 -0.417171 0
    outer loop
      vertex 20.5436 6.22814 2.5
      vertex 20.7946 5.68128 0.5
      vertex 20.7946 5.68128 2.5
    endloop
  endfacet
  facet normal -0.96685 -0.255347 0
    outer loop
      vertex 20.9483 5.0995 0.5
      vertex 20.7946 5.68128 2.5
      vertex 20.7946 5.68128 0.5
    endloop
  endfacet
  facet normal -0.96685 -0.255347 0
    outer loop
      vertex 20.7946 5.68128 2.5
      vertex 20.9483 5.0995 0.5
      vertex 20.9483 5.0995 2.5
    endloop
  endfacet
  facet normal -0.996299 -0.0859585 0
    outer loop
      vertex 21 4.5 0.5
      vertex 20.9483 5.0995 2.5
      vertex 20.9483 5.0995 0.5
    endloop
  endfacet
  facet normal -0.996299 -0.0859585 0
    outer loop
      vertex 20.9483 5.0995 2.5
      vertex 21 4.5 0.5
      vertex 21 4.5 2.5
    endloop
  endfacet
  facet normal -0.996299 0.0859588 0
    outer loop
      vertex 20.9483 3.9005 0.5
      vertex 21 4.5 2.5
      vertex 21 4.5 0.5
    endloop
  endfacet
  facet normal -0.996299 0.0859588 0
    outer loop
      vertex 21 4.5 2.5
      vertex 20.9483 3.9005 0.5
      vertex 20.9483 3.9005 2.5
    endloop
  endfacet
  facet normal -0.96685 0.255345 0
    outer loop
      vertex 20.7946 3.31872 0.5
      vertex 20.9483 3.9005 2.5
      vertex 20.9483 3.9005 0.5
    endloop
  endfacet
  facet normal -0.96685 0.255345 0
    outer loop
      vertex 20.9483 3.9005 2.5
      vertex 20.7946 3.31872 0.5
      vertex 20.7946 3.31872 2.5
    endloop
  endfacet
  facet normal -0.908828 0.417172 0
    outer loop
      vertex 20.5436 2.77186 0.5
      vertex 20.7946 3.31872 2.5
      vertex 20.7946 3.31872 0.5
    endloop
  endfacet
  facet normal -0.908828 0.417172 0
    outer loop
      vertex 20.7946 3.31872 2.5
      vertex 20.5436 2.77186 0.5
      vertex 20.5436 2.77186 2.5
    endloop
  endfacet
  facet normal -0.823939 0.566678 0
    outer loop
      vertex 20.2026 2.27607 0.5
      vertex 20.5436 2.77186 2.5
      vertex 20.5436 2.77186 0.5
    endloop
  endfacet
  facet normal -0.823939 0.566678 0
    outer loop
      vertex 20.5436 2.77186 2.5
      vertex 20.2026 2.27607 0.5
      vertex 20.2026 2.27607 2.5
    endloop
  endfacet
  facet normal -0.714697 0.699434 0
    outer loop
      vertex 19.7818 1.84602 0.5
      vertex 20.2026 2.27607 2.5
      vertex 20.2026 2.27607 0.5
    endloop
  endfacet
  facet normal -0.714697 0.699434 0
    outer loop
      vertex 20.2026 2.27607 2.5
      vertex 19.7818 1.84602 0.5
      vertex 19.7818 1.84602 2.5
    endloop
  endfacet
  facet normal -0.584336 0.811512 0
    outer loop
      vertex 19.7818 1.84602 0.5
      vertex 19.2934 1.49441 2.5
      vertex 19.7818 1.84602 2.5
    endloop
  endfacet
  facet normal -0.584336 0.811512 0
    outer loop
      vertex 19.2934 1.49441 2.5
      vertex 19.7818 1.84602 0.5
      vertex 19.2934 1.49441 0.5
    endloop
  endfacet
  facet normal -0.436697 0.899609 0
    outer loop
      vertex 19.2934 1.49441 0.5
      vertex 18.7521 1.23164 2.5
      vertex 19.2934 1.49441 2.5
    endloop
  endfacet
  facet normal -0.436697 0.899609 0
    outer loop
      vertex 18.7521 1.23164 2.5
      vertex 19.2934 1.49441 0.5
      vertex 18.7521 1.23164 0.5
    endloop
  endfacet
  facet normal -0.276153 0.961114 0
    outer loop
      vertex 18.7521 1.23164 0.5
      vertex 18.1738 1.06547 2.5
      vertex 18.7521 1.23164 2.5
    endloop
  endfacet
  facet normal -0.276153 0.961114 0
    outer loop
      vertex 18.1738 1.06547 2.5
      vertex 18.7521 1.23164 0.5
      vertex 18.1738 1.06547 0.5
    endloop
  endfacet
  facet normal -0.107453 0.99421 0
    outer loop
      vertex 18.1738 1.06547 0.5
      vertex 17.5756 1.00081 2.5
      vertex 18.1738 1.06547 2.5
    endloop
  endfacet
  facet normal -0.107453 0.99421 0
    outer loop
      vertex 17.5756 1.00081 2.5
      vertex 18.1738 1.06547 0.5
      vertex 17.5756 1.00081 0.5
    endloop
  endfacet
  facet normal 0.0644325 0.997922 -0
    outer loop
      vertex 17.5756 1.00081 0.5
      vertex 16.9751 1.03959 2.5
      vertex 17.5756 1.00081 2.5
    endloop
  endfacet
  facet normal 0.0644325 0.997922 0
    outer loop
      vertex 16.9751 1.03959 2.5
      vertex 17.5756 1.00081 0.5
      vertex 16.9751 1.03959 0.5
    endloop
  endfacet
  facet normal 0.234412 0.972137 -0
    outer loop
      vertex 16.9751 1.03959 0.5
      vertex 16.3901 1.18064 2.5
      vertex 16.9751 1.03959 2.5
    endloop
  endfacet
  facet normal 0.234412 0.972137 0
    outer loop
      vertex 16.3901 1.18064 2.5
      vertex 16.9751 1.03959 0.5
      vertex 16.3901 1.18064 0.5
    endloop
  endfacet
  facet normal 0.397456 0.917621 -0
    outer loop
      vertex 16.3901 1.18064 0.5
      vertex 15.838 1.4198 2.5
      vertex 16.3901 1.18064 2.5
    endloop
  endfacet
  facet normal 0.397456 0.917621 0
    outer loop
      vertex 15.838 1.4198 2.5
      vertex 16.3901 1.18064 0.5
      vertex 15.838 1.4198 0.5
    endloop
  endfacet
  facet normal 0.54876 0.83598 -0
    outer loop
      vertex 15.838 1.4198 0.5
      vertex 15.3349 1.75 2.5
      vertex 15.838 1.4198 2.5
    endloop
  endfacet
  facet normal 0.54876 0.83598 0
    outer loop
      vertex 15.3349 1.75 2.5
      vertex 15.838 1.4198 0.5
      vertex 15.3349 1.75 0.5
    endloop
  endfacet
  facet normal 0.056888 0.998381 -0
    outer loop
      vertex 15.3349 1.75 0.5
      vertex 3.05 2.45 2.5
      vertex 15.3349 1.75 2.5
    endloop
  endfacet
  facet normal 0.056888 0.998381 0
    outer loop
      vertex 3.05 2.45 2.5
      vertex 15.3349 1.75 0.5
      vertex 3.05 2.45 0.5
    endloop
  endfacet
  facet normal 0.0871577 0.996195 -0
    outer loop
      vertex 3.05 2.45 0.5
      vertex 2.69402 2.48114 2.5
      vertex 3.05 2.45 2.5
    endloop
  endfacet
  facet normal 0.0871577 0.996195 0
    outer loop
      vertex 2.69402 2.48114 2.5
      vertex 3.05 2.45 0.5
      vertex 2.69402 2.48114 0.5
    endloop
  endfacet
  facet normal 0.258823 0.965925 -0
    outer loop
      vertex 2.69402 2.48114 0.5
      vertex 2.34886 2.57363 2.5
      vertex 2.69402 2.48114 2.5
    endloop
  endfacet
  facet normal 0.258823 0.965925 0
    outer loop
      vertex 2.34886 2.57363 2.5
      vertex 2.69402 2.48114 0.5
      vertex 2.34886 2.57363 0.5
    endloop
  endfacet
  facet normal 0.422615 0.906309 -0
    outer loop
      vertex 2.34886 2.57363 0.5
      vertex 2.025 2.72465 2.5
      vertex 2.34886 2.57363 2.5
    endloop
  endfacet
  facet normal 0.422615 0.906309 0
    outer loop
      vertex 2.025 2.72465 2.5
      vertex 2.34886 2.57363 0.5
      vertex 2.025 2.72465 0.5
    endloop
  endfacet
  facet normal 0.573576 0.819152 -0
    outer loop
      vertex 2.025 2.72465 0.5
      vertex 1.73229 2.92961 2.5
      vertex 2.025 2.72465 2.5
    endloop
  endfacet
  facet normal 0.573576 0.819152 0
    outer loop
      vertex 1.73229 2.92961 2.5
      vertex 2.025 2.72465 0.5
      vertex 1.73229 2.92961 0.5
    endloop
  endfacet
  facet normal 0.707107 0.707107 0
    outer loop
      vertex 1.73229 2.92961 2.5
      vertex 1.47961 3.18229 0.5
      vertex 1.47961 3.18229 2.5
    endloop
  endfacet
  facet normal 0.707107 0.707107 0
    outer loop
      vertex 1.47961 3.18229 0.5
      vertex 1.73229 2.92961 2.5
      vertex 1.73229 2.92961 0.5
    endloop
  endfacet
  facet normal 0.819151 0.573577 0
    outer loop
      vertex 1.47961 3.18229 2.5
      vertex 1.27465 3.475 0.5
      vertex 1.27465 3.475 2.5
    endloop
  endfacet
  facet normal 0.819151 0.573577 0
    outer loop
      vertex 1.27465 3.475 0.5
      vertex 1.47961 3.18229 2.5
      vertex 1.47961 3.18229 0.5
    endloop
  endfacet
  facet normal 0.906307 0.42262 0
    outer loop
      vertex 1.27465 3.475 2.5
      vertex 1.12363 3.79886 0.5
      vertex 1.12363 3.79886 2.5
    endloop
  endfacet
  facet normal 0.906307 0.42262 0
    outer loop
      vertex 1.12363 3.79886 0.5
      vertex 1.27465 3.475 2.5
      vertex 1.27465 3.475 0.5
    endloop
  endfacet
  facet normal 0.965926 0.258817 0
    outer loop
      vertex 1.12363 3.79886 2.5
      vertex 1.03115 4.14402 0.5
      vertex 1.03115 4.14402 2.5
    endloop
  endfacet
  facet normal 0.965926 0.258817 0
    outer loop
      vertex 1.03115 4.14402 0.5
      vertex 1.12363 3.79886 2.5
      vertex 1.12363 3.79886 0.5
    endloop
  endfacet
  facet normal 0.996195 0.0871534 0
    outer loop
      vertex 1.03115 4.14402 2.5
      vertex 1 4.5 0.5
      vertex 1 4.5 2.5
    endloop
  endfacet
  facet normal 0.996195 0.0871534 0
    outer loop
      vertex 1 4.5 0.5
      vertex 1.03115 4.14402 2.5
      vertex 1.03115 4.14402 0.5
    endloop
  endfacet
  facet normal 0.996195 -0.0871534 0
    outer loop
      vertex 1 4.5 2.5
      vertex 1.03115 4.85598 0.5
      vertex 1.03115 4.85598 2.5
    endloop
  endfacet
  facet normal 0.996195 -0.0871534 0
    outer loop
      vertex 1.03115 4.85598 0.5
      vertex 1 4.5 2.5
      vertex 1 4.5 0.5
    endloop
  endfacet
  facet normal 0.965926 -0.258817 0
    outer loop
      vertex 1.03115 4.85598 2.5
      vertex 1.12363 5.20114 0.5
      vertex 1.12363 5.20114 2.5
    endloop
  endfacet
  facet normal 0.965926 -0.258817 0
    outer loop
      vertex 1.12363 5.20114 0.5
      vertex 1.03115 4.85598 2.5
      vertex 1.03115 4.85598 0.5
    endloop
  endfacet
  facet normal 0.906307 -0.42262 0
    outer loop
      vertex 1.12363 5.20114 2.5
      vertex 1.27465 5.525 0.5
      vertex 1.27465 5.525 2.5
    endloop
  endfacet
  facet normal 0.906307 -0.42262 0
    outer loop
      vertex 1.27465 5.525 0.5
      vertex 1.12363 5.20114 2.5
      vertex 1.12363 5.20114 0.5
    endloop
  endfacet
  facet normal 0.819151 -0.573577 0
    outer loop
      vertex 1.27465 5.525 2.5
      vertex 1.47961 5.81771 0.5
      vertex 1.47961 5.81771 2.5
    endloop
  endfacet
  facet normal 0.819151 -0.573577 0
    outer loop
      vertex 1.47961 5.81771 0.5
      vertex 1.27465 5.525 2.5
      vertex 1.27465 5.525 0.5
    endloop
  endfacet
  facet normal 0.707104 -0.707109 0
    outer loop
      vertex 1.47961 5.81771 0.5
      vertex 1.73229 6.07039 2.5
      vertex 1.47961 5.81771 2.5
    endloop
  endfacet
  facet normal 0.707104 -0.707109 0
    outer loop
      vertex 1.73229 6.07039 2.5
      vertex 1.47961 5.81771 0.5
      vertex 1.73229 6.07039 0.5
    endloop
  endfacet
  facet normal 0.57358 -0.81915 0
    outer loop
      vertex 1.73229 6.07039 0.5
      vertex 2.025 6.27535 2.5
      vertex 1.73229 6.07039 2.5
    endloop
  endfacet
  facet normal 0.57358 -0.81915 0
    outer loop
      vertex 2.025 6.27535 2.5
      vertex 1.73229 6.07039 0.5
      vertex 2.025 6.27535 0.5
    endloop
  endfacet
  facet normal 0.42262 -0.906307 0
    outer loop
      vertex 2.025 6.27535 0.5
      vertex 2.34886 6.42637 2.5
      vertex 2.025 6.27535 2.5
    endloop
  endfacet
  facet normal 0.42262 -0.906307 0
    outer loop
      vertex 2.34886 6.42637 2.5
      vertex 2.025 6.27535 0.5
      vertex 2.34886 6.42637 0.5
    endloop
  endfacet
  facet normal 0.258818 -0.965926 0
    outer loop
      vertex 2.34886 6.42637 0.5
      vertex 2.69402 6.51886 2.5
      vertex 2.34886 6.42637 2.5
    endloop
  endfacet
  facet normal 0.258818 -0.965926 0
    outer loop
      vertex 2.69402 6.51886 2.5
      vertex 2.34886 6.42637 0.5
      vertex 2.69402 6.51886 0.5
    endloop
  endfacet
  facet normal 0.0871524 -0.996195 0
    outer loop
      vertex 2.69402 6.51886 0.5
      vertex 3.05 6.55 2.5
      vertex 2.69402 6.51886 2.5
    endloop
  endfacet
  facet normal 0.0871524 -0.996195 0
    outer loop
      vertex 3.05 6.55 2.5
      vertex 2.69402 6.51886 0.5
      vertex 3.05 6.55 0.5
    endloop
  endfacet
  facet normal -0.0380011 0.999278 0
    outer loop
      vertex 15.0125 8.25 0
      vertex 0.609728 7.70228 2.5
      vertex 15.0125 8.25 2.5
    endloop
  endfacet
  facet normal -0.0380011 0.999278 0
    outer loop
      vertex 0.609728 7.70228 2.5
      vertex 15.0125 8.25 0
      vertex 0.609728 7.70228 0
    endloop
  endfacet
  facet normal -0.038001 -0.999278 0
    outer loop
      vertex 0.609728 1.29772 0
      vertex 15.0125 0.75 2.5
      vertex 0.609728 1.29772 2.5
    endloop
  endfacet
  facet normal -0.038001 -0.999278 -0
    outer loop
      vertex 15.0125 0.75 2.5
      vertex 0.609728 1.29772 0
      vertex 15.0125 0.75 0
    endloop
  endfacet
  facet normal 0.0286904 -0.999588 0
    outer loop
      vertex 0 1.28022 0
      vertex 0.609728 1.29772 2.5
      vertex 0 1.28022 2.5
    endloop
  endfacet
  facet normal 0.0286904 -0.999588 0
    outer loop
      vertex 0.609728 1.29772 2.5
      vertex 0 1.28022 0
      vertex 0.609728 1.29772 0
    endloop
  endfacet
  facet normal 0.0286933 0.999588 -0
    outer loop
      vertex 0.609728 7.70228 0
      vertex 0 7.71978 2.5
      vertex 0.609728 7.70228 2.5
    endloop
  endfacet
  facet normal 0.0286933 0.999588 0
    outer loop
      vertex 0 7.71978 2.5
      vertex 0.609728 7.70228 0
      vertex 0 7.71978 0
    endloop
  endfacet
  facet normal 0 0 -1
    outer loop
      vertex 18.4848 4.32635 0
      vertex 21.9833 4.11232 0
      vertex 21.8502 3.34845 0
    endloop
  endfacet
  facet normal 0 0 -1
    outer loop
      vertex 21.9833 4.11232 0
      vertex 18.5 4.5 0
      vertex 21.9833 4.88769 0
    endloop
  endfacet
  facet normal 0 0 -1
    outer loop
      vertex 18.4397 4.15798 0
      vertex 21.8502 3.34845 0
      vertex 21.5879 2.61878 0
    endloop
  endfacet
  facet normal 0 0 -1
    outer loop
      vertex 18.4848 4.67365 0
      vertex 21.9833 4.88769 0
      vertex 18.5 4.5 0
    endloop
  endfacet
  facet normal 0 0 -1
    outer loop
      vertex 18.366 4 0
      vertex 21.5879 2.61878 0
      vertex 21.2043 1.94496 0
    endloop
  endfacet
  facet normal -0 0 -1
    outer loop
      vertex 21.9833 4.88769 0
      vertex 18.4848 4.67365 0
      vertex 21.8502 5.65155 0
    endloop
  endfacet
  facet normal 0 0 -1
    outer loop
      vertex 18.266 3.85721 0
      vertex 21.2043 1.94496 0
      vertex 20.7107 1.34699 0
    endloop
  endfacet
  facet normal 0 0 -1
    outer loop
      vertex 18.4397 4.84202 0
      vertex 21.8502 5.65155 0
      vertex 18.4848 4.67365 0
    endloop
  endfacet
  facet normal 0 0 -1
    outer loop
      vertex 18.1428 3.73396 0
      vertex 20.7107 1.34699 0
      vertex 20.1218 0.842638 0
    endloop
  endfacet
  facet normal -0 0 -1
    outer loop
      vertex 21.8502 5.65155 0
      vertex 18.4397 4.84202 0
      vertex 21.5879 6.38122 0
    endloop
  endfacet
  facet normal 0 0 -1
    outer loop
      vertex 18 3.63398 0
      vertex 20.1218 0.842638 0
      vertex 19.455 0.446865 0
    endloop
  endfacet
  facet normal 0 0 -1
    outer loop
      vertex 18.366 5 0
      vertex 21.5879 6.38122 0
      vertex 18.4397 4.84202 0
    endloop
  endfacet
  facet normal 0 0 -1
    outer loop
      vertex 17.842 3.56031 0
      vertex 19.455 0.446865 0
      vertex 18.7302 0.171425 0
    endloop
  endfacet
  facet normal -0 0 -1
    outer loop
      vertex 21.5879 6.38122 0
      vertex 18.366 5 0
      vertex 21.2043 7.05504 0
    endloop
  endfacet
  facet normal 0 0 -1
    outer loop
      vertex 18.266 5.14279 0
      vertex 21.2043 7.05504 0
      vertex 18.366 5 0
    endloop
  endfacet
  facet normal 0 0 -1
    outer loop
      vertex 21.9833 4.11232 0
      vertex 18.4848 4.32635 0
      vertex 18.5 4.5 0
    endloop
  endfacet
  facet normal 0 0 -1
    outer loop
      vertex 21.8502 3.34845 0
      vertex 18.4397 4.15798 0
      vertex 18.4848 4.32635 0
    endloop
  endfacet
  facet normal 0 0 -1
    outer loop
      vertex 21.5879 2.61878 0
      vertex 18.366 4 0
      vertex 18.4397 4.15798 0
    endloop
  endfacet
  facet normal 0 0 -1
    outer loop
      vertex 21.2043 1.94496 0
      vertex 18.266 3.85721 0
      vertex 18.366 4 0
    endloop
  endfacet
  facet normal 0 0 -1
    outer loop
      vertex 20.7107 1.34699 0
      vertex 18.1428 3.73396 0
      vertex 18.266 3.85721 0
    endloop
  endfacet
  facet normal 0 0 -1
    outer loop
      vertex 20.1218 0.842638 0
      vertex 18 3.63398 0
      vertex 18.1428 3.73396 0
    endloop
  endfacet
  facet normal 0 0 -1
    outer loop
      vertex 17.6736 3.51519 0
      vertex 18.7302 0.171425 0
      vertex 17.9689 0.0244961 0
    endloop
  endfacet
  facet normal 0 0 -1
    outer loop
      vertex 19.455 0.446865 0
      vertex 17.842 3.56031 0
      vertex 18 3.63398 0
    endloop
  endfacet
  facet normal 0 0 -1
    outer loop
      vertex 18.7302 0.171425 0
      vertex 17.6736 3.51519 0
      vertex 17.842 3.56031 0
    endloop
  endfacet
  facet normal 0 0 -1
    outer loop
      vertex 17.9689 0.0244961 0
      vertex 17.5 3.5 0
      vertex 17.6736 3.51519 0
    endloop
  endfacet
  facet normal 0 0 -1
    outer loop
      vertex 17.1937 0.0104389 0
      vertex 17.5 3.5 0
      vertex 17.9689 0.0244961 0
    endloop
  endfacet
  facet normal -0 0 -1
    outer loop
      vertex 17.5 3.5 0
      vertex 17.1937 0.0104389 0
      vertex 17.3264 3.51519 0
    endloop
  endfacet
  facet normal 0 0 -1
    outer loop
      vertex 16.4275 0.129675 0
      vertex 17.3264 3.51519 0
      vertex 17.1937 0.0104389 0
    endloop
  endfacet
  facet normal -0 0 -1
    outer loop
      vertex 17.3264 3.51519 0
      vertex 16.4275 0.129675 0
      vertex 17.158 3.56031 0
    endloop
  endfacet
  facet normal 0 0 -1
    outer loop
      vertex 15.6932 0.378658 0
      vertex 17.158 3.56031 0
      vertex 16.4275 0.129675 0
    endloop
  endfacet
  facet normal -0 0 -1
    outer loop
      vertex 17.158 3.56031 0
      vertex 15.6932 0.378658 0
      vertex 17 3.63398 0
    endloop
  endfacet
  facet normal 0 0 -1
    outer loop
      vertex 15.0125 0.75 0
      vertex 17 3.63398 0
      vertex 15.6932 0.378658 0
    endloop
  endfacet
  facet normal -0 0 -1
    outer loop
      vertex 17 3.63398 0
      vertex 15.0125 0.75 0
      vertex 16.8572 3.73396 0
    endloop
  endfacet
  facet normal -0 0 -1
    outer loop
      vertex 16.8572 3.73396 0
      vertex 15.0125 0.75 0
      vertex 16.734 3.85721 0
    endloop
  endfacet
  facet normal -0 0 -1
    outer loop
      vertex 16.634 4 0
      vertex 15.0125 0.75 0
      vertex 16.5603 4.15798 0
    endloop
  endfacet
  facet normal -0 0 -1
    outer loop
      vertex 16.734 3.85721 0
      vertex 15.0125 0.75 0
      vertex 16.634 4 0
    endloop
  endfacet
  facet normal -0 0 -1
    outer loop
      vertex 21.2043 7.05504 0
      vertex 18.266 5.14279 0
      vertex 20.7107 7.65301 0
    endloop
  endfacet
  facet normal 0 0 -1
    outer loop
      vertex 18.1428 5.26604 0
      vertex 20.7107 7.65301 0
      vertex 18.266 5.14279 0
    endloop
  endfacet
  facet normal -0 0 -1
    outer loop
      vertex 20.7107 7.65301 0
      vertex 18.1428 5.26604 0
      vertex 20.1218 8.15736 0
    endloop
  endfacet
  facet normal 0 0 -1
    outer loop
      vertex 18 5.36603 0
      vertex 20.1218 8.15736 0
      vertex 18.1428 5.26604 0
    endloop
  endfacet
  facet normal -0 0 -1
    outer loop
      vertex 20.1218 8.15736 0
      vertex 18 5.36603 0
      vertex 19.455 8.55313 0
    endloop
  endfacet
  facet normal 0 0 -1
    outer loop
      vertex 17.842 5.43969 0
      vertex 19.455 8.55313 0
      vertex 18 5.36603 0
    endloop
  endfacet
  facet normal -0 0 -1
    outer loop
      vertex 19.455 8.55313 0
      vertex 17.842 5.43969 0
      vertex 18.7302 8.82858 0
    endloop
  endfacet
  facet normal 0 0 -1
    outer loop
      vertex 17.6736 5.48481 0
      vertex 18.7302 8.82858 0
      vertex 17.842 5.43969 0
    endloop
  endfacet
  facet normal -0 0 -1
    outer loop
      vertex 18.7302 8.82858 0
      vertex 17.6736 5.48481 0
      vertex 17.9689 8.97551 0
    endloop
  endfacet
  facet normal 0 0 -1
    outer loop
      vertex 17.5 5.5 0
      vertex 17.9689 8.97551 0
      vertex 17.6736 5.48481 0
    endloop
  endfacet
  facet normal 0 0 -1
    outer loop
      vertex 17.1937 8.98956 0
      vertex 17.5 5.5 0
      vertex 17.3264 5.48481 0
    endloop
  endfacet
  facet normal 0 0 -1
    outer loop
      vertex 17.5 5.5 0
      vertex 17.1937 8.98956 0
      vertex 17.9689 8.97551 0
    endloop
  endfacet
  facet normal 0 0 -1
    outer loop
      vertex 16.4275 8.87033 0
      vertex 17.3264 5.48481 0
      vertex 17.158 5.43969 0
    endloop
  endfacet
  facet normal 0 0 -1
    outer loop
      vertex 15.6932 8.62134 0
      vertex 17.158 5.43969 0
      vertex 17 5.36603 0
    endloop
  endfacet
  facet normal 0 0 -1
    outer loop
      vertex 15.0125 8.25 0
      vertex 17 5.36603 0
      vertex 16.8572 5.26604 0
    endloop
  endfacet
  facet normal 0 0 -1
    outer loop
      vertex 15.0125 8.25 0
      vertex 16.8572 5.26604 0
      vertex 16.734 5.14279 0
    endloop
  endfacet
  facet normal 0 0 -1
    outer loop
      vertex 15.0125 8.25 0
      vertex 16.734 5.14279 0
      vertex 16.634 5 0
    endloop
  endfacet
  facet normal 0 0 -1
    outer loop
      vertex 15.0125 8.25 0
      vertex 16.634 5 0
      vertex 16.5603 4.84202 0
    endloop
  endfacet
  facet normal 0 0 -1
    outer loop
      vertex 15.0125 8.25 0
      vertex 16.5603 4.84202 0
      vertex 16.5152 4.67365 0
    endloop
  endfacet
  facet normal 0 0 -1
    outer loop
      vertex 17.3264 5.48481 0
      vertex 16.4275 8.87033 0
      vertex 17.1937 8.98956 0
    endloop
  endfacet
  facet normal 0 0 -1
    outer loop
      vertex 15.0125 8.25 0
      vertex 16.5152 4.67365 0
      vertex 16.5 4.5 0
    endloop
  endfacet
  facet normal -0 0 -1
    outer loop
      vertex 16.5603 4.15798 0
      vertex 15.0125 0.75 0
      vertex 16.5152 4.32635 0
    endloop
  endfacet
  facet normal -0 0 -1
    outer loop
      vertex 16.5152 4.32635 0
      vertex 15.0125 0.75 0
      vertex 16.5 4.5 0
    endloop
  endfacet
  facet normal 0 0 -1
    outer loop
      vertex 17.158 5.43969 0
      vertex 15.6932 8.62134 0
      vertex 16.4275 8.87033 0
    endloop
  endfacet
  facet normal 0 0 -1
    outer loop
      vertex 15.0125 8.25 0
      vertex 16.5 4.5 0
      vertex 15.0125 0.75 0
    endloop
  endfacet
  facet normal 0 0 -1
    outer loop
      vertex 17 5.36603 0
      vertex 15.0125 8.25 0
      vertex 15.6932 8.62134 0
    endloop
  endfacet
  facet normal 0 0 -1
    outer loop
      vertex 0.609728 1.29772 0
      vertex 15.0125 8.25 0
      vertex 15.0125 0.75 0
    endloop
  endfacet
  facet normal 0 0 -1
    outer loop
      vertex 0.609728 1.29772 0
      vertex 0.609728 7.70228 0
      vertex 15.0125 8.25 0
    endloop
  endfacet
  facet normal 0 0 -1
    outer loop
      vertex 0 1.28022 0
      vertex 0.609728 7.70228 0
      vertex 0.609728 1.29772 0
    endloop
  endfacet
  facet normal -0 0 -1
    outer loop
      vertex 0.609728 7.70228 0
      vertex 0 1.28022 0
      vertex 0 7.71978 0
    endloop
  endfacet
  facet normal 0 0 1
    outer loop
      vertex 19.65 4.5 0.5
      vertex 21 4.5 0.5
      vertex 20.9483 5.0995 0.5
    endloop
  endfacet
  facet normal 0 0 1
    outer loop
      vertex 19.6173 4.87334 0.5
      vertex 20.9483 5.0995 0.5
      vertex 20.7946 5.68128 0.5
    endloop
  endfacet
  facet normal 0 0 1
    outer loop
      vertex 21 4.5 0.5
      vertex 19.65 4.5 0.5
      vertex 20.9483 3.9005 0.5
    endloop
  endfacet
  facet normal 0 0 1
    outer loop
      vertex 19.5203 5.23534 0.5
      vertex 20.7946 5.68128 0.5
      vertex 20.5436 6.22814 0.5
    endloop
  endfacet
  facet normal -0 0 1
    outer loop
      vertex 19.6173 4.12666 0.5
      vertex 20.9483 3.9005 0.5
      vertex 19.65 4.5 0.5
    endloop
  endfacet
  facet normal 0 0 1
    outer loop
      vertex 19.362 5.575 0.5
      vertex 20.5436 6.22814 0.5
      vertex 20.2026 6.72393 0.5
    endloop
  endfacet
  facet normal 0 0 1
    outer loop
      vertex 20.9483 3.9005 0.5
      vertex 19.6173 4.12666 0.5
      vertex 20.7946 3.31872 0.5
    endloop
  endfacet
  facet normal 0 0 1
    outer loop
      vertex 19.147 5.88199 0.5
      vertex 20.2026 6.72393 0.5
      vertex 19.7818 7.15398 0.5
    endloop
  endfacet
  facet normal -0 0 1
    outer loop
      vertex 19.5203 3.76466 0.5
      vertex 20.7946 3.31872 0.5
      vertex 19.6173 4.12666 0.5
    endloop
  endfacet
  facet normal 0 0 1
    outer loop
      vertex 20.7946 3.31872 0.5
      vertex 19.5203 3.76466 0.5
      vertex 20.5436 2.77186 0.5
    endloop
  endfacet
  facet normal 0 0 1
    outer loop
      vertex 20.9483 5.0995 0.5
      vertex 19.6173 4.87334 0.5
      vertex 19.65 4.5 0.5
    endloop
  endfacet
  facet normal 0 0 1
    outer loop
      vertex 20.7946 5.68128 0.5
      vertex 19.5203 5.23534 0.5
      vertex 19.6173 4.87334 0.5
    endloop
  endfacet
  facet normal 0 0 1
    outer loop
      vertex 20.5436 6.22814 0.5
      vertex 19.362 5.575 0.5
      vertex 19.5203 5.23534 0.5
    endloop
  endfacet
  facet normal 0 0 1
    outer loop
      vertex 18.882 6.147 0.5
      vertex 19.7818 7.15398 0.5
      vertex 19.2934 7.50559 0.5
    endloop
  endfacet
  facet normal 0 0 1
    outer loop
      vertex 20.2026 6.72393 0.5
      vertex 19.147 5.88199 0.5
      vertex 19.362 5.575 0.5
    endloop
  endfacet
  facet normal 0 0 1
    outer loop
      vertex 19.7818 7.15398 0.5
      vertex 18.882 6.147 0.5
      vertex 19.147 5.88199 0.5
    endloop
  endfacet
  facet normal 0 0 1
    outer loop
      vertex 18.575 6.36196 0.5
      vertex 19.2934 7.50559 0.5
      vertex 18.7521 7.76836 0.5
    endloop
  endfacet
  facet normal 0 0 1
    outer loop
      vertex 19.2934 7.50559 0.5
      vertex 18.575 6.36196 0.5
      vertex 18.882 6.147 0.5
    endloop
  endfacet
  facet normal 0 0 1
    outer loop
      vertex 18.7521 7.76836 0.5
      vertex 18.2353 6.52034 0.5
      vertex 18.575 6.36196 0.5
    endloop
  endfacet
  facet normal 0 0 1
    outer loop
      vertex 18.1738 7.93453 0.5
      vertex 18.2353 6.52034 0.5
      vertex 18.7521 7.76836 0.5
    endloop
  endfacet
  facet normal 0 0 1
    outer loop
      vertex 18.1738 7.93453 0.5
      vertex 17.8733 6.61734 0.5
      vertex 18.2353 6.52034 0.5
    endloop
  endfacet
  facet normal 0 0 1
    outer loop
      vertex 17.5756 7.99918 0.5
      vertex 17.8733 6.61734 0.5
      vertex 18.1738 7.93453 0.5
    endloop
  endfacet
  facet normal 0 0 1
    outer loop
      vertex 17.5756 7.99918 0.5
      vertex 17.5 6.65 0.5
      vertex 17.8733 6.61734 0.5
    endloop
  endfacet
  facet normal -0 0 1
    outer loop
      vertex 16.9751 7.96041 0.5
      vertex 17.5 6.65 0.5
      vertex 17.5756 7.99918 0.5
    endloop
  endfacet
  facet normal 0 0 1
    outer loop
      vertex 17.5 6.65 0.5
      vertex 16.9751 7.96041 0.5
      vertex 17.1267 6.61734 0.5
    endloop
  endfacet
  facet normal -0 0 1
    outer loop
      vertex 16.3901 7.81936 0.5
      vertex 17.1267 6.61734 0.5
      vertex 16.9751 7.96041 0.5
    endloop
  endfacet
  facet normal 0 0 1
    outer loop
      vertex 17.1267 6.61734 0.5
      vertex 16.3901 7.81936 0.5
      vertex 16.7647 6.52034 0.5
    endloop
  endfacet
  facet normal -0 0 1
    outer loop
      vertex 15.838 7.5802 0.5
      vertex 16.7647 6.52034 0.5
      vertex 16.3901 7.81936 0.5
    endloop
  endfacet
  facet normal 0 0 1
    outer loop
      vertex 16.7647 6.52034 0.5
      vertex 15.838 7.5802 0.5
      vertex 16.425 6.36196 0.5
    endloop
  endfacet
  facet normal -0 0 1
    outer loop
      vertex 15.3349 7.25 0.5
      vertex 16.425 6.36196 0.5
      vertex 15.838 7.5802 0.5
    endloop
  endfacet
  facet normal 0 0 1
    outer loop
      vertex 16.425 6.36196 0.5
      vertex 15.3349 7.25 0.5
      vertex 16.118 6.147 0.5
    endloop
  endfacet
  facet normal 0 0 1
    outer loop
      vertex 16.118 6.147 0.5
      vertex 15.3349 7.25 0.5
      vertex 15.853 5.88199 0.5
    endloop
  endfacet
  facet normal 0 0 1
    outer loop
      vertex 15.853 5.88199 0.5
      vertex 15.3349 7.25 0.5
      vertex 15.638 5.575 0.5
    endloop
  endfacet
  facet normal 0 0 1
    outer loop
      vertex 15.638 5.575 0.5
      vertex 15.3349 7.25 0.5
      vertex 15.4797 5.23534 0.5
    endloop
  endfacet
  facet normal -0 0 1
    outer loop
      vertex 3.05 6.55 0.5
      vertex 15.3827 4.87334 0.5
      vertex 15.3349 7.25 0.5
    endloop
  endfacet
  facet normal 0 0 1
    outer loop
      vertex 15.4797 5.23534 0.5
      vertex 15.3349 7.25 0.5
      vertex 15.3827 4.87334 0.5
    endloop
  endfacet
  facet normal -0 0 1
    outer loop
      vertex 19.362 3.425 0.5
      vertex 20.5436 2.77186 0.5
      vertex 19.5203 3.76466 0.5
    endloop
  endfacet
  facet normal 0 0 1
    outer loop
      vertex 20.5436 2.77186 0.5
      vertex 19.362 3.425 0.5
      vertex 20.2026 2.27607 0.5
    endloop
  endfacet
  facet normal -0 0 1
    outer loop
      vertex 19.147 3.11801 0.5
      vertex 20.2026 2.27607 0.5
      vertex 19.362 3.425 0.5
    endloop
  endfacet
  facet normal 0 0 1
    outer loop
      vertex 20.2026 2.27607 0.5
      vertex 19.147 3.11801 0.5
      vertex 19.7818 1.84602 0.5
    endloop
  endfacet
  facet normal -0 0 1
    outer loop
      vertex 18.882 2.853 0.5
      vertex 19.7818 1.84602 0.5
      vertex 19.147 3.11801 0.5
    endloop
  endfacet
  facet normal 0 0 1
    outer loop
      vertex 19.7818 1.84602 0.5
      vertex 18.882 2.853 0.5
      vertex 19.2934 1.49441 0.5
    endloop
  endfacet
  facet normal -0 0 1
    outer loop
      vertex 18.575 2.63804 0.5
      vertex 19.2934 1.49441 0.5
      vertex 18.882 2.853 0.5
    endloop
  endfacet
  facet normal 0 0 1
    outer loop
      vertex 19.2934 1.49441 0.5
      vertex 18.575 2.63804 0.5
      vertex 18.7521 1.23164 0.5
    endloop
  endfacet
  facet normal -0 0 1
    outer loop
      vertex 18.2353 2.47966 0.5
      vertex 18.7521 1.23164 0.5
      vertex 18.575 2.63804 0.5
    endloop
  endfacet
  facet normal 0 0 1
    outer loop
      vertex 18.2353 2.47966 0.5
      vertex 18.1738 1.06547 0.5
      vertex 18.7521 1.23164 0.5
    endloop
  endfacet
  facet normal -0 0 1
    outer loop
      vertex 17.8733 2.38266 0.5
      vertex 18.1738 1.06547 0.5
      vertex 18.2353 2.47966 0.5
    endloop
  endfacet
  facet normal 0 0 1
    outer loop
      vertex 17.8733 2.38266 0.5
      vertex 17.5756 1.00081 0.5
      vertex 18.1738 1.06547 0.5
    endloop
  endfacet
  facet normal -0 0 1
    outer loop
      vertex 17.5 2.35 0.5
      vertex 17.5756 1.00081 0.5
      vertex 17.8733 2.38266 0.5
    endloop
  endfacet
  facet normal 0 0 1
    outer loop
      vertex 16.9751 1.03959 0.5
      vertex 17.5 2.35 0.5
      vertex 17.1267 2.38266 0.5
    endloop
  endfacet
  facet normal 0 0 1
    outer loop
      vertex 17.5 2.35 0.5
      vertex 16.9751 1.03959 0.5
      vertex 17.5756 1.00081 0.5
    endloop
  endfacet
  facet normal 0 0 1
    outer loop
      vertex 16.3901 1.18064 0.5
      vertex 17.1267 2.38266 0.5
      vertex 16.7647 2.47966 0.5
    endloop
  endfacet
  facet normal 0 0 1
    outer loop
      vertex 15.838 1.4198 0.5
      vertex 16.7647 2.47966 0.5
      vertex 16.425 2.63804 0.5
    endloop
  endfacet
  facet normal 0 0 1
    outer loop
      vertex 17.1267 2.38266 0.5
      vertex 16.3901 1.18064 0.5
      vertex 16.9751 1.03959 0.5
    endloop
  endfacet
  facet normal 0 0 1
    outer loop
      vertex 15.3349 1.75 0.5
      vertex 16.425 2.63804 0.5
      vertex 16.118 2.853 0.5
    endloop
  endfacet
  facet normal 0 0 1
    outer loop
      vertex 15.3349 1.75 0.5
      vertex 16.118 2.853 0.5
      vertex 15.853 3.11801 0.5
    endloop
  endfacet
  facet normal 0 0 1
    outer loop
      vertex 16.7647 2.47966 0.5
      vertex 15.838 1.4198 0.5
      vertex 16.3901 1.18064 0.5
    endloop
  endfacet
  facet normal 0 0 1
    outer loop
      vertex 15.3349 1.75 0.5
      vertex 15.853 3.11801 0.5
      vertex 15.638 3.425 0.5
    endloop
  endfacet
  facet normal 0 0 1
    outer loop
      vertex 15.3349 1.75 0.5
      vertex 15.638 3.425 0.5
      vertex 15.4797 3.76466 0.5
    endloop
  endfacet
  facet normal 0 0 1
    outer loop
      vertex 15.3349 1.75 0.5
      vertex 15.4797 3.76466 0.5
      vertex 15.3827 4.12666 0.5
    endloop
  endfacet
  facet normal 0 0 1
    outer loop
      vertex 16.425 2.63804 0.5
      vertex 15.3349 1.75 0.5
      vertex 15.838 1.4198 0.5
    endloop
  endfacet
  facet normal 0 0 1
    outer loop
      vertex 3.05 2.45 0.5
      vertex 15.3827 4.12666 0.5
      vertex 15.35 4.5 0.5
    endloop
  endfacet
  facet normal 0 0 1
    outer loop
      vertex 15.3827 4.87334 0.5
      vertex 3.05 6.55 0.5
      vertex 15.35 4.5 0.5
    endloop
  endfacet
  facet normal 0 0 1
    outer loop
      vertex 3.05 2.45 0.5
      vertex 15.35 4.5 0.5
      vertex 3.05 6.55 0.5
    endloop
  endfacet
  facet normal 0 0 1
    outer loop
      vertex 15.3827 4.12666 0.5
      vertex 3.05 2.45 0.5
      vertex 15.3349 1.75 0.5
    endloop
  endfacet
  facet normal -0 0 1
    outer loop
      vertex 2.69402 6.51886 0.5
      vertex 3.05 2.45 0.5
      vertex 3.05 6.55 0.5
    endloop
  endfacet
  facet normal 0 0 1
    outer loop
      vertex 2.69402 6.51886 0.5
      vertex 2.69402 2.48114 0.5
      vertex 3.05 2.45 0.5
    endloop
  endfacet
  facet normal -0 0 1
    outer loop
      vertex 2.34886 6.42637 0.5
      vertex 2.69402 2.48114 0.5
      vertex 2.69402 6.51886 0.5
    endloop
  endfacet
  facet normal 0 0 1
    outer loop
      vertex 2.34886 6.42637 0.5
      vertex 2.34886 2.57363 0.5
      vertex 2.69402 2.48114 0.5
    endloop
  endfacet
  facet normal -0 0 1
    outer loop
      vertex 2.025 6.27535 0.5
      vertex 2.34886 2.57363 0.5
      vertex 2.34886 6.42637 0.5
    endloop
  endfacet
  facet normal 0 0 1
    outer loop
      vertex 2.025 6.27535 0.5
      vertex 2.025 2.72465 0.5
      vertex 2.34886 2.57363 0.5
    endloop
  endfacet
  facet normal -0 0 1
    outer loop
      vertex 1.73229 6.07039 0.5
      vertex 2.025 2.72465 0.5
      vertex 2.025 6.27535 0.5
    endloop
  endfacet
  facet normal 0 0 1
    outer loop
      vertex 1.73229 6.07039 0.5
      vertex 1.73229 2.92961 0.5
      vertex 2.025 2.72465 0.5
    endloop
  endfacet
  facet normal -0 0 1
    outer loop
      vertex 1.47961 5.81771 0.5
      vertex 1.73229 2.92961 0.5
      vertex 1.73229 6.07039 0.5
    endloop
  endfacet
  facet normal 0 0 1
    outer loop
      vertex 1.47961 5.81771 0.5
      vertex 1.47961 3.18229 0.5
      vertex 1.73229 2.92961 0.5
    endloop
  endfacet
  facet normal -0 0 1
    outer loop
      vertex 1.27465 5.525 0.5
      vertex 1.47961 3.18229 0.5
      vertex 1.47961 5.81771 0.5
    endloop
  endfacet
  facet normal 0 0 1
    outer loop
      vertex 1.27465 5.525 0.5
      vertex 1.27465 3.475 0.5
      vertex 1.47961 3.18229 0.5
    endloop
  endfacet
  facet normal -0 0 1
    outer loop
      vertex 1.12363 5.20114 0.5
      vertex 1.27465 3.475 0.5
      vertex 1.27465 5.525 0.5
    endloop
  endfacet
  facet normal 0 0 1
    outer loop
      vertex 1.12363 5.20114 0.5
      vertex 1.12363 3.79886 0.5
      vertex 1.27465 3.475 0.5
    endloop
  endfacet
  facet normal -0 0 1
    outer loop
      vertex 1.03115 4.85598 0.5
      vertex 1.12363 3.79886 0.5
      vertex 1.12363 5.20114 0.5
    endloop
  endfacet
  facet normal 0 0 1
    outer loop
      vertex 1.03115 4.85598 0.5
      vertex 1.03115 4.14402 0.5
      vertex 1.12363 3.79886 0.5
    endloop
  endfacet
  facet normal 0 -0 1
    outer loop
      vertex 1.03115 4.14402 0.5
      vertex 1.03115 4.85598 0.5
      vertex 1 4.5 0.5
    endloop
  endfacet
  facet normal -0.0871542 -0.996195 0
    outer loop
      vertex 17.5 5.5 0
      vertex 17.6736 5.48481 1.5
      vertex 17.5 5.5 1.5
    endloop
  endfacet
  facet normal -0.0871542 -0.996195 -0
    outer loop
      vertex 17.6736 5.48481 1.5
      vertex 17.5 5.5 0
      vertex 17.6736 5.48481 0
    endloop
  endfacet
  facet normal -0.258824 -0.965924 0
    outer loop
      vertex 17.6736 5.48481 0
      vertex 17.842 5.43969 1.5
      vertex 17.6736 5.48481 1.5
    endloop
  endfacet
  facet normal -0.258824 -0.965924 -0
    outer loop
      vertex 17.842 5.43969 1.5
      vertex 17.6736 5.48481 0
      vertex 17.842 5.43969 0
    endloop
  endfacet
  facet normal -0.422606 -0.906313 0
    outer loop
      vertex 17.842 5.43969 0
      vertex 18 5.36603 1.5
      vertex 17.842 5.43969 1.5
    endloop
  endfacet
  facet normal -0.422606 -0.906313 -0
    outer loop
      vertex 18 5.36603 1.5
      vertex 17.842 5.43969 0
      vertex 18 5.36603 0
    endloop
  endfacet
  facet normal -0.573587 -0.819145 0
    outer loop
      vertex 18 5.36603 0
      vertex 18.1428 5.26604 1.5
      vertex 18 5.36603 1.5
    endloop
  endfacet
  facet normal -0.573587 -0.819145 -0
    outer loop
      vertex 18.1428 5.26604 1.5
      vertex 18 5.36603 0
      vertex 18.1428 5.26604 0
    endloop
  endfacet
  facet normal -0.707107 -0.707107 0
    outer loop
      vertex 18.266 5.14279 0
      vertex 18.1428 5.26604 1.5
      vertex 18.1428 5.26604 0
    endloop
  endfacet
  facet normal -0.707107 -0.707107 0
    outer loop
      vertex 18.1428 5.26604 1.5
      vertex 18.266 5.14279 0
      vertex 18.266 5.14279 1.5
    endloop
  endfacet
  facet normal -0.819147 -0.573584 0
    outer loop
      vertex 18.366 5 0
      vertex 18.266 5.14279 1.5
      vertex 18.266 5.14279 0
    endloop
  endfacet
  facet normal -0.819147 -0.573584 0
    outer loop
      vertex 18.266 5.14279 1.5
      vertex 18.366 5 0
      vertex 18.366 5 1.5
    endloop
  endfacet
  facet normal -0.906311 -0.42261 0
    outer loop
      vertex 18.4397 4.84202 0
      vertex 18.366 5 1.5
      vertex 18.366 5 0
    endloop
  endfacet
  facet normal -0.906311 -0.42261 0
    outer loop
      vertex 18.366 5 1.5
      vertex 18.4397 4.84202 0
      vertex 18.4397 4.84202 1.5
    endloop
  endfacet
  facet normal -0.965924 -0.258824 0
    outer loop
      vertex 18.4848 4.67365 0
      vertex 18.4397 4.84202 1.5
      vertex 18.4397 4.84202 0
    endloop
  endfacet
  facet normal -0.965924 -0.258824 0
    outer loop
      vertex 18.4397 4.84202 1.5
      vertex 18.4848 4.67365 0
      vertex 18.4848 4.67365 1.5
    endloop
  endfacet
  facet normal -0.996196 -0.0871443 0
    outer loop
      vertex 18.5 4.5 0
      vertex 18.4848 4.67365 1.5
      vertex 18.4848 4.67365 0
    endloop
  endfacet
  facet normal -0.996196 -0.0871443 0
    outer loop
      vertex 18.4848 4.67365 1.5
      vertex 18.5 4.5 0
      vertex 18.5 4.5 1.5
    endloop
  endfacet
  facet normal -0.996196 0.0871433 0
    outer loop
      vertex 18.4848 4.32635 0
      vertex 18.5 4.5 1.5
      vertex 18.5 4.5 0
    endloop
  endfacet
  facet normal -0.996196 0.0871433 0
    outer loop
      vertex 18.5 4.5 1.5
      vertex 18.4848 4.32635 0
      vertex 18.4848 4.32635 1.5
    endloop
  endfacet
  facet normal -0.965924 0.258827 0
    outer loop
      vertex 18.4397 4.15798 0
      vertex 18.4848 4.32635 1.5
      vertex 18.4848 4.32635 0
    endloop
  endfacet
  facet normal -0.965924 0.258827 0
    outer loop
      vertex 18.4848 4.32635 1.5
      vertex 18.4397 4.15798 0
      vertex 18.4397 4.15798 1.5
    endloop
  endfacet
  facet normal -0.906311 0.42261 0
    outer loop
      vertex 18.366 4 0
      vertex 18.4397 4.15798 1.5
      vertex 18.4397 4.15798 0
    endloop
  endfacet
  facet normal -0.906311 0.42261 0
    outer loop
      vertex 18.4397 4.15798 1.5
      vertex 18.366 4 0
      vertex 18.366 4 1.5
    endloop
  endfacet
  facet normal -0.819143 0.573589 0
    outer loop
      vertex 18.266 3.85721 0
      vertex 18.366 4 1.5
      vertex 18.366 4 0
    endloop
  endfacet
  facet normal -0.819143 0.573589 0
    outer loop
      vertex 18.366 4 1.5
      vertex 18.266 3.85721 0
      vertex 18.266 3.85721 1.5
    endloop
  endfacet
  facet normal -0.707112 0.707101 0
    outer loop
      vertex 18.1428 3.73396 0
      vertex 18.266 3.85721 1.5
      vertex 18.266 3.85721 0
    endloop
  endfacet
  facet normal -0.707112 0.707101 0
    outer loop
      vertex 18.266 3.85721 1.5
      vertex 18.1428 3.73396 0
      vertex 18.1428 3.73396 1.5
    endloop
  endfacet
  facet normal -0.57358 0.81915 0
    outer loop
      vertex 18.1428 3.73396 0
      vertex 18 3.63398 1.5
      vertex 18.1428 3.73396 1.5
    endloop
  endfacet
  facet normal -0.57358 0.81915 0
    outer loop
      vertex 18 3.63398 1.5
      vertex 18.1428 3.73396 0
      vertex 18 3.63398 0
    endloop
  endfacet
  facet normal -0.422624 0.906305 0
    outer loop
      vertex 18 3.63398 0
      vertex 17.842 3.56031 1.5
      vertex 18 3.63398 1.5
    endloop
  endfacet
  facet normal -0.422624 0.906305 0
    outer loop
      vertex 17.842 3.56031 1.5
      vertex 18 3.63398 0
      vertex 17.842 3.56031 0
    endloop
  endfacet
  facet normal -0.258814 0.965927 0
    outer loop
      vertex 17.842 3.56031 0
      vertex 17.6736 3.51519 1.5
      vertex 17.842 3.56031 1.5
    endloop
  endfacet
  facet normal -0.258814 0.965927 0
    outer loop
      vertex 17.6736 3.51519 1.5
      vertex 17.842 3.56031 0
      vertex 17.6736 3.51519 0
    endloop
  endfacet
  facet normal -0.0871542 0.996195 0
    outer loop
      vertex 17.6736 3.51519 0
      vertex 17.5 3.5 1.5
      vertex 17.6736 3.51519 1.5
    endloop
  endfacet
  facet normal -0.0871542 0.996195 0
    outer loop
      vertex 17.5 3.5 1.5
      vertex 17.6736 3.51519 0
      vertex 17.5 3.5 0
    endloop
  endfacet
  facet normal 0.0871561 0.996195 -0
    outer loop
      vertex 17.5 3.5 0
      vertex 17.3264 3.51519 1.5
      vertex 17.5 3.5 1.5
    endloop
  endfacet
  facet normal 0.0871561 0.996195 0
    outer loop
      vertex 17.3264 3.51519 1.5
      vertex 17.5 3.5 0
      vertex 17.3264 3.51519 0
    endloop
  endfacet
  facet normal 0.258814 0.965927 -0
    outer loop
      vertex 17.3264 3.51519 0
      vertex 17.158 3.56031 1.5
      vertex 17.3264 3.51519 1.5
    endloop
  endfacet
  facet normal 0.258814 0.965927 0
    outer loop
      vertex 17.158 3.56031 1.5
      vertex 17.3264 3.51519 0
      vertex 17.158 3.56031 0
    endloop
  endfacet
  facet normal 0.422624 0.906305 -0
    outer loop
      vertex 17.158 3.56031 0
      vertex 17 3.63398 1.5
      vertex 17.158 3.56031 1.5
    endloop
  endfacet
  facet normal 0.422624 0.906305 0
    outer loop
      vertex 17 3.63398 1.5
      vertex 17.158 3.56031 0
      vertex 17 3.63398 0
    endloop
  endfacet
  facet normal 0.57358 0.81915 -0
    outer loop
      vertex 17 3.63398 0
      vertex 16.8572 3.73396 1.5
      vertex 17 3.63398 1.5
    endloop
  endfacet
  facet normal 0.57358 0.81915 0
    outer loop
      vertex 16.8572 3.73396 1.5
      vertex 17 3.63398 0
      vertex 16.8572 3.73396 0
    endloop
  endfacet
  facet normal 0.707112 0.707101 0
    outer loop
      vertex 16.8572 3.73396 1.5
      vertex 16.734 3.85721 0
      vertex 16.734 3.85721 1.5
    endloop
  endfacet
  facet normal 0.707112 0.707101 0
    outer loop
      vertex 16.734 3.85721 0
      vertex 16.8572 3.73396 1.5
      vertex 16.8572 3.73396 0
    endloop
  endfacet
  facet normal 0.819143 0.573589 0
    outer loop
      vertex 16.734 3.85721 1.5
      vertex 16.634 4 0
      vertex 16.634 4 1.5
    endloop
  endfacet
  facet normal 0.819143 0.573589 0
    outer loop
      vertex 16.634 4 0
      vertex 16.734 3.85721 1.5
      vertex 16.734 3.85721 0
    endloop
  endfacet
  facet normal 0.906311 0.42261 0
    outer loop
      vertex 16.634 4 1.5
      vertex 16.5603 4.15798 0
      vertex 16.5603 4.15798 1.5
    endloop
  endfacet
  facet normal 0.906311 0.42261 0
    outer loop
      vertex 16.5603 4.15798 0
      vertex 16.634 4 1.5
      vertex 16.634 4 0
    endloop
  endfacet
  facet normal 0.965924 0.258827 0
    outer loop
      vertex 16.5603 4.15798 1.5
      vertex 16.5152 4.32635 0
      vertex 16.5152 4.32635 1.5
    endloop
  endfacet
  facet normal 0.965924 0.258827 0
    outer loop
      vertex 16.5152 4.32635 0
      vertex 16.5603 4.15798 1.5
      vertex 16.5603 4.15798 0
    endloop
  endfacet
  facet normal 0.996196 0.0871433 0
    outer loop
      vertex 16.5152 4.32635 1.5
      vertex 16.5 4.5 0
      vertex 16.5 4.5 1.5
    endloop
  endfacet
  facet normal 0.996196 0.0871433 0
    outer loop
      vertex 16.5 4.5 0
      vertex 16.5152 4.32635 1.5
      vertex 16.5152 4.32635 0
    endloop
  endfacet
  facet normal 0.996196 -0.0871443 0
    outer loop
      vertex 16.5 4.5 1.5
      vertex 16.5152 4.67365 0
      vertex 16.5152 4.67365 1.5
    endloop
  endfacet
  facet normal 0.996196 -0.0871443 0
    outer loop
      vertex 16.5152 4.67365 0
      vertex 16.5 4.5 1.5
      vertex 16.5 4.5 0
    endloop
  endfacet
  facet normal 0.965924 -0.258824 0
    outer loop
      vertex 16.5152 4.67365 1.5
      vertex 16.5603 4.84202 0
      vertex 16.5603 4.84202 1.5
    endloop
  endfacet
  facet normal 0.965924 -0.258824 0
    outer loop
      vertex 16.5603 4.84202 0
      vertex 16.5152 4.67365 1.5
      vertex 16.5152 4.67365 0
    endloop
  endfacet
  facet normal 0.906311 -0.42261 0
    outer loop
      vertex 16.5603 4.84202 1.5
      vertex 16.634 5 0
      vertex 16.634 5 1.5
    endloop
  endfacet
  facet normal 0.906311 -0.42261 0
    outer loop
      vertex 16.634 5 0
      vertex 16.5603 4.84202 1.5
      vertex 16.5603 4.84202 0
    endloop
  endfacet
  facet normal 0.819147 -0.573584 0
    outer loop
      vertex 16.634 5 1.5
      vertex 16.734 5.14279 0
      vertex 16.734 5.14279 1.5
    endloop
  endfacet
  facet normal 0.819147 -0.573584 0
    outer loop
      vertex 16.734 5.14279 0
      vertex 16.634 5 1.5
      vertex 16.634 5 0
    endloop
  endfacet
  facet normal 0.707107 -0.707107 0
    outer loop
      vertex 16.734 5.14279 1.5
      vertex 16.8572 5.26604 0
      vertex 16.8572 5.26604 1.5
    endloop
  endfacet
  facet normal 0.707107 -0.707107 0
    outer loop
      vertex 16.8572 5.26604 0
      vertex 16.734 5.14279 1.5
      vertex 16.734 5.14279 0
    endloop
  endfacet
  facet normal 0.573587 -0.819145 0
    outer loop
      vertex 16.8572 5.26604 0
      vertex 17 5.36603 1.5
      vertex 16.8572 5.26604 1.5
    endloop
  endfacet
  facet normal 0.573587 -0.819145 0
    outer loop
      vertex 17 5.36603 1.5
      vertex 16.8572 5.26604 0
      vertex 17 5.36603 0
    endloop
  endfacet
  facet normal 0.422606 -0.906313 0
    outer loop
      vertex 17 5.36603 0
      vertex 17.158 5.43969 1.5
      vertex 17 5.36603 1.5
    endloop
  endfacet
  facet normal 0.422606 -0.906313 0
    outer loop
      vertex 17.158 5.43969 1.5
      vertex 17 5.36603 0
      vertex 17.158 5.43969 0
    endloop
  endfacet
  facet normal 0.258824 -0.965924 0
    outer loop
      vertex 17.158 5.43969 0
      vertex 17.3264 5.48481 1.5
      vertex 17.158 5.43969 1.5
    endloop
  endfacet
  facet normal 0.258824 -0.965924 0
    outer loop
      vertex 17.3264 5.48481 1.5
      vertex 17.158 5.43969 0
      vertex 17.3264 5.48481 0
    endloop
  endfacet
  facet normal 0.0871561 -0.996195 0
    outer loop
      vertex 17.3264 5.48481 0
      vertex 17.5 5.5 1.5
      vertex 17.3264 5.48481 1.5
    endloop
  endfacet
  facet normal 0.0871561 -0.996195 0
    outer loop
      vertex 17.5 5.5 1.5
      vertex 17.3264 5.48481 0
      vertex 17.5 5.5 0
    endloop
  endfacet
  facet normal 0 0 1
    outer loop
      vertex 18.5 4.5 1.5
      vertex 19.65 4.5 1.5
      vertex 19.6173 4.87334 1.5
    endloop
  endfacet
  facet normal 0 0 1
    outer loop
      vertex 18.4848 4.67365 1.5
      vertex 19.6173 4.87334 1.5
      vertex 19.5203 5.23534 1.5
    endloop
  endfacet
  facet normal 0 0 1
    outer loop
      vertex 19.65 4.5 1.5
      vertex 18.5 4.5 1.5
      vertex 19.6173 4.12666 1.5
    endloop
  endfacet
  facet normal 0 0 1
    outer loop
      vertex 18.4397 4.84202 1.5
      vertex 19.5203 5.23534 1.5
      vertex 19.362 5.575 1.5
    endloop
  endfacet
  facet normal -0 0 1
    outer loop
      vertex 18.4848 4.32635 1.5
      vertex 19.6173 4.12666 1.5
      vertex 18.5 4.5 1.5
    endloop
  endfacet
  facet normal 0 0 1
    outer loop
      vertex 18.366 5 1.5
      vertex 19.362 5.575 1.5
      vertex 19.147 5.88199 1.5
    endloop
  endfacet
  facet normal 0 0 1
    outer loop
      vertex 19.6173 4.12666 1.5
      vertex 18.4848 4.32635 1.5
      vertex 19.5203 3.76466 1.5
    endloop
  endfacet
  facet normal 0 0 1
    outer loop
      vertex 18.266 5.14279 1.5
      vertex 19.147 5.88199 1.5
      vertex 18.882 6.147 1.5
    endloop
  endfacet
  facet normal -0 0 1
    outer loop
      vertex 18.4397 4.15798 1.5
      vertex 19.5203 3.76466 1.5
      vertex 18.4848 4.32635 1.5
    endloop
  endfacet
  facet normal 0 0 1
    outer loop
      vertex 18.1428 5.26604 1.5
      vertex 18.882 6.147 1.5
      vertex 18.575 6.36196 1.5
    endloop
  endfacet
  facet normal 0 0 1
    outer loop
      vertex 19.5203 3.76466 1.5
      vertex 18.4397 4.15798 1.5
      vertex 19.362 3.425 1.5
    endloop
  endfacet
  facet normal -0 0 1
    outer loop
      vertex 18.366 4 1.5
      vertex 19.362 3.425 1.5
      vertex 18.4397 4.15798 1.5
    endloop
  endfacet
  facet normal 0 0 1
    outer loop
      vertex 19.6173 4.87334 1.5
      vertex 18.4848 4.67365 1.5
      vertex 18.5 4.5 1.5
    endloop
  endfacet
  facet normal 0 0 1
    outer loop
      vertex 19.5203 5.23534 1.5
      vertex 18.4397 4.84202 1.5
      vertex 18.4848 4.67365 1.5
    endloop
  endfacet
  facet normal 0 0 1
    outer loop
      vertex 19.362 5.575 1.5
      vertex 18.366 5 1.5
      vertex 18.4397 4.84202 1.5
    endloop
  endfacet
  facet normal 0 0 1
    outer loop
      vertex 19.147 5.88199 1.5
      vertex 18.266 5.14279 1.5
      vertex 18.366 5 1.5
    endloop
  endfacet
  facet normal 0 0 1
    outer loop
      vertex 18 5.36603 1.5
      vertex 18.575 6.36196 1.5
      vertex 18.2353 6.52034 1.5
    endloop
  endfacet
  facet normal 0 0 1
    outer loop
      vertex 18.882 6.147 1.5
      vertex 18.1428 5.26604 1.5
      vertex 18.266 5.14279 1.5
    endloop
  endfacet
  facet normal 0 0 1
    outer loop
      vertex 18.575 6.36196 1.5
      vertex 18 5.36603 1.5
      vertex 18.1428 5.26604 1.5
    endloop
  endfacet
  facet normal 0 0 1
    outer loop
      vertex 17.842 5.43969 1.5
      vertex 18.2353 6.52034 1.5
      vertex 17.8733 6.61734 1.5
    endloop
  endfacet
  facet normal 0 0 1
    outer loop
      vertex 18.2353 6.52034 1.5
      vertex 17.842 5.43969 1.5
      vertex 18 5.36603 1.5
    endloop
  endfacet
  facet normal 0 0 1
    outer loop
      vertex 17.8733 6.61734 1.5
      vertex 17.6736 5.48481 1.5
      vertex 17.842 5.43969 1.5
    endloop
  endfacet
  facet normal 0 0 1
    outer loop
      vertex 17.5 6.65 1.5
      vertex 17.6736 5.48481 1.5
      vertex 17.8733 6.61734 1.5
    endloop
  endfacet
  facet normal 0 0 1
    outer loop
      vertex 17.5 6.65 1.5
      vertex 17.5 5.5 1.5
      vertex 17.6736 5.48481 1.5
    endloop
  endfacet
  facet normal 0 0 1
    outer loop
      vertex 17.5 6.65 1.5
      vertex 17.3264 5.48481 1.5
      vertex 17.5 5.5 1.5
    endloop
  endfacet
  facet normal -0 0 1
    outer loop
      vertex 17.1267 6.61734 1.5
      vertex 17.3264 5.48481 1.5
      vertex 17.5 6.65 1.5
    endloop
  endfacet
  facet normal 0 0 1
    outer loop
      vertex 17.3264 5.48481 1.5
      vertex 17.1267 6.61734 1.5
      vertex 17.158 5.43969 1.5
    endloop
  endfacet
  facet normal -0 0 1
    outer loop
      vertex 16.7647 6.52034 1.5
      vertex 17.158 5.43969 1.5
      vertex 17.1267 6.61734 1.5
    endloop
  endfacet
  facet normal 0 0 1
    outer loop
      vertex 17.158 5.43969 1.5
      vertex 16.7647 6.52034 1.5
      vertex 17 5.36603 1.5
    endloop
  endfacet
  facet normal -0 0 1
    outer loop
      vertex 16.425 6.36196 1.5
      vertex 17 5.36603 1.5
      vertex 16.7647 6.52034 1.5
    endloop
  endfacet
  facet normal 0 0 1
    outer loop
      vertex 17 5.36603 1.5
      vertex 16.425 6.36196 1.5
      vertex 16.8572 5.26604 1.5
    endloop
  endfacet
  facet normal -0 0 1
    outer loop
      vertex 16.118 6.147 1.5
      vertex 16.8572 5.26604 1.5
      vertex 16.425 6.36196 1.5
    endloop
  endfacet
  facet normal 0 0 1
    outer loop
      vertex 16.8572 5.26604 1.5
      vertex 16.118 6.147 1.5
      vertex 16.734 5.14279 1.5
    endloop
  endfacet
  facet normal -0 0 1
    outer loop
      vertex 15.853 5.88199 1.5
      vertex 16.734 5.14279 1.5
      vertex 16.118 6.147 1.5
    endloop
  endfacet
  facet normal -0 0 1
    outer loop
      vertex 15.638 5.575 1.5
      vertex 16.634 5 1.5
      vertex 15.853 5.88199 1.5
    endloop
  endfacet
  facet normal 0 0 1
    outer loop
      vertex 16.734 5.14279 1.5
      vertex 15.853 5.88199 1.5
      vertex 16.634 5 1.5
    endloop
  endfacet
  facet normal 0 0 1
    outer loop
      vertex 19.362 3.425 1.5
      vertex 18.366 4 1.5
      vertex 19.147 3.11801 1.5
    endloop
  endfacet
  facet normal -0 0 1
    outer loop
      vertex 18.266 3.85721 1.5
      vertex 19.147 3.11801 1.5
      vertex 18.366 4 1.5
    endloop
  endfacet
  facet normal 0 0 1
    outer loop
      vertex 19.147 3.11801 1.5
      vertex 18.266 3.85721 1.5
      vertex 18.882 2.853 1.5
    endloop
  endfacet
  facet normal -0 0 1
    outer loop
      vertex 18.1428 3.73396 1.5
      vertex 18.882 2.853 1.5
      vertex 18.266 3.85721 1.5
    endloop
  endfacet
  facet normal 0 0 1
    outer loop
      vertex 18.882 2.853 1.5
      vertex 18.1428 3.73396 1.5
      vertex 18.575 2.63804 1.5
    endloop
  endfacet
  facet normal -0 0 1
    outer loop
      vertex 18 3.63398 1.5
      vertex 18.575 2.63804 1.5
      vertex 18.1428 3.73396 1.5
    endloop
  endfacet
  facet normal 0 0 1
    outer loop
      vertex 18.575 2.63804 1.5
      vertex 18 3.63398 1.5
      vertex 18.2353 2.47966 1.5
    endloop
  endfacet
  facet normal -0 0 1
    outer loop
      vertex 17.842 3.56031 1.5
      vertex 18.2353 2.47966 1.5
      vertex 18 3.63398 1.5
    endloop
  endfacet
  facet normal 0 0 1
    outer loop
      vertex 18.2353 2.47966 1.5
      vertex 17.842 3.56031 1.5
      vertex 17.8733 2.38266 1.5
    endloop
  endfacet
  facet normal -0 0 1
    outer loop
      vertex 17.6736 3.51519 1.5
      vertex 17.8733 2.38266 1.5
      vertex 17.842 3.56031 1.5
    endloop
  endfacet
  facet normal -0 0 1
    outer loop
      vertex 17.5 3.5 1.5
      vertex 17.8733 2.38266 1.5
      vertex 17.6736 3.51519 1.5
    endloop
  endfacet
  facet normal 0 0 1
    outer loop
      vertex 17.5 3.5 1.5
      vertex 17.5 2.35 1.5
      vertex 17.8733 2.38266 1.5
    endloop
  endfacet
  facet normal 0 0 1
    outer loop
      vertex 17.3264 3.51519 1.5
      vertex 17.5 2.35 1.5
      vertex 17.5 3.5 1.5
    endloop
  endfacet
  facet normal 0 0 1
    outer loop
      vertex 17.1267 2.38266 1.5
      vertex 17.3264 3.51519 1.5
      vertex 17.158 3.56031 1.5
    endloop
  endfacet
  facet normal 0 0 1
    outer loop
      vertex 17.3264 3.51519 1.5
      vertex 17.1267 2.38266 1.5
      vertex 17.5 2.35 1.5
    endloop
  endfacet
  facet normal 0 0 1
    outer loop
      vertex 16.7647 2.47966 1.5
      vertex 17.158 3.56031 1.5
      vertex 17 3.63398 1.5
    endloop
  endfacet
  facet normal 0 0 1
    outer loop
      vertex 16.425 2.63804 1.5
      vertex 17 3.63398 1.5
      vertex 16.8572 3.73396 1.5
    endloop
  endfacet
  facet normal 0 0 1
    outer loop
      vertex 17.158 3.56031 1.5
      vertex 16.7647 2.47966 1.5
      vertex 17.1267 2.38266 1.5
    endloop
  endfacet
  facet normal 0 0 1
    outer loop
      vertex 16.118 2.853 1.5
      vertex 16.8572 3.73396 1.5
      vertex 16.734 3.85721 1.5
    endloop
  endfacet
  facet normal 0 0 1
    outer loop
      vertex 15.853 3.11801 1.5
      vertex 16.734 3.85721 1.5
      vertex 16.634 4 1.5
    endloop
  endfacet
  facet normal 0 0 1
    outer loop
      vertex 15.638 3.425 1.5
      vertex 16.634 4 1.5
      vertex 16.5603 4.15798 1.5
    endloop
  endfacet
  facet normal 0 0 1
    outer loop
      vertex 15.4797 3.76466 1.5
      vertex 16.5603 4.15798 1.5
      vertex 16.5152 4.32635 1.5
    endloop
  endfacet
  facet normal 0 0 1
    outer loop
      vertex 17 3.63398 1.5
      vertex 16.425 2.63804 1.5
      vertex 16.7647 2.47966 1.5
    endloop
  endfacet
  facet normal 0 0 1
    outer loop
      vertex 15.3827 4.12666 1.5
      vertex 16.5152 4.32635 1.5
      vertex 16.5 4.5 1.5
    endloop
  endfacet
  facet normal 0 0 1
    outer loop
      vertex 16.634 5 1.5
      vertex 15.638 5.575 1.5
      vertex 16.5603 4.84202 1.5
    endloop
  endfacet
  facet normal -0 0 1
    outer loop
      vertex 15.4797 5.23534 1.5
      vertex 16.5603 4.84202 1.5
      vertex 15.638 5.575 1.5
    endloop
  endfacet
  facet normal 0 0 1
    outer loop
      vertex 16.8572 3.73396 1.5
      vertex 16.118 2.853 1.5
      vertex 16.425 2.63804 1.5
    endloop
  endfacet
  facet normal 0 0 1
    outer loop
      vertex 16.5603 4.84202 1.5
      vertex 15.4797 5.23534 1.5
      vertex 16.5152 4.67365 1.5
    endloop
  endfacet
  facet normal 0 0 1
    outer loop
      vertex 16.734 3.85721 1.5
      vertex 15.853 3.11801 1.5
      vertex 16.118 2.853 1.5
    endloop
  endfacet
  facet normal -0 0 1
    outer loop
      vertex 15.3827 4.87334 1.5
      vertex 16.5152 4.67365 1.5
      vertex 15.4797 5.23534 1.5
    endloop
  endfacet
  facet normal 0 0 1
    outer loop
      vertex 16.634 4 1.5
      vertex 15.638 3.425 1.5
      vertex 15.853 3.11801 1.5
    endloop
  endfacet
  facet normal 0 0 1
    outer loop
      vertex 16.5152 4.67365 1.5
      vertex 15.3827 4.87334 1.5
      vertex 16.5 4.5 1.5
    endloop
  endfacet
  facet normal 0 0 1
    outer loop
      vertex 16.5603 4.15798 1.5
      vertex 15.4797 3.76466 1.5
      vertex 15.638 3.425 1.5
    endloop
  endfacet
  facet normal 0 0 1
    outer loop
      vertex 15.35 4.5 1.5
      vertex 16.5 4.5 1.5
      vertex 15.3827 4.87334 1.5
    endloop
  endfacet
  facet normal 0 0 1
    outer loop
      vertex 16.5152 4.32635 1.5
      vertex 15.3827 4.12666 1.5
      vertex 15.4797 3.76466 1.5
    endloop
  endfacet
  facet normal 0 0 1
    outer loop
      vertex 16.5 4.5 1.5
      vertex 15.35 4.5 1.5
      vertex 15.3827 4.12666 1.5
    endloop
  endfacet
  facet normal -0.0871556 0.996195 0
    outer loop
      vertex 17.5 6.65 0.5
      vertex 17.1267 6.61734 1.5
      vertex 17.5 6.65 1.5
    endloop
  endfacet
  facet normal -0.0871556 0.996195 0
    outer loop
      vertex 17.1267 6.61734 1.5
      vertex 17.5 6.65 0.5
      vertex 17.1267 6.61734 0.5
    endloop
  endfacet
  facet normal -0.258819 0.965926 0
    outer loop
      vertex 17.1267 6.61734 0.5
      vertex 16.7647 6.52034 1.5
      vertex 17.1267 6.61734 1.5
    endloop
  endfacet
  facet normal -0.258819 0.965926 0
    outer loop
      vertex 16.7647 6.52034 1.5
      vertex 17.1267 6.61734 0.5
      vertex 16.7647 6.52034 0.5
    endloop
  endfacet
  facet normal -0.422618 0.906308 0
    outer loop
      vertex 16.7647 6.52034 0.5
      vertex 16.425 6.36196 1.5
      vertex 16.7647 6.52034 1.5
    endloop
  endfacet
  facet normal -0.422618 0.906308 0
    outer loop
      vertex 16.425 6.36196 1.5
      vertex 16.7647 6.52034 0.5
      vertex 16.425 6.36196 0.5
    endloop
  endfacet
  facet normal -0.573576 0.819153 0
    outer loop
      vertex 16.425 6.36196 0.5
      vertex 16.118 6.147 1.5
      vertex 16.425 6.36196 1.5
    endloop
  endfacet
  facet normal -0.573576 0.819153 0
    outer loop
      vertex 16.118 6.147 1.5
      vertex 16.425 6.36196 0.5
      vertex 16.118 6.147 0.5
    endloop
  endfacet
  facet normal -0.707104 0.707109 0
    outer loop
      vertex 16.118 6.147 0.5
      vertex 15.853 5.88199 1.5
      vertex 16.118 6.147 1.5
    endloop
  endfacet
  facet normal -0.707104 0.707109 0
    outer loop
      vertex 15.853 5.88199 1.5
      vertex 16.118 6.147 0.5
      vertex 15.853 5.88199 0.5
    endloop
  endfacet
  facet normal -0.819153 0.573575 0
    outer loop
      vertex 15.638 5.575 0.5
      vertex 15.853 5.88199 1.5
      vertex 15.853 5.88199 0.5
    endloop
  endfacet
  facet normal -0.819153 0.573575 0
    outer loop
      vertex 15.853 5.88199 1.5
      vertex 15.638 5.575 0.5
      vertex 15.638 5.575 1.5
    endloop
  endfacet
  facet normal -0.906306 0.422622 0
    outer loop
      vertex 15.4797 5.23534 0.5
      vertex 15.638 5.575 1.5
      vertex 15.638 5.575 0.5
    endloop
  endfacet
  facet normal -0.906306 0.422622 0
    outer loop
      vertex 15.638 5.575 1.5
      vertex 15.4797 5.23534 0.5
      vertex 15.4797 5.23534 1.5
    endloop
  endfacet
  facet normal -0.965929 0.258807 0
    outer loop
      vertex 15.3827 4.87334 0.5
      vertex 15.4797 5.23534 1.5
      vertex 15.4797 5.23534 0.5
    endloop
  endfacet
  facet normal -0.965929 0.258807 0
    outer loop
      vertex 15.4797 5.23534 1.5
      vertex 15.3827 4.87334 0.5
      vertex 15.3827 4.87334 1.5
    endloop
  endfacet
  facet normal -0.996194 0.0871606 0
    outer loop
      vertex 15.35 4.5 0.5
      vertex 15.3827 4.87334 1.5
      vertex 15.3827 4.87334 0.5
    endloop
  endfacet
  facet normal -0.996194 0.0871606 0
    outer loop
      vertex 15.3827 4.87334 1.5
      vertex 15.35 4.5 0.5
      vertex 15.35 4.5 1.5
    endloop
  endfacet
  facet normal -0.996194 -0.0871606 0
    outer loop
      vertex 15.3827 4.12666 0.5
      vertex 15.35 4.5 1.5
      vertex 15.35 4.5 0.5
    endloop
  endfacet
  facet normal -0.996194 -0.0871606 0
    outer loop
      vertex 15.35 4.5 1.5
      vertex 15.3827 4.12666 0.5
      vertex 15.3827 4.12666 1.5
    endloop
  endfacet
  facet normal -0.965929 -0.258807 0
    outer loop
      vertex 15.4797 3.76466 0.5
      vertex 15.3827 4.12666 1.5
      vertex 15.3827 4.12666 0.5
    endloop
  endfacet
  facet normal -0.965929 -0.258807 0
    outer loop
      vertex 15.3827 4.12666 1.5
      vertex 15.4797 3.76466 0.5
      vertex 15.4797 3.76466 1.5
    endloop
  endfacet
  facet normal -0.906306 -0.422622 0
    outer loop
      vertex 15.638 3.425 0.5
      vertex 15.4797 3.76466 1.5
      vertex 15.4797 3.76466 0.5
    endloop
  endfacet
  facet normal -0.906306 -0.422622 0
    outer loop
      vertex 15.4797 3.76466 1.5
      vertex 15.638 3.425 0.5
      vertex 15.638 3.425 1.5
    endloop
  endfacet
  facet normal -0.819152 -0.573577 0
    outer loop
      vertex 15.853 3.11801 0.5
      vertex 15.638 3.425 1.5
      vertex 15.638 3.425 0.5
    endloop
  endfacet
  facet normal -0.819152 -0.573577 0
    outer loop
      vertex 15.638 3.425 1.5
      vertex 15.853 3.11801 0.5
      vertex 15.853 3.11801 1.5
    endloop
  endfacet
  facet normal -0.707107 -0.707107 0
    outer loop
      vertex 16.118 2.853 0.5
      vertex 15.853 3.11801 1.5
      vertex 15.853 3.11801 0.5
    endloop
  endfacet
  facet normal -0.707107 -0.707107 0
    outer loop
      vertex 15.853 3.11801 1.5
      vertex 16.118 2.853 0.5
      vertex 16.118 2.853 1.5
    endloop
  endfacet
  facet normal -0.573576 -0.819153 0
    outer loop
      vertex 16.118 2.853 0.5
      vertex 16.425 2.63804 1.5
      vertex 16.118 2.853 1.5
    endloop
  endfacet
  facet normal -0.573576 -0.819153 -0
    outer loop
      vertex 16.425 2.63804 1.5
      vertex 16.118 2.853 0.5
      vertex 16.425 2.63804 0.5
    endloop
  endfacet
  facet normal -0.422618 -0.906308 0
    outer loop
      vertex 16.425 2.63804 0.5
      vertex 16.7647 2.47966 1.5
      vertex 16.425 2.63804 1.5
    endloop
  endfacet
  facet normal -0.422618 -0.906308 -0
    outer loop
      vertex 16.7647 2.47966 1.5
      vertex 16.425 2.63804 0.5
      vertex 16.7647 2.47966 0.5
    endloop
  endfacet
  facet normal -0.258819 -0.965926 0
    outer loop
      vertex 16.7647 2.47966 0.5
      vertex 17.1267 2.38266 1.5
      vertex 16.7647 2.47966 1.5
    endloop
  endfacet
  facet normal -0.258819 -0.965926 -0
    outer loop
      vertex 17.1267 2.38266 1.5
      vertex 16.7647 2.47966 0.5
      vertex 17.1267 2.38266 0.5
    endloop
  endfacet
  facet normal -0.0871556 -0.996195 0
    outer loop
      vertex 17.1267 2.38266 0.5
      vertex 17.5 2.35 1.5
      vertex 17.1267 2.38266 1.5
    endloop
  endfacet
  facet normal -0.0871556 -0.996195 -0
    outer loop
      vertex 17.5 2.35 1.5
      vertex 17.1267 2.38266 0.5
      vertex 17.5 2.35 0.5
    endloop
  endfacet
  facet normal 0.0871547 -0.996195 0
    outer loop
      vertex 17.5 2.35 0.5
      vertex 17.8733 2.38266 1.5
      vertex 17.5 2.35 1.5
    endloop
  endfacet
  facet normal 0.0871547 -0.996195 0
    outer loop
      vertex 17.8733 2.38266 1.5
      vertex 17.5 2.35 0.5
      vertex 17.8733 2.38266 0.5
    endloop
  endfacet
  facet normal 0.258819 -0.965926 0
    outer loop
      vertex 17.8733 2.38266 0.5
      vertex 18.2353 2.47966 1.5
      vertex 17.8733 2.38266 1.5
    endloop
  endfacet
  facet normal 0.258819 -0.965926 0
    outer loop
      vertex 18.2353 2.47966 1.5
      vertex 17.8733 2.38266 0.5
      vertex 18.2353 2.47966 0.5
    endloop
  endfacet
  facet normal 0.422618 -0.906308 0
    outer loop
      vertex 18.2353 2.47966 0.5
      vertex 18.575 2.63804 1.5
      vertex 18.2353 2.47966 1.5
    endloop
  endfacet
  facet normal 0.422618 -0.906308 0
    outer loop
      vertex 18.575 2.63804 1.5
      vertex 18.2353 2.47966 0.5
      vertex 18.575 2.63804 0.5
    endloop
  endfacet
  facet normal 0.573576 -0.819153 0
    outer loop
      vertex 18.575 2.63804 0.5
      vertex 18.882 2.853 1.5
      vertex 18.575 2.63804 1.5
    endloop
  endfacet
  facet normal 0.573576 -0.819153 0
    outer loop
      vertex 18.882 2.853 1.5
      vertex 18.575 2.63804 0.5
      vertex 18.882 2.853 0.5
    endloop
  endfacet
  facet normal 0.707112 -0.707102 0
    outer loop
      vertex 18.882 2.853 1.5
      vertex 19.147 3.11801 0.5
      vertex 19.147 3.11801 1.5
    endloop
  endfacet
  facet normal 0.707112 -0.707102 0
    outer loop
      vertex 19.147 3.11801 0.5
      vertex 18.882 2.853 1.5
      vertex 18.882 2.853 0.5
    endloop
  endfacet
  facet normal 0.819147 -0.573584 0
    outer loop
      vertex 19.147 3.11801 1.5
      vertex 19.362 3.425 0.5
      vertex 19.362 3.425 1.5
    endloop
  endfacet
  facet normal 0.819147 -0.573584 0
    outer loop
      vertex 19.362 3.425 0.5
      vertex 19.147 3.11801 1.5
      vertex 19.147 3.11801 0.5
    endloop
  endfacet
  facet normal 0.906306 -0.422622 0
    outer loop
      vertex 19.362 3.425 1.5
      vertex 19.5203 3.76466 0.5
      vertex 19.5203 3.76466 1.5
    endloop
  endfacet
  facet normal 0.906306 -0.422622 0
    outer loop
      vertex 19.5203 3.76466 0.5
      vertex 19.362 3.425 1.5
      vertex 19.362 3.425 0.5
    endloop
  endfacet
  facet normal 0.965929 -0.258807 0
    outer loop
      vertex 19.5203 3.76466 1.5
      vertex 19.6173 4.12666 0.5
      vertex 19.6173 4.12666 1.5
    endloop
  endfacet
  facet normal 0.965929 -0.258807 0
    outer loop
      vertex 19.6173 4.12666 0.5
      vertex 19.5203 3.76466 1.5
      vertex 19.5203 3.76466 0.5
    endloop
  endfacet
  facet normal 0.996194 -0.0871606 0
    outer loop
      vertex 19.6173 4.12666 1.5
      vertex 19.65 4.5 0.5
      vertex 19.65 4.5 1.5
    endloop
  endfacet
  facet normal 0.996194 -0.0871606 0
    outer loop
      vertex 19.65 4.5 0.5
      vertex 19.6173 4.12666 1.5
      vertex 19.6173 4.12666 0.5
    endloop
  endfacet
  facet normal 0.996194 0.0871606 0
    outer loop
      vertex 19.65 4.5 1.5
      vertex 19.6173 4.87334 0.5
      vertex 19.6173 4.87334 1.5
    endloop
  endfacet
  facet normal 0.996194 0.0871606 0
    outer loop
      vertex 19.6173 4.87334 0.5
      vertex 19.65 4.5 1.5
      vertex 19.65 4.5 0.5
    endloop
  endfacet
  facet normal 0.965929 0.258807 0
    outer loop
      vertex 19.6173 4.87334 1.5
      vertex 19.5203 5.23534 0.5
      vertex 19.5203 5.23534 1.5
    endloop
  endfacet
  facet normal 0.965929 0.258807 0
    outer loop
      vertex 19.5203 5.23534 0.5
      vertex 19.6173 4.87334 1.5
      vertex 19.6173 4.87334 0.5
    endloop
  endfacet
  facet normal 0.906306 0.422622 0
    outer loop
      vertex 19.5203 5.23534 1.5
      vertex 19.362 5.575 0.5
      vertex 19.362 5.575 1.5
    endloop
  endfacet
  facet normal 0.906306 0.422622 0
    outer loop
      vertex 19.362 5.575 0.5
      vertex 19.5203 5.23534 1.5
      vertex 19.5203 5.23534 0.5
    endloop
  endfacet
  facet normal 0.819148 0.573582 0
    outer loop
      vertex 19.362 5.575 1.5
      vertex 19.147 5.88199 0.5
      vertex 19.147 5.88199 1.5
    endloop
  endfacet
  facet normal 0.819148 0.573582 0
    outer loop
      vertex 19.147 5.88199 0.5
      vertex 19.362 5.575 1.5
      vertex 19.362 5.575 0.5
    endloop
  endfacet
  facet normal 0.707109 0.707104 0
    outer loop
      vertex 19.147 5.88199 1.5
      vertex 18.882 6.147 0.5
      vertex 18.882 6.147 1.5
    endloop
  endfacet
  facet normal 0.707109 0.707104 0
    outer loop
      vertex 18.882 6.147 0.5
      vertex 19.147 5.88199 1.5
      vertex 19.147 5.88199 0.5
    endloop
  endfacet
  facet normal 0.573576 0.819153 -0
    outer loop
      vertex 18.882 6.147 0.5
      vertex 18.575 6.36196 1.5
      vertex 18.882 6.147 1.5
    endloop
  endfacet
  facet normal 0.573576 0.819153 0
    outer loop
      vertex 18.575 6.36196 1.5
      vertex 18.882 6.147 0.5
      vertex 18.575 6.36196 0.5
    endloop
  endfacet
  facet normal 0.422618 0.906308 -0
    outer loop
      vertex 18.575 6.36196 0.5
      vertex 18.2353 6.52034 1.5
      vertex 18.575 6.36196 1.5
    endloop
  endfacet
  facet normal 0.422618 0.906308 0
    outer loop
      vertex 18.2353 6.52034 1.5
      vertex 18.575 6.36196 0.5
      vertex 18.2353 6.52034 0.5
    endloop
  endfacet
  facet normal 0.258819 0.965926 -0
    outer loop
      vertex 18.2353 6.52034 0.5
      vertex 17.8733 6.61734 1.5
      vertex 18.2353 6.52034 1.5
    endloop
  endfacet
  facet normal 0.258819 0.965926 0
    outer loop
      vertex 17.8733 6.61734 1.5
      vertex 18.2353 6.52034 0.5
      vertex 17.8733 6.61734 0.5
    endloop
  endfacet
  facet normal 0.0871547 0.996195 -0
    outer loop
      vertex 17.8733 6.61734 0.5
      vertex 17.5 6.65 1.5
      vertex 17.8733 6.61734 1.5
    endloop
  endfacet
  facet normal 0.0871547 0.996195 0
    outer loop
      vertex 17.5 6.65 1.5
      vertex 17.8733 6.61734 0.5
      vertex 17.5 6.65 0.5
    endloop
  endfacet
  facet normal -0 0 1
    outer loop
      vertex 20.9483 5.0995 2.5
      vertex 21.9833 4.88769 2.5
      vertex 21.8502 5.65155 2.5
    endloop
  endfacet
  facet normal 0 0 1
    outer loop
      vertex 21.9833 4.88769 2.5
      vertex 21 4.5 2.5
      vertex 21.9833 4.11232 2.5
    endloop
  endfacet
  facet normal -0 0 1
    outer loop
      vertex 20.7946 5.68128 2.5
      vertex 21.8502 5.65155 2.5
      vertex 21.5879 6.38122 2.5
    endloop
  endfacet
  facet normal 0 0 1
    outer loop
      vertex 20.9483 3.9005 2.5
      vertex 21.9833 4.11232 2.5
      vertex 21 4.5 2.5
    endloop
  endfacet
  facet normal 0 0 1
    outer loop
      vertex 20.5436 6.22814 2.5
      vertex 21.5879 6.38122 2.5
      vertex 21.2043 7.05504 2.5
    endloop
  endfacet
  facet normal 0 0 1
    outer loop
      vertex 21.9833 4.11232 2.5
      vertex 20.9483 3.9005 2.5
      vertex 21.8502 3.34845 2.5
    endloop
  endfacet
  facet normal 0 0 1
    outer loop
      vertex 20.7946 3.31872 2.5
      vertex 21.8502 3.34845 2.5
      vertex 20.9483 3.9005 2.5
    endloop
  endfacet
  facet normal 0 0 1
    outer loop
      vertex 21.9833 4.88769 2.5
      vertex 20.9483 5.0995 2.5
      vertex 21 4.5 2.5
    endloop
  endfacet
  facet normal 0 0 1
    outer loop
      vertex 21.8502 5.65155 2.5
      vertex 20.7946 5.68128 2.5
      vertex 20.9483 5.0995 2.5
    endloop
  endfacet
  facet normal 0 0 1
    outer loop
      vertex 20.2026 6.72393 2.5
      vertex 21.2043 7.05504 2.5
      vertex 20.7107 7.65301 2.5
    endloop
  endfacet
  facet normal 0 0 1
    outer loop
      vertex 21.5879 6.38122 2.5
      vertex 20.5436 6.22814 2.5
      vertex 20.7946 5.68128 2.5
    endloop
  endfacet
  facet normal 0 0 1
    outer loop
      vertex 21.2043 7.05504 2.5
      vertex 20.2026 6.72393 2.5
      vertex 20.5436 6.22814 2.5
    endloop
  endfacet
  facet normal 0 0 1
    outer loop
      vertex 19.7818 7.15398 2.5
      vertex 20.7107 7.65301 2.5
      vertex 20.1218 8.15736 2.5
    endloop
  endfacet
  facet normal 0 0 1
    outer loop
      vertex 20.7107 7.65301 2.5
      vertex 19.7818 7.15398 2.5
      vertex 20.2026 6.72393 2.5
    endloop
  endfacet
  facet normal 0 0 1
    outer loop
      vertex 19.2934 7.50559 2.5
      vertex 20.1218 8.15736 2.5
      vertex 19.455 8.55313 2.5
    endloop
  endfacet
  facet normal 0 0 1
    outer loop
      vertex 20.1218 8.15736 2.5
      vertex 19.2934 7.50559 2.5
      vertex 19.7818 7.15398 2.5
    endloop
  endfacet
  facet normal 0 0 1
    outer loop
      vertex 19.455 8.55313 2.5
      vertex 18.7521 7.76836 2.5
      vertex 19.2934 7.50559 2.5
    endloop
  endfacet
  facet normal 0 0 1
    outer loop
      vertex 18.7302 8.82858 2.5
      vertex 18.7521 7.76836 2.5
      vertex 19.455 8.55313 2.5
    endloop
  endfacet
  facet normal 0 0 1
    outer loop
      vertex 18.7302 8.82858 2.5
      vertex 18.1738 7.93453 2.5
      vertex 18.7521 7.76836 2.5
    endloop
  endfacet
  facet normal 0 0 1
    outer loop
      vertex 17.9689 8.97551 2.5
      vertex 18.1738 7.93453 2.5
      vertex 18.7302 8.82858 2.5
    endloop
  endfacet
  facet normal 0 0 1
    outer loop
      vertex 17.9689 8.97551 2.5
      vertex 17.5756 7.99918 2.5
      vertex 18.1738 7.93453 2.5
    endloop
  endfacet
  facet normal 0 0 1
    outer loop
      vertex 17.1937 8.98956 2.5
      vertex 17.5756 7.99918 2.5
      vertex 17.9689 8.97551 2.5
    endloop
  endfacet
  facet normal 0 0 1
    outer loop
      vertex 17.1937 8.98956 2.5
      vertex 16.9751 7.96041 2.5
      vertex 17.5756 7.99918 2.5
    endloop
  endfacet
  facet normal -0 0 1
    outer loop
      vertex 16.4275 8.87033 2.5
      vertex 16.9751 7.96041 2.5
      vertex 17.1937 8.98956 2.5
    endloop
  endfacet
  facet normal 0 0 1
    outer loop
      vertex 16.4275 8.87033 2.5
      vertex 16.3901 7.81936 2.5
      vertex 16.9751 7.96041 2.5
    endloop
  endfacet
  facet normal -0 0 1
    outer loop
      vertex 15.6932 8.62134 2.5
      vertex 16.3901 7.81936 2.5
      vertex 16.4275 8.87033 2.5
    endloop
  endfacet
  facet normal 0 0 1
    outer loop
      vertex 16.3901 7.81936 2.5
      vertex 15.6932 8.62134 2.5
      vertex 15.838 7.5802 2.5
    endloop
  endfacet
  facet normal -0 0 1
    outer loop
      vertex 15.0125 8.25 2.5
      vertex 15.838 7.5802 2.5
      vertex 15.6932 8.62134 2.5
    endloop
  endfacet
  facet normal 0 0 1
    outer loop
      vertex 15.838 7.5802 2.5
      vertex 15.0125 8.25 2.5
      vertex 15.3349 7.25 2.5
    endloop
  endfacet
  facet normal 0 0 1
    outer loop
      vertex 15.0125 8.25 2.5
      vertex 3.05 6.55 2.5
      vertex 15.3349 7.25 2.5
    endloop
  endfacet
  facet normal -0 0 1
    outer loop
      vertex 0.609728 7.70228 2.5
      vertex 3.05 6.55 2.5
      vertex 15.0125 8.25 2.5
    endloop
  endfacet
  facet normal 0 0 1
    outer loop
      vertex 1.12363 5.20114 2.5
      vertex 0 7.71978 2.5
      vertex 1.03115 4.85598 2.5
    endloop
  endfacet
  facet normal 0 0 1
    outer loop
      vertex 1.27465 5.525 2.5
      vertex 0 7.71978 2.5
      vertex 1.12363 5.20114 2.5
    endloop
  endfacet
  facet normal 0 0 1
    outer loop
      vertex 0 7.71978 2.5
      vertex 1.27465 5.525 2.5
      vertex 0.609728 7.70228 2.5
    endloop
  endfacet
  facet normal 0 0 1
    outer loop
      vertex 1.47961 5.81771 2.5
      vertex 0.609728 7.70228 2.5
      vertex 1.27465 5.525 2.5
    endloop
  endfacet
  facet normal 0 0 1
    outer loop
      vertex 1.73229 6.07039 2.5
      vertex 0.609728 7.70228 2.5
      vertex 1.47961 5.81771 2.5
    endloop
  endfacet
  facet normal 0 0 1
    outer loop
      vertex 2.025 6.27535 2.5
      vertex 0.609728 7.70228 2.5
      vertex 1.73229 6.07039 2.5
    endloop
  endfacet
  facet normal 0 0 1
    outer loop
      vertex 2.34886 6.42637 2.5
      vertex 0.609728 7.70228 2.5
      vertex 2.025 6.27535 2.5
    endloop
  endfacet
  facet normal 0 0 1
    outer loop
      vertex 2.69402 6.51886 2.5
      vertex 0.609728 7.70228 2.5
      vertex 2.34886 6.42637 2.5
    endloop
  endfacet
  facet normal 0 0 1
    outer loop
      vertex 3.05 6.55 2.5
      vertex 0.609728 7.70228 2.5
      vertex 2.69402 6.51886 2.5
    endloop
  endfacet
  facet normal 0 0 1
    outer loop
      vertex 21.8502 3.34845 2.5
      vertex 20.7946 3.31872 2.5
      vertex 21.5879 2.61878 2.5
    endloop
  endfacet
  facet normal -0 0 1
    outer loop
      vertex 20.5436 2.77186 2.5
      vertex 21.5879 2.61878 2.5
      vertex 20.7946 3.31872 2.5
    endloop
  endfacet
  facet normal 0 0 1
    outer loop
      vertex 21.5879 2.61878 2.5
      vertex 20.5436 2.77186 2.5
      vertex 21.2043 1.94496 2.5
    endloop
  endfacet
  facet normal -0 0 1
    outer loop
      vertex 20.2026 2.27607 2.5
      vertex 21.2043 1.94496 2.5
      vertex 20.5436 2.77186 2.5
    endloop
  endfacet
  facet normal 0 0 1
    outer loop
      vertex 21.2043 1.94496 2.5
      vertex 20.2026 2.27607 2.5
      vertex 20.7107 1.34699 2.5
    endloop
  endfacet
  facet normal -0 0 1
    outer loop
      vertex 19.7818 1.84602 2.5
      vertex 20.7107 1.34699 2.5
      vertex 20.2026 2.27607 2.5
    endloop
  endfacet
  facet normal 0 0 1
    outer loop
      vertex 20.7107 1.34699 2.5
      vertex 19.7818 1.84602 2.5
      vertex 20.1218 0.842638 2.5
    endloop
  endfacet
  facet normal -0 0 1
    outer loop
      vertex 19.2934 1.49441 2.5
      vertex 20.1218 0.842638 2.5
      vertex 19.7818 1.84602 2.5
    endloop
  endfacet
  facet normal 0 0 1
    outer loop
      vertex 20.1218 0.842638 2.5
      vertex 19.2934 1.49441 2.5
      vertex 19.455 0.446865 2.5
    endloop
  endfacet
  facet normal -0 0 1
    outer loop
      vertex 18.7521 1.23164 2.5
      vertex 19.455 0.446865 2.5
      vertex 19.2934 1.49441 2.5
    endloop
  endfacet
  facet normal 0 0 1
    outer loop
      vertex 18.7521 1.23164 2.5
      vertex 18.7302 0.171425 2.5
      vertex 19.455 0.446865 2.5
    endloop
  endfacet
  facet normal -0 0 1
    outer loop
      vertex 18.1738 1.06547 2.5
      vertex 18.7302 0.171425 2.5
      vertex 18.7521 1.23164 2.5
    endloop
  endfacet
  facet normal 0 0 1
    outer loop
      vertex 18.1738 1.06547 2.5
      vertex 17.9689 0.0244961 2.5
      vertex 18.7302 0.171425 2.5
    endloop
  endfacet
  facet normal -0 0 1
    outer loop
      vertex 17.5756 1.00081 2.5
      vertex 17.9689 0.0244961 2.5
      vertex 18.1738 1.06547 2.5
    endloop
  endfacet
  facet normal 0 0 1
    outer loop
      vertex 17.5756 1.00081 2.5
      vertex 17.1937 0.0104389 2.5
      vertex 17.9689 0.0244961 2.5
    endloop
  endfacet
  facet normal 0 0 1
    outer loop
      vertex 16.9751 1.03959 2.5
      vertex 17.1937 0.0104389 2.5
      vertex 17.5756 1.00081 2.5
    endloop
  endfacet
  facet normal 0 0 1
    outer loop
      vertex 16.9751 1.03959 2.5
      vertex 16.4275 0.129675 2.5
      vertex 17.1937 0.0104389 2.5
    endloop
  endfacet
  facet normal 0 0 1
    outer loop
      vertex 16.3901 1.18064 2.5
      vertex 16.4275 0.129675 2.5
      vertex 16.9751 1.03959 2.5
    endloop
  endfacet
  facet normal 0 0 1
    outer loop
      vertex 15.6932 0.378658 2.5
      vertex 16.3901 1.18064 2.5
      vertex 15.838 1.4198 2.5
    endloop
  endfacet
  facet normal 0 0 1
    outer loop
      vertex 16.3901 1.18064 2.5
      vertex 15.6932 0.378658 2.5
      vertex 16.4275 0.129675 2.5
    endloop
  endfacet
  facet normal 0 0 1
    outer loop
      vertex 15.0125 0.75 2.5
      vertex 15.838 1.4198 2.5
      vertex 15.3349 1.75 2.5
    endloop
  endfacet
  facet normal 0 0 1
    outer loop
      vertex 15.838 1.4198 2.5
      vertex 15.0125 0.75 2.5
      vertex 15.6932 0.378658 2.5
    endloop
  endfacet
  facet normal 0 0 1
    outer loop
      vertex 3.05 2.45 2.5
      vertex 15.0125 0.75 2.5
      vertex 15.3349 1.75 2.5
    endloop
  endfacet
  facet normal 0 0 1
    outer loop
      vertex 0.609728 1.29772 2.5
      vertex 3.05 2.45 2.5
      vertex 2.69402 2.48114 2.5
    endloop
  endfacet
  facet normal 0 0 1
    outer loop
      vertex 1.03115 4.85598 2.5
      vertex 0 7.71978 2.5
      vertex 1 4.5 2.5
    endloop
  endfacet
  facet normal 0 0 1
    outer loop
      vertex 3.05 2.45 2.5
      vertex 0.609728 1.29772 2.5
      vertex 15.0125 0.75 2.5
    endloop
  endfacet
  facet normal 0 0 1
    outer loop
      vertex 2.34886 2.57363 2.5
      vertex 0.609728 1.29772 2.5
      vertex 2.69402 2.48114 2.5
    endloop
  endfacet
  facet normal 0 0 1
    outer loop
      vertex 2.025 2.72465 2.5
      vertex 0.609728 1.29772 2.5
      vertex 2.34886 2.57363 2.5
    endloop
  endfacet
  facet normal 0 0 1
    outer loop
      vertex 1.73229 2.92961 2.5
      vertex 0.609728 1.29772 2.5
      vertex 2.025 2.72465 2.5
    endloop
  endfacet
  facet normal 0 0 1
    outer loop
      vertex 1.47961 3.18229 2.5
      vertex 0.609728 1.29772 2.5
      vertex 1.73229 2.92961 2.5
    endloop
  endfacet
  facet normal 0 0 1
    outer loop
      vertex 1.27465 3.475 2.5
      vertex 0.609728 1.29772 2.5
      vertex 1.47961 3.18229 2.5
    endloop
  endfacet
  facet normal 0 0 1
    outer loop
      vertex 0 1.28022 2.5
      vertex 1.27465 3.475 2.5
      vertex 1.12363 3.79886 2.5
    endloop
  endfacet
  facet normal 0 0 1
    outer loop
      vertex 0 1.28022 2.5
      vertex 1.12363 3.79886 2.5
      vertex 1.03115 4.14402 2.5
    endloop
  endfacet
  facet normal 0 0 1
    outer loop
      vertex 0 1.28022 2.5
      vertex 1 4.5 2.5
      vertex 0 7.71978 2.5
    endloop
  endfacet
  facet normal 0 0 1
    outer loop
      vertex 1 4.5 2.5
      vertex 0 1.28022 2.5
      vertex 1.03115 4.14402 2.5
    endloop
  endfacet
  facet normal 0 0 1
    outer loop
      vertex 1.27465 3.475 2.5
      vertex 0 1.28022 2.5
      vertex 0.609728 1.29772 2.5
    endloop
  endfacet
  facet normal -1 0 0
    outer loop
      vertex 0 1.28022 0
      vertex 0 7.71978 2.5
      vertex 0 7.71978 0
    endloop
  endfacet
  facet normal -1 -0 0
    outer loop
      vertex 0 7.71978 2.5
      vertex 0 1.28022 0
      vertex 0 1.28022 2.5
    endloop
  endfacet
endsolid OpenSCAD_Model
