solid OpenSCAD_Model
  facet normal -1 0 0
    outer loop
      vertex 0 1 25
      vertex 0 2 25
      vertex 0 2 16
    endloop
  endfacet
  facet normal -1 0 0
    outer loop
      vertex 0 1 25
      vertex 0 2 16
      vertex 0 1 16
    endloop
  endfacet
  facet normal -1 0 0
    outer loop
      vertex 0 3 25
      vertex 0 4 25
      vertex 0 4 16
    endloop
  endfacet
  facet normal -1 0 0
    outer loop
      vertex 0 3 25
      vertex 0 4 16
      vertex 0 3 16
    endloop
  endfacet
  facet normal -1 0 0
    outer loop
      vertex 0 4 25
      vertex 0 3 25
      vertex 0 3.43237 30.5916
    endloop
  endfacet
  facet normal -1 0 0
    outer loop
      vertex 0 2 25
      vertex 0 3.43237 30.5916
      vertex 0 3 25
    endloop
  endfacet
  facet normal -1 -0 0
    outer loop
      vertex 0 3.43237 30.5916
      vertex 0 2 25
      vertex 0 2.36708 32.6824
    endloop
  endfacet
  facet normal -1 -0 0
    outer loop
      vertex 0 2.36708 32.6824
      vertex 0 2 25
      vertex 0 2 35
    endloop
  endfacet
  facet normal -1 0 0
    outer loop
      vertex 0 5 25
      vertex 0 6 25
      vertex 0 6 16
    endloop
  endfacet
  facet normal -1 0 0
    outer loop
      vertex 0 5 25
      vertex 0 6 16
      vertex 0 5 16
    endloop
  endfacet
  facet normal -1 0 0
    outer loop
      vertex 0 6 25
      vertex 0 5 25
      vertex 0 5.09161 28.9324
    endloop
  endfacet
  facet normal -1 0 0
    outer loop
      vertex 0 4 25
      vertex 0 5.09161 28.9324
      vertex 0 5 25
    endloop
  endfacet
  facet normal -1 -0 0
    outer loop
      vertex 0 5.09161 28.9324
      vertex 0 4 25
      vertex 0 3.43237 30.5916
    endloop
  endfacet
  facet normal -1 0 0
    outer loop
      vertex 0 7 25
      vertex 0 8 25
      vertex 0 8 16
    endloop
  endfacet
  facet normal -1 0 0
    outer loop
      vertex 0 7 25
      vertex 0 8 16
      vertex 0 7 16
    endloop
  endfacet
  facet normal -1 0 0
    outer loop
      vertex 0 8 25
      vertex 0 7 25
      vertex 0 7.18237 27.8671
    endloop
  endfacet
  facet normal -1 0 0
    outer loop
      vertex 0 6 25
      vertex 0 7.18237 27.8671
      vertex 0 7 25
    endloop
  endfacet
  facet normal -1 -0 0
    outer loop
      vertex 0 7.18237 27.8671
      vertex 0 6 25
      vertex 0 5.09161 28.9324
    endloop
  endfacet
  facet normal -1 0 0
    outer loop
      vertex 0 9 25
      vertex 0 10 25
      vertex 0 10 16
    endloop
  endfacet
  facet normal -1 0 0
    outer loop
      vertex 0 9 25
      vertex 0 10 16
      vertex 0 9 16
    endloop
  endfacet
  facet normal -1 0 0
    outer loop
      vertex 0 10 25
      vertex 0 9 25
      vertex 0 9.5 27.5
    endloop
  endfacet
  facet normal -1 0 0
    outer loop
      vertex 0 8 25
      vertex 0 9.5 27.5
      vertex 0 9 25
    endloop
  endfacet
  facet normal -1 -0 0
    outer loop
      vertex 0 9.5 27.5
      vertex 0 8 25
      vertex 0 7.18237 27.8671
    endloop
  endfacet
  facet normal -1 0 0
    outer loop
      vertex 0 11 12
      vertex 0 19 13
      vertex 0 19 0
    endloop
  endfacet
  facet normal -1 0 0
    outer loop
      vertex 0 11 25
      vertex 0 19 13
      vertex 0 11 12
    endloop
  endfacet
  facet normal -1 0 0
    outer loop
      vertex 0 19 29
      vertex 0 17 35
      vertex 0 19 48
    endloop
  endfacet
  facet normal -1 0 0
    outer loop
      vertex 0 19 29
      vertex 0 16.6329 32.6824
      vertex 0 17 35
    endloop
  endfacet
  facet normal -1 0 0
    outer loop
      vertex 0 19 29
      vertex 0 15.5676 30.5916
      vertex 0 16.6329 32.6824
    endloop
  endfacet
  facet normal -1 0 0
    outer loop
      vertex 0 19 13
      vertex 0 11 25
      vertex 0 19 29
    endloop
  endfacet
  facet normal -1 -0 0
    outer loop
      vertex 0 19 29
      vertex 0 13.9084 28.9324
      vertex 0 15.5676 30.5916
    endloop
  endfacet
  facet normal -1 0 0
    outer loop
      vertex 0 19 29
      vertex 0 11 25
      vertex 0 13.9084 28.9324
    endloop
  endfacet
  facet normal -1 0 0
    outer loop
      vertex 0 0 0
      vertex 0 11 12
      vertex 0 19 0
    endloop
  endfacet
  facet normal -1 -0 0
    outer loop
      vertex 0 11 12
      vertex 0 0 0
      vertex 0 0 12
    endloop
  endfacet
  facet normal -1 0 0
    outer loop
      vertex 0 16.6329 37.3176
      vertex 0 19 48
      vertex 0 17 35
    endloop
  endfacet
  facet normal -1 0 0
    outer loop
      vertex 0 15.5676 39.4084
      vertex 0 19 48
      vertex 0 16.6329 37.3176
    endloop
  endfacet
  facet normal -1 0 0
    outer loop
      vertex 0 13.9084 41.0676
      vertex 0 19 48
      vertex 0 15.5676 39.4084
    endloop
  endfacet
  facet normal -1 0 0
    outer loop
      vertex 0 11.8176 42.1329
      vertex 0 19 48
      vertex 0 13.9084 41.0676
    endloop
  endfacet
  facet normal -1 0 0
    outer loop
      vertex 0 10.45 48
      vertex 0 11.8176 42.1329
      vertex 0 10.45 42.3495
    endloop
  endfacet
  facet normal -1 0 0
    outer loop
      vertex 0 11.8176 42.1329
      vertex 0 10.45 48
      vertex 0 19 48
    endloop
  endfacet
  facet normal -1 0 0
    outer loop
      vertex 0 13.9084 28.9324
      vertex 0 11 25
      vertex 0 11.8176 27.8671
    endloop
  endfacet
  facet normal -1 0 0
    outer loop
      vertex 0 9.5 27.5
      vertex 0 11 25
      vertex 0 10 25
    endloop
  endfacet
  facet normal -1 0 0
    outer loop
      vertex 0 11 25
      vertex 0 9.5 27.5
      vertex 0 11.8176 27.8671
    endloop
  endfacet
  facet normal -1 0 0
    outer loop
      vertex 0 21 4
      vertex 0 20 4
      vertex 0 21 13
    endloop
  endfacet
  facet normal -1 0 0
    outer loop
      vertex 0 23 4
      vertex 0 22 4
      vertex 0 23 13
    endloop
  endfacet
  facet normal -1 0 0
    outer loop
      vertex 0 25 4
      vertex 0 24 4
      vertex 0 25 13
    endloop
  endfacet
  facet normal -1 0 0
    outer loop
      vertex 0 27 4
      vertex 0 26 4
      vertex 0 27 13
    endloop
  endfacet
  facet normal -1 0 0
    outer loop
      vertex 0 29 4
      vertex 0 28 4
      vertex 0 29 13
    endloop
  endfacet
  facet normal -1 0 0
    outer loop
      vertex 0 30 13
      vertex 0 60 0
      vertex 0 30 0
    endloop
  endfacet
  facet normal -1 0 0
    outer loop
      vertex 0 60 0
      vertex 0 30 13
      vertex 0 60 29
    endloop
  endfacet
  facet normal -1 0 0
    outer loop
      vertex 0 19 29
      vertex 0 30 13
      vertex 0 29 13
    endloop
  endfacet
  facet normal -1 0 0
    outer loop
      vertex 0 28 13
      vertex 0 29 13
      vertex 0 28 4
    endloop
  endfacet
  facet normal -1 0 0
    outer loop
      vertex 0 19 29
      vertex 0 29 13
      vertex 0 28 13
    endloop
  endfacet
  facet normal -1 0 0
    outer loop
      vertex 0 19 29
      vertex 0 28 13
      vertex 0 27 13
    endloop
  endfacet
  facet normal -1 0 0
    outer loop
      vertex 0 26 13
      vertex 0 27 13
      vertex 0 26 4
    endloop
  endfacet
  facet normal -1 0 0
    outer loop
      vertex 0 19 29
      vertex 0 27 13
      vertex 0 26 13
    endloop
  endfacet
  facet normal -1 0 0
    outer loop
      vertex 0 19 29
      vertex 0 26 13
      vertex 0 25 13
    endloop
  endfacet
  facet normal -1 0 0
    outer loop
      vertex 0 24 13
      vertex 0 25 13
      vertex 0 24 4
    endloop
  endfacet
  facet normal -1 0 0
    outer loop
      vertex 0 19 29
      vertex 0 25 13
      vertex 0 24 13
    endloop
  endfacet
  facet normal -1 0 0
    outer loop
      vertex 0 19 29
      vertex 0 24 13
      vertex 0 23 13
    endloop
  endfacet
  facet normal -1 0 0
    outer loop
      vertex 0 22 13
      vertex 0 23 13
      vertex 0 22 4
    endloop
  endfacet
  facet normal -1 0 0
    outer loop
      vertex 0 19 29
      vertex 0 23 13
      vertex 0 22 13
    endloop
  endfacet
  facet normal -1 0 0
    outer loop
      vertex 0 19 29
      vertex 0 22 13
      vertex 0 21 13
    endloop
  endfacet
  facet normal -1 0 0
    outer loop
      vertex 0 20 13
      vertex 0 21 13
      vertex 0 20 4
    endloop
  endfacet
  facet normal -1 0 0
    outer loop
      vertex 0 19 29
      vertex 0 21 13
      vertex 0 20 13
    endloop
  endfacet
  facet normal -1 0 0
    outer loop
      vertex 0 19 29
      vertex 0 20 13
      vertex 0 19 13
    endloop
  endfacet
  facet normal -1 0 0
    outer loop
      vertex 0 30 13
      vertex 0 19 29
      vertex 0 60 29
    endloop
  endfacet
  facet normal -1 0 0
    outer loop
      vertex 0 7.18237 42.1329
      vertex 0 8.55 48
      vertex 0 8.55 42.3495
    endloop
  endfacet
  facet normal -1 0 0
    outer loop
      vertex 0 0 48
      vertex 0 7.18237 42.1329
      vertex 0 5.09161 41.0676
    endloop
  endfacet
  facet normal -1 0 0
    outer loop
      vertex 0 0 48
      vertex 0 5.09161 41.0676
      vertex 0 3.43237 39.4084
    endloop
  endfacet
  facet normal -1 0 0
    outer loop
      vertex 0 2 25
      vertex 0 1 25
      vertex 0 2 35
    endloop
  endfacet
  facet normal -1 0 0
    outer loop
      vertex 0 0 25
      vertex 0 2 35
      vertex 0 1 25
    endloop
  endfacet
  facet normal -1 0 0
    outer loop
      vertex 0 0 48
      vertex 0 2 35
      vertex 0 0 25
    endloop
  endfacet
  facet normal -1 0 0
    outer loop
      vertex 0 7.18237 42.1329
      vertex 0 0 48
      vertex 0 8.55 48
    endloop
  endfacet
  facet normal -1 0 0
    outer loop
      vertex 0 2.36708 37.3176
      vertex 0 0 48
      vertex 0 3.43237 39.4084
    endloop
  endfacet
  facet normal -1 0 0
    outer loop
      vertex 0 2 35
      vertex 0 0 48
      vertex 0 2.36708 37.3176
    endloop
  endfacet
  facet normal -0 0 1
    outer loop
      vertex 0 8.55 48
      vertex 40 0 48
      vertex 40 8.55 48
    endloop
  endfacet
  facet normal 0 0 1
    outer loop
      vertex 40 0 48
      vertex 0 8.55 48
      vertex 0 0 48
    endloop
  endfacet
  facet normal -0 0 1
    outer loop
      vertex 0 19 48
      vertex 40 10.45 48
      vertex 40 19 48
    endloop
  endfacet
  facet normal 0 0 1
    outer loop
      vertex 40 10.45 48
      vertex 0 19 48
      vertex 0 10.45 48
    endloop
  endfacet
  facet normal 1 0 0
    outer loop
      vertex 40 8.55 48
      vertex 40 7.18237 42.1329
      vertex 40 8.55 42.3495
    endloop
  endfacet
  facet normal 1 -0 0
    outer loop
      vertex 40 0 48
      vertex 40 7.18237 42.1329
      vertex 40 8.55 48
    endloop
  endfacet
  facet normal 1 0 0
    outer loop
      vertex 40 7.18237 42.1329
      vertex 40 0 48
      vertex 40 5.09161 41.0676
    endloop
  endfacet
  facet normal 1 0 0
    outer loop
      vertex 40 3.43237 30.5916
      vertex 40 1 13
      vertex 40 2 13
    endloop
  endfacet
  facet normal 1 0 0
    outer loop
      vertex 40 2 13
      vertex 40 1 13
      vertex 40 2 4
    endloop
  endfacet
  facet normal 1 0 0
    outer loop
      vertex 40 2 35
      vertex 40 9.18455e-017 13
      vertex 40 1 13
    endloop
  endfacet
  facet normal 1 0 0
    outer loop
      vertex 40 0 0
      vertex 40 9.18455e-017 13
      vertex 40 0 48
    endloop
  endfacet
  facet normal 1 0 0
    outer loop
      vertex 40 2 35
      vertex 40 0 48
      vertex 40 9.18455e-017 13
    endloop
  endfacet
  facet normal 1 0 0
    outer loop
      vertex 40 2.36708 37.3176
      vertex 40 0 48
      vertex 40 2 35
    endloop
  endfacet
  facet normal 1 0 0
    outer loop
      vertex 40 3.43237 39.4084
      vertex 40 0 48
      vertex 40 2.36708 37.3176
    endloop
  endfacet
  facet normal 1 0 0
    outer loop
      vertex 40 5.09161 41.0676
      vertex 40 0 48
      vertex 40 3.43237 39.4084
    endloop
  endfacet
  facet normal 1 0 0
    outer loop
      vertex 40 1 13
      vertex 40 3.43237 30.5916
      vertex 40 2.36708 32.6824
    endloop
  endfacet
  facet normal 1 0 0
    outer loop
      vertex 40 1 13
      vertex 40 2.36708 32.6824
      vertex 40 2 35
    endloop
  endfacet
  facet normal 1 0 0
    outer loop
      vertex 40 3.43237 30.5916
      vertex 40 2 13
      vertex 40 3 13
    endloop
  endfacet
  facet normal 1 0 0
    outer loop
      vertex 40 7.18237 27.8671
      vertex 40 4 13
      vertex 40 5 13
    endloop
  endfacet
  facet normal 1 0 0
    outer loop
      vertex 40 3 13
      vertex 40 5.09161 28.9324
      vertex 40 3.43237 30.5916
    endloop
  endfacet
  facet normal 1 0 0
    outer loop
      vertex 40 7.18237 27.8671
      vertex 40 3 13
      vertex 40 4 13
    endloop
  endfacet
  facet normal 1 0 0
    outer loop
      vertex 40 4 13
      vertex 40 3 13
      vertex 40 4 4
    endloop
  endfacet
  facet normal 1 0 0
    outer loop
      vertex 40 4 4
      vertex 40 3 13
      vertex 40 3 4
    endloop
  endfacet
  facet normal 1 0 0
    outer loop
      vertex 40 7.18237 27.8671
      vertex 40 6 13
      vertex 40 7 13
    endloop
  endfacet
  facet normal 1 0 0
    outer loop
      vertex 40 3 13
      vertex 40 7.18237 27.8671
      vertex 40 5.09161 28.9324
    endloop
  endfacet
  facet normal 1 0 0
    outer loop
      vertex 40 7.18237 27.8671
      vertex 40 5 13
      vertex 40 6 13
    endloop
  endfacet
  facet normal 1 0 0
    outer loop
      vertex 40 6 13
      vertex 40 5 13
      vertex 40 6 4
    endloop
  endfacet
  facet normal 1 0 0
    outer loop
      vertex 40 6 4
      vertex 40 5 13
      vertex 40 5 4
    endloop
  endfacet
  facet normal 1 0 0
    outer loop
      vertex 40 9.5 27.5
      vertex 40 8 13
      vertex 40 9 13
    endloop
  endfacet
  facet normal 1 0 0
    outer loop
      vertex 40 7 13
      vertex 40 9.5 27.5
      vertex 40 7.18237 27.8671
    endloop
  endfacet
  facet normal 1 0 0
    outer loop
      vertex 40 9.5 27.5
      vertex 40 7 13
      vertex 40 8 13
    endloop
  endfacet
  facet normal 1 0 0
    outer loop
      vertex 40 8 13
      vertex 40 7 13
      vertex 40 8 4
    endloop
  endfacet
  facet normal 1 0 0
    outer loop
      vertex 40 8 4
      vertex 40 7 13
      vertex 40 7 4
    endloop
  endfacet
  facet normal 1 -0 0
    outer loop
      vertex 40 9.5 27.5
      vertex 40 11 13
      vertex 40 11.8176 27.8671
    endloop
  endfacet
  facet normal 1 0 0
    outer loop
      vertex 40 11 13
      vertex 40 9.5 27.5
      vertex 40 10 13
    endloop
  endfacet
  facet normal 1 0 0
    outer loop
      vertex 40 9 13
      vertex 40 10 13
      vertex 40 9.5 27.5
    endloop
  endfacet
  facet normal 1 0 0
    outer loop
      vertex 40 10 13
      vertex 40 9 13
      vertex 40 10 4
    endloop
  endfacet
  facet normal 1 0 0
    outer loop
      vertex 40 10 4
      vertex 40 9 13
      vertex 40 9 4
    endloop
  endfacet
  facet normal 1 -0 0
    outer loop
      vertex 40 17 35
      vertex 40 19 29
      vertex 40 19 48
    endloop
  endfacet
  facet normal 1 -0 0
    outer loop
      vertex 40 16.6329 32.6824
      vertex 40 19 29
      vertex 40 17 35
    endloop
  endfacet
  facet normal 1 -0 0
    outer loop
      vertex 40 15.5676 30.5916
      vertex 40 19 29
      vertex 40 16.6329 32.6824
    endloop
  endfacet
  facet normal 1 0 0
    outer loop
      vertex 40 19 48
      vertex 40 16.6329 37.3176
      vertex 40 17 35
    endloop
  endfacet
  facet normal 1 0 0
    outer loop
      vertex 40 19 48
      vertex 40 15.5676 39.4084
      vertex 40 16.6329 37.3176
    endloop
  endfacet
  facet normal 1 0 0
    outer loop
      vertex 40 19 48
      vertex 40 13.9084 41.0676
      vertex 40 15.5676 39.4084
    endloop
  endfacet
  facet normal 1 0 0
    outer loop
      vertex 40 19 48
      vertex 40 11.8176 42.1329
      vertex 40 13.9084 41.0676
    endloop
  endfacet
  facet normal 1 -0 0
    outer loop
      vertex 40 10.45 48
      vertex 40 11.8176 42.1329
      vertex 40 19 48
    endloop
  endfacet
  facet normal 1 0 0
    outer loop
      vertex 40 11.8176 42.1329
      vertex 40 10.45 48
      vertex 40 10.45 42.3495
    endloop
  endfacet
  facet normal 1 0 0
    outer loop
      vertex 40 30 12
      vertex 40 60 29
      vertex 40 30 25
    endloop
  endfacet
  facet normal 1 -0 0
    outer loop
      vertex 40 19 29
      vertex 40 30 25
      vertex 40 60 29
    endloop
  endfacet
  facet normal 1 0 0
    outer loop
      vertex 40 29 25
      vertex 40 28 25
      vertex 40 29 16
    endloop
  endfacet
  facet normal 1 0 0
    outer loop
      vertex 40 30 25
      vertex 40 19 29
      vertex 40 29 25
    endloop
  endfacet
  facet normal 1 0 0
    outer loop
      vertex 40 29 25
      vertex 40 19 29
      vertex 40 28 25
    endloop
  endfacet
  facet normal 1 0 0
    outer loop
      vertex 40 27 25
      vertex 40 26 25
      vertex 40 27 16
    endloop
  endfacet
  facet normal 1 0 0
    outer loop
      vertex 40 28 25
      vertex 40 19 29
      vertex 40 27 25
    endloop
  endfacet
  facet normal 1 0 0
    outer loop
      vertex 40 27 25
      vertex 40 19 29
      vertex 40 26 25
    endloop
  endfacet
  facet normal 1 0 0
    outer loop
      vertex 40 25 25
      vertex 40 24 25
      vertex 40 25 16
    endloop
  endfacet
  facet normal 1 0 0
    outer loop
      vertex 40 26 25
      vertex 40 19 29
      vertex 40 25 25
    endloop
  endfacet
  facet normal 1 0 0
    outer loop
      vertex 40 25 25
      vertex 40 19 29
      vertex 40 24 25
    endloop
  endfacet
  facet normal 1 0 0
    outer loop
      vertex 40 23 25
      vertex 40 22 25
      vertex 40 23 16
    endloop
  endfacet
  facet normal 1 0 0
    outer loop
      vertex 40 24 25
      vertex 40 19 29
      vertex 40 23 25
    endloop
  endfacet
  facet normal 1 0 0
    outer loop
      vertex 40 23 25
      vertex 40 19 29
      vertex 40 22 25
    endloop
  endfacet
  facet normal 1 0 0
    outer loop
      vertex 40 21 25
      vertex 40 20 25
      vertex 40 21 16
    endloop
  endfacet
  facet normal 1 0 0
    outer loop
      vertex 40 22 25
      vertex 40 19 29
      vertex 40 21 25
    endloop
  endfacet
  facet normal 1 0 0
    outer loop
      vertex 40 21 25
      vertex 40 19 29
      vertex 40 20 25
    endloop
  endfacet
  facet normal 1 0 0
    outer loop
      vertex 40 20 25
      vertex 40 19 29
      vertex 40 19 25
    endloop
  endfacet
  facet normal 1 0 0
    outer loop
      vertex 40 60 29
      vertex 40 30 12
      vertex 40 60 0
    endloop
  endfacet
  facet normal 1 0 0
    outer loop
      vertex 40 11 0
      vertex 40 30 12
      vertex 40 19 12
    endloop
  endfacet
  facet normal 1 0 0
    outer loop
      vertex 40 13.9084 28.9324
      vertex 40 19 29
      vertex 40 15.5676 30.5916
    endloop
  endfacet
  facet normal 1 0 0
    outer loop
      vertex 40 19 29
      vertex 40 13.9084 28.9324
      vertex 40 19 25
    endloop
  endfacet
  facet normal 1 -0 0
    outer loop
      vertex 40 11.8176 27.8671
      vertex 40 19 25
      vertex 40 13.9084 28.9324
    endloop
  endfacet
  facet normal 1 0 0
    outer loop
      vertex 40 11 13
      vertex 40 19 25
      vertex 40 11.8176 27.8671
    endloop
  endfacet
  facet normal 1 0 0
    outer loop
      vertex 40 19 25
      vertex 40 11 13
      vertex 40 19 12
    endloop
  endfacet
  facet normal 1 0 0
    outer loop
      vertex 40 11 0
      vertex 40 19 12
      vertex 40 11 13
    endloop
  endfacet
  facet normal 1 0 0
    outer loop
      vertex 40 30 12
      vertex 40 11 0
      vertex 40 60 0
    endloop
  endfacet
  facet normal 1 0 0
    outer loop
      vertex 40 29 16
      vertex 40 28 25
      vertex 40 28 16
    endloop
  endfacet
  facet normal 1 0 0
    outer loop
      vertex 40 27 16
      vertex 40 26 25
      vertex 40 26 16
    endloop
  endfacet
  facet normal 1 0 0
    outer loop
      vertex 40 25 16
      vertex 40 24 25
      vertex 40 24 16
    endloop
  endfacet
  facet normal 1 0 0
    outer loop
      vertex 40 23 16
      vertex 40 22 25
      vertex 40 22 16
    endloop
  endfacet
  facet normal 1 0 0
    outer loop
      vertex 40 21 16
      vertex 40 20 25
      vertex 40 20 16
    endloop
  endfacet
  facet normal 1 0 0
    outer loop
      vertex 40 9.18455e-017 1.92381e-015
      vertex 40 0 0
      vertex 40 11 0
    endloop
  endfacet
  facet normal 1 0 0
    outer loop
      vertex 40 9.18455e-017 13
      vertex 40 0 0
      vertex 40 9.18455e-017 1.92381e-015
    endloop
  endfacet
  facet normal 1 0 0
    outer loop
      vertex 40 2 4
      vertex 40 1 13
      vertex 40 1 4
    endloop
  endfacet
  facet normal 0 1 -0
    outer loop
      vertex 40 19 29
      vertex 0 19 48
      vertex 40 19 48
    endloop
  endfacet
  facet normal 0 1 0
    outer loop
      vertex 0 19 48
      vertex 40 19 29
      vertex 0 19 29
    endloop
  endfacet
  facet normal -0 0 1
    outer loop
      vertex 0 60 29
      vertex 40 19 29
      vertex 40 60 29
    endloop
  endfacet
  facet normal 0 0 1
    outer loop
      vertex 40 19 29
      vertex 0 60 29
      vertex 0 19 29
    endloop
  endfacet
  facet normal 0 -1 0
    outer loop
      vertex -5.38 0 19.6834
      vertex -1.38 0 25
      vertex -5.38 0 25
    endloop
  endfacet
  facet normal 0 -1 0
    outer loop
      vertex -5.38 0 19.6834
      vertex -1.38 0 16
      vertex -1.38 0 25
    endloop
  endfacet
  facet normal 0 -1 0
    outer loop
      vertex -1.38 0 16
      vertex 0 0 12
      vertex -0.75 0 16
    endloop
  endfacet
  facet normal 0 -1 0
    outer loop
      vertex 0 0 12
      vertex -1.38 0 16
      vertex -5.38 0 19.6834
    endloop
  endfacet
  facet normal 0 -1 0
    outer loop
      vertex -0.75 0 25
      vertex -0.75 0 16
      vertex 0 0 25
    endloop
  endfacet
  facet normal 0 -1 0
    outer loop
      vertex 0 0 25
      vertex 40 0 48
      vertex 0 0 48
    endloop
  endfacet
  facet normal 0 -1 0
    outer loop
      vertex 40 0 0
      vertex 0 0 25
      vertex -0.75 0 16
    endloop
  endfacet
  facet normal 0 -1 0
    outer loop
      vertex 40 0 0
      vertex -0.75 0 16
      vertex 0 0 12
    endloop
  endfacet
  facet normal 0 -1 0
    outer loop
      vertex 40 0 0
      vertex 0 0 12
      vertex 0 0 0
    endloop
  endfacet
  facet normal 0 -1 0
    outer loop
      vertex 0 0 25
      vertex 40 0 0
      vertex 40 0 48
    endloop
  endfacet
  facet normal 0 0 -1
    outer loop
      vertex 0 0 0
      vertex 40 11 0
      vertex 40 0 0
    endloop
  endfacet
  facet normal -0 0 -1
    outer loop
      vertex 40 11 0
      vertex 0 0 0
      vertex 0 19 0
    endloop
  endfacet
  facet normal 0 0 -1
    outer loop
      vertex 40 11 0
      vertex 0 19 0
      vertex 0 30 0
    endloop
  endfacet
  facet normal 0 0 -1
    outer loop
      vertex 40 11 0
      vertex 0 30 0
      vertex 40 60 0
    endloop
  endfacet
  facet normal -0 0 -1
    outer loop
      vertex 40 60 0
      vertex 0 30 0
      vertex 0 60 0
    endloop
  endfacet
  facet normal 0 1 -0
    outer loop
      vertex 40 60 0
      vertex 0 60 29
      vertex 40 60 29
    endloop
  endfacet
  facet normal 0 1 0
    outer loop
      vertex 0 60 29
      vertex 40 60 0
      vertex 0 60 0
    endloop
  endfacet
  facet normal 0 -0.45399 -0.891007
    outer loop
      vertex 0 11.8176 42.1329
      vertex 40 13.9084 41.0676
      vertex 40 11.8176 42.1329
    endloop
  endfacet
  facet normal -0 -0.45399 -0.891007
    outer loop
      vertex 40 13.9084 41.0676
      vertex 0 11.8176 42.1329
      vertex 0 13.9084 41.0676
    endloop
  endfacet
  facet normal 0 -0.45399 0.891007
    outer loop
      vertex 0 13.9084 28.9324
      vertex 40 11.8176 27.8671
      vertex 40 13.9084 28.9324
    endloop
  endfacet
  facet normal 0 -0.45399 0.891007
    outer loop
      vertex 40 11.8176 27.8671
      vertex 0 13.9084 28.9324
      vertex 0 11.8176 27.8671
    endloop
  endfacet
  facet normal 0 -0.987688 0.156435
    outer loop
      vertex 0 16.6329 32.6824
      vertex 40 17 35
      vertex 0 17 35
    endloop
  endfacet
  facet normal 0 -0.987688 0.156435
    outer loop
      vertex 40 17 35
      vertex 0 16.6329 32.6824
      vertex 40 16.6329 32.6824
    endloop
  endfacet
  facet normal 0 -0.891007 0.45399
    outer loop
      vertex 0 15.5676 30.5916
      vertex 40 16.6329 32.6824
      vertex 0 16.6329 32.6824
    endloop
  endfacet
  facet normal 0 -0.891007 0.45399
    outer loop
      vertex 40 16.6329 32.6824
      vertex 0 15.5676 30.5916
      vertex 40 15.5676 30.5916
    endloop
  endfacet
  facet normal 0 -0.987688 -0.156435
    outer loop
      vertex 0 17 35
      vertex 40 16.6329 37.3176
      vertex 0 16.6329 37.3176
    endloop
  endfacet
  facet normal 0 -0.987688 -0.156435
    outer loop
      vertex 40 16.6329 37.3176
      vertex 0 17 35
      vertex 40 17 35
    endloop
  endfacet
  facet normal 0 -0.707107 -0.707107
    outer loop
      vertex 0 13.9084 41.0676
      vertex 40 15.5676 39.4084
      vertex 40 13.9084 41.0676
    endloop
  endfacet
  facet normal -0 -0.707107 -0.707107
    outer loop
      vertex 40 15.5676 39.4084
      vertex 0 13.9084 41.0676
      vertex 0 15.5676 39.4084
    endloop
  endfacet
  facet normal 0 -0.891007 -0.45399
    outer loop
      vertex 0 16.6329 37.3176
      vertex 40 15.5676 39.4084
      vertex 0 15.5676 39.4084
    endloop
  endfacet
  facet normal 0 -0.891007 -0.45399
    outer loop
      vertex 40 15.5676 39.4084
      vertex 0 16.6329 37.3176
      vertex 40 16.6329 37.3176
    endloop
  endfacet
  facet normal -0 0.156435 0.987688
    outer loop
      vertex 0 9.5 27.5
      vertex 40 7.18237 27.8671
      vertex 40 9.5 27.5
    endloop
  endfacet
  facet normal 0 0.156435 0.987688
    outer loop
      vertex 40 7.18237 27.8671
      vertex 0 9.5 27.5
      vertex 0 7.18237 27.8671
    endloop
  endfacet
  facet normal 0 -0.707107 0.707107
    outer loop
      vertex 0 15.5676 30.5916
      vertex 40 13.9084 28.9324
      vertex 40 15.5676 30.5916
    endloop
  endfacet
  facet normal 0 -0.707107 0.707107
    outer loop
      vertex 40 13.9084 28.9324
      vertex 0 15.5676 30.5916
      vertex 0 13.9084 28.9324
    endloop
  endfacet
  facet normal 0 -0.156434 -0.987688
    outer loop
      vertex 0 10.45 42.3495
      vertex 40 11.8176 42.1329
      vertex 40 10.45 42.3495
    endloop
  endfacet
  facet normal -0 -0.156434 -0.987688
    outer loop
      vertex 40 11.8176 42.1329
      vertex 0 10.45 42.3495
      vertex 0 11.8176 42.1329
    endloop
  endfacet
  facet normal 0 -0.156435 0.987688
    outer loop
      vertex 0 11.8176 27.8671
      vertex 40 9.5 27.5
      vertex 40 11.8176 27.8671
    endloop
  endfacet
  facet normal 0 -0.156435 0.987688
    outer loop
      vertex 40 9.5 27.5
      vertex 0 11.8176 27.8671
      vertex 0 9.5 27.5
    endloop
  endfacet
  facet normal 0 0.156434 -0.987688
    outer loop
      vertex 0 7.18237 42.1329
      vertex 40 8.55 42.3495
      vertex 40 7.18237 42.1329
    endloop
  endfacet
  facet normal 0 0.156434 -0.987688
    outer loop
      vertex 40 8.55 42.3495
      vertex 0 7.18237 42.1329
      vertex 0 8.55 42.3495
    endloop
  endfacet
  facet normal 0 0.891007 0.45399
    outer loop
      vertex 40 3.43237 30.5916
      vertex 0 2.36708 32.6824
      vertex 40 2.36708 32.6824
    endloop
  endfacet
  facet normal 0 0.891007 0.45399
    outer loop
      vertex 0 2.36708 32.6824
      vertex 40 3.43237 30.5916
      vertex 0 3.43237 30.5916
    endloop
  endfacet
  facet normal -0 0.707107 0.707107
    outer loop
      vertex 0 5.09161 28.9324
      vertex 40 3.43237 30.5916
      vertex 40 5.09161 28.9324
    endloop
  endfacet
  facet normal 0 0.707107 0.707107
    outer loop
      vertex 40 3.43237 30.5916
      vertex 0 5.09161 28.9324
      vertex 0 3.43237 30.5916
    endloop
  endfacet
  facet normal -0 0.45399 0.891007
    outer loop
      vertex 0 7.18237 27.8671
      vertex 40 5.09161 28.9324
      vertex 40 7.18237 27.8671
    endloop
  endfacet
  facet normal 0 0.45399 0.891007
    outer loop
      vertex 40 5.09161 28.9324
      vertex 0 7.18237 27.8671
      vertex 0 5.09161 28.9324
    endloop
  endfacet
  facet normal 0 0.707107 -0.707107
    outer loop
      vertex 0 3.43237 39.4084
      vertex 40 5.09161 41.0676
      vertex 40 3.43237 39.4084
    endloop
  endfacet
  facet normal 0 0.707107 -0.707107
    outer loop
      vertex 40 5.09161 41.0676
      vertex 0 3.43237 39.4084
      vertex 0 5.09161 41.0676
    endloop
  endfacet
  facet normal 0 0.45399 -0.891007
    outer loop
      vertex 0 5.09161 41.0676
      vertex 40 7.18237 42.1329
      vertex 40 5.09161 41.0676
    endloop
  endfacet
  facet normal 0 0.45399 -0.891007
    outer loop
      vertex 40 7.18237 42.1329
      vertex 0 5.09161 41.0676
      vertex 0 7.18237 42.1329
    endloop
  endfacet
  facet normal 0 0.987688 0.156434
    outer loop
      vertex 40 2.36708 32.6824
      vertex 0 2 35
      vertex 40 2 35
    endloop
  endfacet
  facet normal 0 0.987688 0.156434
    outer loop
      vertex 0 2 35
      vertex 40 2.36708 32.6824
      vertex 0 2.36708 32.6824
    endloop
  endfacet
  facet normal 0 0.987688 -0.156434
    outer loop
      vertex 40 2 35
      vertex 0 2.36708 37.3176
      vertex 40 2.36708 37.3176
    endloop
  endfacet
  facet normal 0 0.987688 -0.156434
    outer loop
      vertex 0 2.36708 37.3176
      vertex 40 2 35
      vertex 0 2 35
    endloop
  endfacet
  facet normal 0 0.891007 -0.45399
    outer loop
      vertex 40 2.36708 37.3176
      vertex 0 3.43237 39.4084
      vertex 40 3.43237 39.4084
    endloop
  endfacet
  facet normal 0 0.891007 -0.45399
    outer loop
      vertex 0 3.43237 39.4084
      vertex 40 2.36708 37.3176
      vertex 0 2.36708 37.3176
    endloop
  endfacet
  facet normal 0 -1 0
    outer loop
      vertex 0 10.45 42.3495
      vertex 40 10.45 48
      vertex 0 10.45 48
    endloop
  endfacet
  facet normal 0 -1 -0
    outer loop
      vertex 40 10.45 48
      vertex 0 10.45 42.3495
      vertex 40 10.45 42.3495
    endloop
  endfacet
  facet normal 0 1 -0
    outer loop
      vertex 40 8.55 42.3495
      vertex 0 8.55 48
      vertex 40 8.55 48
    endloop
  endfacet
  facet normal 0 1 0
    outer loop
      vertex 0 8.55 48
      vertex 40 8.55 42.3495
      vertex 0 8.55 42.3495
    endloop
  endfacet
  facet normal -1 0 0
    outer loop
      vertex -5.38 19 7.68343
      vertex -5.38 30 13
      vertex -5.38 30 7.68343
    endloop
  endfacet
  facet normal -1 -0 0
    outer loop
      vertex -5.38 30 13
      vertex -5.38 19 7.68343
      vertex -5.38 19 13
    endloop
  endfacet
  facet normal -0 0 1
    outer loop
      vertex -1.38 30 4
      vertex -0.75 29 4
      vertex -0.75 30 4
    endloop
  endfacet
  facet normal 0 0 1
    outer loop
      vertex -0.75 29 4
      vertex -1.38 30 4
      vertex -0.75 28 4
    endloop
  endfacet
  facet normal 0 0 1
    outer loop
      vertex -0.75 28 4
      vertex -1.38 30 4
      vertex -0.75 27 4
    endloop
  endfacet
  facet normal 0 0 1
    outer loop
      vertex -0.75 27 4
      vertex -1.38 30 4
      vertex -0.75 26 4
    endloop
  endfacet
  facet normal 0 0 1
    outer loop
      vertex -0.75 26 4
      vertex -1.38 30 4
      vertex -0.75 25 4
    endloop
  endfacet
  facet normal 0 0 1
    outer loop
      vertex -0.75 25 4
      vertex -1.38 30 4
      vertex -0.75 24 4
    endloop
  endfacet
  facet normal 0 0 1
    outer loop
      vertex -1.38 19 4
      vertex -0.75 24 4
      vertex -1.38 30 4
    endloop
  endfacet
  facet normal 0 0 1
    outer loop
      vertex -0.75 24 4
      vertex -1.38 19 4
      vertex -0.75 23 4
    endloop
  endfacet
  facet normal 0 0 1
    outer loop
      vertex -0.75 23 4
      vertex -1.38 19 4
      vertex -0.75 22 4
    endloop
  endfacet
  facet normal 0 0 1
    outer loop
      vertex -0.75 22 4
      vertex -1.38 19 4
      vertex -0.75 21 4
    endloop
  endfacet
  facet normal 0 0 1
    outer loop
      vertex -0.75 21 4
      vertex -1.38 19 4
      vertex -0.75 20 4
    endloop
  endfacet
  facet normal 0 0 1
    outer loop
      vertex -0.75 20 4
      vertex -1.38 19 4
      vertex -0.75 19 4
    endloop
  endfacet
  facet normal -0 0 1
    outer loop
      vertex -0.75 29 4
      vertex 0 28 4
      vertex 0 29 4
    endloop
  endfacet
  facet normal 0 0 1
    outer loop
      vertex 0 28 4
      vertex -0.75 29 4
      vertex -0.75 28 4
    endloop
  endfacet
  facet normal -0 0 1
    outer loop
      vertex -0.75 27 4
      vertex 0 26 4
      vertex 0 27 4
    endloop
  endfacet
  facet normal 0 0 1
    outer loop
      vertex 0 26 4
      vertex -0.75 27 4
      vertex -0.75 26 4
    endloop
  endfacet
  facet normal -0 0 1
    outer loop
      vertex -0.75 25 4
      vertex 0 24 4
      vertex 0 25 4
    endloop
  endfacet
  facet normal 0 0 1
    outer loop
      vertex 0 24 4
      vertex -0.75 25 4
      vertex -0.75 24 4
    endloop
  endfacet
  facet normal -0 0 1
    outer loop
      vertex -0.75 23 4
      vertex 0 22 4
      vertex 0 23 4
    endloop
  endfacet
  facet normal 0 0 1
    outer loop
      vertex 0 22 4
      vertex -0.75 23 4
      vertex -0.75 22 4
    endloop
  endfacet
  facet normal -0 0 1
    outer loop
      vertex -0.75 21 4
      vertex 0 20 4
      vertex 0 21 4
    endloop
  endfacet
  facet normal 0 0 1
    outer loop
      vertex 0 20 4
      vertex -0.75 21 4
      vertex -0.75 20 4
    endloop
  endfacet
  facet normal 0 -1 0
    outer loop
      vertex -5.38 19 7.68343
      vertex -1.38 19 13
      vertex -5.38 19 13
    endloop
  endfacet
  facet normal 0 -1 0
    outer loop
      vertex -5.38 19 7.68343
      vertex -1.38 19 4
      vertex -1.38 19 13
    endloop
  endfacet
  facet normal 0 -1 0
    outer loop
      vertex -1.38 19 4
      vertex 0 19 0
      vertex -0.75 19 4
    endloop
  endfacet
  facet normal 0 -1 0
    outer loop
      vertex 0 19 0
      vertex -1.38 19 4
      vertex -5.38 19 7.68343
    endloop
  endfacet
  facet normal 0 -1 0
    outer loop
      vertex -0.75 19 4
      vertex 0 19 13
      vertex -0.75 19 13
    endloop
  endfacet
  facet normal 0 -1 -0
    outer loop
      vertex 0 19 13
      vertex -0.75 19 4
      vertex 0 19 0
    endloop
  endfacet
  facet normal 0 1 0
    outer loop
      vertex 0 30 13
      vertex -0.75 30 4
      vertex -0.75 30 13
    endloop
  endfacet
  facet normal 0 1 0
    outer loop
      vertex -0.75 30 4
      vertex 0 30 0
      vertex -1.38 30 4
    endloop
  endfacet
  facet normal 0 1 -0
    outer loop
      vertex 0 30 0
      vertex -0.75 30 4
      vertex 0 30 13
    endloop
  endfacet
  facet normal 0 1 0
    outer loop
      vertex -1.38 30 13
      vertex -5.38 30 7.68343
      vertex -5.38 30 13
    endloop
  endfacet
  facet normal 0 1 -0
    outer loop
      vertex -1.38 30 4
      vertex -5.38 30 7.68343
      vertex -1.38 30 13
    endloop
  endfacet
  facet normal 0 1 0
    outer loop
      vertex -5.38 30 7.68343
      vertex -1.38 30 4
      vertex 0 30 0
    endloop
  endfacet
  facet normal -0 0 1
    outer loop
      vertex -5.38 30 13
      vertex -1.38 19 13
      vertex -1.38 30 13
    endloop
  endfacet
  facet normal 0 0 1
    outer loop
      vertex -1.38 19 13
      vertex -5.38 30 13
      vertex -5.38 19 13
    endloop
  endfacet
  facet normal 1 -0 0
    outer loop
      vertex -1.38 19 13
      vertex -1.38 30 4
      vertex -1.38 30 13
    endloop
  endfacet
  facet normal 1 0 0
    outer loop
      vertex -1.38 30 4
      vertex -1.38 19 13
      vertex -1.38 19 4
    endloop
  endfacet
  facet normal -0.819152 0 -0.573576
    outer loop
      vertex 0 19 0
      vertex -5.38 30 7.68343
      vertex 0 30 0
    endloop
  endfacet
  facet normal -0.819152 -0 -0.573576
    outer loop
      vertex -5.38 30 7.68343
      vertex 0 19 0
      vertex -5.38 19 7.68343
    endloop
  endfacet
  facet normal -1 0 0
    outer loop
      vertex -0.75 19 4
      vertex -0.75 20 13
      vertex -0.75 20 4
    endloop
  endfacet
  facet normal -1 -0 0
    outer loop
      vertex -0.75 20 13
      vertex -0.75 19 4
      vertex -0.75 19 13
    endloop
  endfacet
  facet normal -0 0 1
    outer loop
      vertex -0.75 20 13
      vertex 0 19 13
      vertex 0 20 13
    endloop
  endfacet
  facet normal 0 0 1
    outer loop
      vertex 0 19 13
      vertex -0.75 20 13
      vertex -0.75 19 13
    endloop
  endfacet
  facet normal 0 1 -0
    outer loop
      vertex 0 20 4
      vertex -0.75 20 13
      vertex 0 20 13
    endloop
  endfacet
  facet normal 0 1 0
    outer loop
      vertex -0.75 20 13
      vertex 0 20 4
      vertex -0.75 20 4
    endloop
  endfacet
  facet normal -1 0 0
    outer loop
      vertex -0.75 21 4
      vertex -0.75 22 13
      vertex -0.75 22 4
    endloop
  endfacet
  facet normal -1 -0 0
    outer loop
      vertex -0.75 22 13
      vertex -0.75 21 4
      vertex -0.75 21 13
    endloop
  endfacet
  facet normal -0 0 1
    outer loop
      vertex -0.75 22 13
      vertex 0 21 13
      vertex 0 22 13
    endloop
  endfacet
  facet normal 0 0 1
    outer loop
      vertex 0 21 13
      vertex -0.75 22 13
      vertex -0.75 21 13
    endloop
  endfacet
  facet normal 0 -1 0
    outer loop
      vertex -0.75 21 4
      vertex 0 21 13
      vertex -0.75 21 13
    endloop
  endfacet
  facet normal 0 -1 -0
    outer loop
      vertex 0 21 13
      vertex -0.75 21 4
      vertex 0 21 4
    endloop
  endfacet
  facet normal 0 1 -0
    outer loop
      vertex 0 22 4
      vertex -0.75 22 13
      vertex 0 22 13
    endloop
  endfacet
  facet normal 0 1 0
    outer loop
      vertex -0.75 22 13
      vertex 0 22 4
      vertex -0.75 22 4
    endloop
  endfacet
  facet normal -1 0 0
    outer loop
      vertex -0.75 23 4
      vertex -0.75 24 13
      vertex -0.75 24 4
    endloop
  endfacet
  facet normal -1 -0 0
    outer loop
      vertex -0.75 24 13
      vertex -0.75 23 4
      vertex -0.75 23 13
    endloop
  endfacet
  facet normal -0 0 1
    outer loop
      vertex -0.75 24 13
      vertex 0 23 13
      vertex 0 24 13
    endloop
  endfacet
  facet normal 0 0 1
    outer loop
      vertex 0 23 13
      vertex -0.75 24 13
      vertex -0.75 23 13
    endloop
  endfacet
  facet normal 0 -1 0
    outer loop
      vertex -0.75 23 4
      vertex 0 23 13
      vertex -0.75 23 13
    endloop
  endfacet
  facet normal 0 -1 -0
    outer loop
      vertex 0 23 13
      vertex -0.75 23 4
      vertex 0 23 4
    endloop
  endfacet
  facet normal 0 1 -0
    outer loop
      vertex 0 24 4
      vertex -0.75 24 13
      vertex 0 24 13
    endloop
  endfacet
  facet normal 0 1 0
    outer loop
      vertex -0.75 24 13
      vertex 0 24 4
      vertex -0.75 24 4
    endloop
  endfacet
  facet normal -1 0 0
    outer loop
      vertex -0.75 25 4
      vertex -0.75 26 13
      vertex -0.75 26 4
    endloop
  endfacet
  facet normal -1 -0 0
    outer loop
      vertex -0.75 26 13
      vertex -0.75 25 4
      vertex -0.75 25 13
    endloop
  endfacet
  facet normal -0 0 1
    outer loop
      vertex -0.75 26 13
      vertex 0 25 13
      vertex 0 26 13
    endloop
  endfacet
  facet normal 0 0 1
    outer loop
      vertex 0 25 13
      vertex -0.75 26 13
      vertex -0.75 25 13
    endloop
  endfacet
  facet normal 0 1 -0
    outer loop
      vertex 0 26 4
      vertex -0.75 26 13
      vertex 0 26 13
    endloop
  endfacet
  facet normal 0 1 0
    outer loop
      vertex -0.75 26 13
      vertex 0 26 4
      vertex -0.75 26 4
    endloop
  endfacet
  facet normal 0 -1 0
    outer loop
      vertex -0.75 25 4
      vertex 0 25 13
      vertex -0.75 25 13
    endloop
  endfacet
  facet normal 0 -1 -0
    outer loop
      vertex 0 25 13
      vertex -0.75 25 4
      vertex 0 25 4
    endloop
  endfacet
  facet normal -1 0 0
    outer loop
      vertex -0.75 27 4
      vertex -0.75 28 13
      vertex -0.75 28 4
    endloop
  endfacet
  facet normal -1 -0 0
    outer loop
      vertex -0.75 28 13
      vertex -0.75 27 4
      vertex -0.75 27 13
    endloop
  endfacet
  facet normal -0 0 1
    outer loop
      vertex -0.75 28 13
      vertex 0 27 13
      vertex 0 28 13
    endloop
  endfacet
  facet normal 0 0 1
    outer loop
      vertex 0 27 13
      vertex -0.75 28 13
      vertex -0.75 27 13
    endloop
  endfacet
  facet normal 0 1 -0
    outer loop
      vertex 0 28 4
      vertex -0.75 28 13
      vertex 0 28 13
    endloop
  endfacet
  facet normal 0 1 0
    outer loop
      vertex -0.75 28 13
      vertex 0 28 4
      vertex -0.75 28 4
    endloop
  endfacet
  facet normal 0 -1 0
    outer loop
      vertex -0.75 27 4
      vertex 0 27 13
      vertex -0.75 27 13
    endloop
  endfacet
  facet normal 0 -1 -0
    outer loop
      vertex 0 27 13
      vertex -0.75 27 4
      vertex 0 27 4
    endloop
  endfacet
  facet normal -1 0 0
    outer loop
      vertex -0.75 29 4
      vertex -0.75 30 13
      vertex -0.75 30 4
    endloop
  endfacet
  facet normal -1 -0 0
    outer loop
      vertex -0.75 30 13
      vertex -0.75 29 4
      vertex -0.75 29 13
    endloop
  endfacet
  facet normal -0 0 1
    outer loop
      vertex -0.75 30 13
      vertex 0 29 13
      vertex 0 30 13
    endloop
  endfacet
  facet normal 0 0 1
    outer loop
      vertex 0 29 13
      vertex -0.75 30 13
      vertex -0.75 29 13
    endloop
  endfacet
  facet normal 0 -1 0
    outer loop
      vertex -0.75 29 4
      vertex 0 29 13
      vertex -0.75 29 13
    endloop
  endfacet
  facet normal 0 -1 -0
    outer loop
      vertex 0 29 13
      vertex -0.75 29 4
      vertex 0 29 4
    endloop
  endfacet
  facet normal 1 -0 0
    outer loop
      vertex 45.38 -5.66993e-016 13
      vertex 45.38 11 7.68343
      vertex 45.38 11 13
    endloop
  endfacet
  facet normal 1 0 0
    outer loop
      vertex 45.38 11 7.68343
      vertex 45.38 -5.66993e-016 13
      vertex 45.38 -5.66993e-016 7.68343
    endloop
  endfacet
  facet normal -0 0 1
    outer loop
      vertex 40 2 4
      vertex 40.75 1 4
      vertex 40.75 2 4
    endloop
  endfacet
  facet normal 0 0 1
    outer loop
      vertex 40.75 1 4
      vertex 40 2 4
      vertex 40 1 4
    endloop
  endfacet
  facet normal -0 0 1
    outer loop
      vertex 40 4 4
      vertex 40.75 3 4
      vertex 40.75 4 4
    endloop
  endfacet
  facet normal 0 0 1
    outer loop
      vertex 40.75 3 4
      vertex 40 4 4
      vertex 40 3 4
    endloop
  endfacet
  facet normal -0 0 1
    outer loop
      vertex 40 6 4
      vertex 40.75 5 4
      vertex 40.75 6 4
    endloop
  endfacet
  facet normal 0 0 1
    outer loop
      vertex 40.75 5 4
      vertex 40 6 4
      vertex 40 5 4
    endloop
  endfacet
  facet normal -0 0 1
    outer loop
      vertex 40 8 4
      vertex 40.75 7 4
      vertex 40.75 8 4
    endloop
  endfacet
  facet normal 0 0 1
    outer loop
      vertex 40.75 7 4
      vertex 40 8 4
      vertex 40 7 4
    endloop
  endfacet
  facet normal -0 0 1
    outer loop
      vertex 40 10 4
      vertex 40.75 9 4
      vertex 40.75 10 4
    endloop
  endfacet
  facet normal 0 0 1
    outer loop
      vertex 40.75 9 4
      vertex 40 10 4
      vertex 40 9 4
    endloop
  endfacet
  facet normal 0 0 1
    outer loop
      vertex 40.75 10 4
      vertex 41.38 11 4
      vertex 40.75 11 4
    endloop
  endfacet
  facet normal 0 0 1
    outer loop
      vertex 40.75 9 4
      vertex 41.38 11 4
      vertex 40.75 10 4
    endloop
  endfacet
  facet normal 0 0 1
    outer loop
      vertex 40.75 8 4
      vertex 41.38 11 4
      vertex 40.75 9 4
    endloop
  endfacet
  facet normal 0 0 1
    outer loop
      vertex 40.75 7 4
      vertex 41.38 11 4
      vertex 40.75 8 4
    endloop
  endfacet
  facet normal 0 0 1
    outer loop
      vertex 40.75 6 4
      vertex 41.38 11 4
      vertex 40.75 7 4
    endloop
  endfacet
  facet normal 0 0 1
    outer loop
      vertex 41.38 11 4
      vertex 40.75 6 4
      vertex 41.38 -7.71501e-017 4
    endloop
  endfacet
  facet normal -0 0 1
    outer loop
      vertex 40.75 5 4
      vertex 41.38 -7.71501e-017 4
      vertex 40.75 6 4
    endloop
  endfacet
  facet normal -0 0 1
    outer loop
      vertex 40.75 4 4
      vertex 41.38 -7.71501e-017 4
      vertex 40.75 5 4
    endloop
  endfacet
  facet normal -0 0 1
    outer loop
      vertex 40.75 3 4
      vertex 41.38 -7.71501e-017 4
      vertex 40.75 4 4
    endloop
  endfacet
  facet normal -0 0 1
    outer loop
      vertex 40.75 2 4
      vertex 41.38 -7.71501e-017 4
      vertex 40.75 3 4
    endloop
  endfacet
  facet normal -0 0 1
    outer loop
      vertex 40.75 1 4
      vertex 41.38 -7.71501e-017 4
      vertex 40.75 2 4
    endloop
  endfacet
  facet normal 0 0 1
    outer loop
      vertex 41.38 -7.71501e-017 4
      vertex 40.75 1 4
      vertex 40.75 0 4
    endloop
  endfacet
  facet normal 0 1 -0
    outer loop
      vertex 45.38 11 7.68343
      vertex 41.38 11 13
      vertex 45.38 11 13
    endloop
  endfacet
  facet normal 0 1 0
    outer loop
      vertex 45.38 11 7.68343
      vertex 41.38 11 4
      vertex 41.38 11 13
    endloop
  endfacet
  facet normal 0 1 0
    outer loop
      vertex 41.38 11 4
      vertex 40 11 0
      vertex 40.75 11 4
    endloop
  endfacet
  facet normal 0 1 0
    outer loop
      vertex 40 11 0
      vertex 41.38 11 4
      vertex 45.38 11 7.68343
    endloop
  endfacet
  facet normal 0 1 -0
    outer loop
      vertex 40.75 11 4
      vertex 40 11 13
      vertex 40.75 11 13
    endloop
  endfacet
  facet normal 0 1 0
    outer loop
      vertex 40 11 13
      vertex 40.75 11 4
      vertex 40 11 0
    endloop
  endfacet
  facet normal -1.22461e-016 -1 0
    outer loop
      vertex 40 9.18455e-017 13
      vertex 40.75 0 4
      vertex 40.75 0 13
    endloop
  endfacet
  facet normal -1.22461e-016 -1 6.93013e-023
    outer loop
      vertex 40.75 0 4
      vertex 40 9.18455e-017 1.92381e-015
      vertex 41.38 -7.71501e-017 4
    endloop
  endfacet
  facet normal -1.22461e-016 -1 0
    outer loop
      vertex 40 9.18455e-017 1.92381e-015
      vertex 40.75 0 4
      vertex 40 9.18455e-017 13
    endloop
  endfacet
  facet normal -1.22461e-016 -1 0
    outer loop
      vertex 41.38 -7.71501e-017 13
      vertex 45.38 -5.66993e-016 7.68343
      vertex 45.38 -5.66993e-016 13
    endloop
  endfacet
  facet normal -1.22461e-016 -1 0
    outer loop
      vertex 41.38 -7.71501e-017 4
      vertex 45.38 -5.66993e-016 7.68343
      vertex 41.38 -7.71501e-017 13
    endloop
  endfacet
  facet normal -1.22461e-016 -1 -8.61545e-023
    outer loop
      vertex 45.38 -5.66993e-016 7.68343
      vertex 41.38 -7.71501e-017 4
      vertex 40 9.18455e-017 1.92381e-015
    endloop
  endfacet
  facet normal -0 0 1
    outer loop
      vertex 41.38 11 13
      vertex 45.38 -5.66993e-016 13
      vertex 45.38 11 13
    endloop
  endfacet
  facet normal 0 0 1
    outer loop
      vertex 45.38 -5.66993e-016 13
      vertex 41.38 11 13
      vertex 41.38 -7.71501e-017 13
    endloop
  endfacet
  facet normal -1 0 0
    outer loop
      vertex 41.38 -7.71501e-017 4
      vertex 41.38 11 13
      vertex 41.38 11 4
    endloop
  endfacet
  facet normal -1 -0 0
    outer loop
      vertex 41.38 11 13
      vertex 41.38 -7.71501e-017 4
      vertex 41.38 -7.71501e-017 13
    endloop
  endfacet
  facet normal 0.819152 -6.88663e-017 -0.573576
    outer loop
      vertex 45.38 11 7.68343
      vertex 40 9.18455e-017 1.92381e-015
      vertex 40 11 0
    endloop
  endfacet
  facet normal 0.819152 0 -0.573576
    outer loop
      vertex 40 9.18455e-017 1.92381e-015
      vertex 45.38 11 7.68343
      vertex 45.38 -5.66993e-016 7.68343
    endloop
  endfacet
  facet normal 1 -0 0
    outer loop
      vertex 40.75 10 13
      vertex 40.75 11 4
      vertex 40.75 11 13
    endloop
  endfacet
  facet normal 1 0 0
    outer loop
      vertex 40.75 11 4
      vertex 40.75 10 13
      vertex 40.75 10 4
    endloop
  endfacet
  facet normal -0 0 1
    outer loop
      vertex 40 11 13
      vertex 40.75 10 13
      vertex 40.75 11 13
    endloop
  endfacet
  facet normal 0 0 1
    outer loop
      vertex 40.75 10 13
      vertex 40 11 13
      vertex 40 10 13
    endloop
  endfacet
  facet normal 0 -1 0
    outer loop
      vertex 40 10 4
      vertex 40.75 10 13
      vertex 40 10 13
    endloop
  endfacet
  facet normal 0 -1 -0
    outer loop
      vertex 40.75 10 13
      vertex 40 10 4
      vertex 40.75 10 4
    endloop
  endfacet
  facet normal 1 -0 0
    outer loop
      vertex 40.75 8 13
      vertex 40.75 9 4
      vertex 40.75 9 13
    endloop
  endfacet
  facet normal 1 0 0
    outer loop
      vertex 40.75 9 4
      vertex 40.75 8 13
      vertex 40.75 8 4
    endloop
  endfacet
  facet normal -0 0 1
    outer loop
      vertex 40 9 13
      vertex 40.75 8 13
      vertex 40.75 9 13
    endloop
  endfacet
  facet normal 0 0 1
    outer loop
      vertex 40.75 8 13
      vertex 40 9 13
      vertex 40 8 13
    endloop
  endfacet
  facet normal 0 1 -0
    outer loop
      vertex 40.75 9 4
      vertex 40 9 13
      vertex 40.75 9 13
    endloop
  endfacet
  facet normal 0 1 0
    outer loop
      vertex 40 9 13
      vertex 40.75 9 4
      vertex 40 9 4
    endloop
  endfacet
  facet normal 0 -1 0
    outer loop
      vertex 40 8 4
      vertex 40.75 8 13
      vertex 40 8 13
    endloop
  endfacet
  facet normal 0 -1 -0
    outer loop
      vertex 40.75 8 13
      vertex 40 8 4
      vertex 40.75 8 4
    endloop
  endfacet
  facet normal 1 -0 0
    outer loop
      vertex 40.75 6 13
      vertex 40.75 7 4
      vertex 40.75 7 13
    endloop
  endfacet
  facet normal 1 0 0
    outer loop
      vertex 40.75 7 4
      vertex 40.75 6 13
      vertex 40.75 6 4
    endloop
  endfacet
  facet normal -0 0 1
    outer loop
      vertex 40 7 13
      vertex 40.75 6 13
      vertex 40.75 7 13
    endloop
  endfacet
  facet normal 0 0 1
    outer loop
      vertex 40.75 6 13
      vertex 40 7 13
      vertex 40 6 13
    endloop
  endfacet
  facet normal 0 1 -0
    outer loop
      vertex 40.75 7 4
      vertex 40 7 13
      vertex 40.75 7 13
    endloop
  endfacet
  facet normal 0 1 0
    outer loop
      vertex 40 7 13
      vertex 40.75 7 4
      vertex 40 7 4
    endloop
  endfacet
  facet normal 0 -1 0
    outer loop
      vertex 40 6 4
      vertex 40.75 6 13
      vertex 40 6 13
    endloop
  endfacet
  facet normal 0 -1 -0
    outer loop
      vertex 40.75 6 13
      vertex 40 6 4
      vertex 40.75 6 4
    endloop
  endfacet
  facet normal 1 -0 0
    outer loop
      vertex 40.75 4 13
      vertex 40.75 5 4
      vertex 40.75 5 13
    endloop
  endfacet
  facet normal 1 0 0
    outer loop
      vertex 40.75 5 4
      vertex 40.75 4 13
      vertex 40.75 4 4
    endloop
  endfacet
  facet normal -0 0 1
    outer loop
      vertex 40 5 13
      vertex 40.75 4 13
      vertex 40.75 5 13
    endloop
  endfacet
  facet normal 0 0 1
    outer loop
      vertex 40.75 4 13
      vertex 40 5 13
      vertex 40 4 13
    endloop
  endfacet
  facet normal 0 -1 0
    outer loop
      vertex 40 4 4
      vertex 40.75 4 13
      vertex 40 4 13
    endloop
  endfacet
  facet normal 0 -1 -0
    outer loop
      vertex 40.75 4 13
      vertex 40 4 4
      vertex 40.75 4 4
    endloop
  endfacet
  facet normal 0 1 -0
    outer loop
      vertex 40.75 5 4
      vertex 40 5 13
      vertex 40.75 5 13
    endloop
  endfacet
  facet normal 0 1 0
    outer loop
      vertex 40 5 13
      vertex 40.75 5 4
      vertex 40 5 4
    endloop
  endfacet
  facet normal 1 -0 0
    outer loop
      vertex 40.75 2 13
      vertex 40.75 3 4
      vertex 40.75 3 13
    endloop
  endfacet
  facet normal 1 0 0
    outer loop
      vertex 40.75 3 4
      vertex 40.75 2 13
      vertex 40.75 2 4
    endloop
  endfacet
  facet normal -0 0 1
    outer loop
      vertex 40 3 13
      vertex 40.75 2 13
      vertex 40.75 3 13
    endloop
  endfacet
  facet normal 0 0 1
    outer loop
      vertex 40.75 2 13
      vertex 40 3 13
      vertex 40 2 13
    endloop
  endfacet
  facet normal 0 -1 0
    outer loop
      vertex 40 2 4
      vertex 40.75 2 13
      vertex 40 2 13
    endloop
  endfacet
  facet normal 0 -1 -0
    outer loop
      vertex 40.75 2 13
      vertex 40 2 4
      vertex 40.75 2 4
    endloop
  endfacet
  facet normal 0 1 -0
    outer loop
      vertex 40.75 3 4
      vertex 40 3 13
      vertex 40.75 3 13
    endloop
  endfacet
  facet normal 0 1 0
    outer loop
      vertex 40 3 13
      vertex 40.75 3 4
      vertex 40 3 4
    endloop
  endfacet
  facet normal 1 -0 0
    outer loop
      vertex 40.75 0 13
      vertex 40.75 1 4
      vertex 40.75 1 13
    endloop
  endfacet
  facet normal 1 0 0
    outer loop
      vertex 40.75 1 4
      vertex 40.75 0 13
      vertex 40.75 0 4
    endloop
  endfacet
  facet normal -0 0 1
    outer loop
      vertex 40 1 13
      vertex 40.75 0 13
      vertex 40.75 1 13
    endloop
  endfacet
  facet normal 0 0 1
    outer loop
      vertex 40.75 0 13
      vertex 40 1 13
      vertex 40 9.18455e-017 13
    endloop
  endfacet
  facet normal 0 1 -0
    outer loop
      vertex 40.75 1 4
      vertex 40 1 13
      vertex 40.75 1 13
    endloop
  endfacet
  facet normal 0 1 0
    outer loop
      vertex 40 1 13
      vertex 40.75 1 4
      vertex 40 1 4
    endloop
  endfacet
  facet normal -1 0 0
    outer loop
      vertex -5.38 0 19.6834
      vertex -5.38 11 25
      vertex -5.38 11 19.6834
    endloop
  endfacet
  facet normal -1 -0 0
    outer loop
      vertex -5.38 11 25
      vertex -5.38 0 19.6834
      vertex -5.38 0 25
    endloop
  endfacet
  facet normal -0 0 1
    outer loop
      vertex -1.38 11 16
      vertex -0.75 10 16
      vertex -0.75 11 16
    endloop
  endfacet
  facet normal 0 0 1
    outer loop
      vertex -0.75 10 16
      vertex -1.38 11 16
      vertex -0.75 9 16
    endloop
  endfacet
  facet normal 0 0 1
    outer loop
      vertex -0.75 9 16
      vertex -1.38 11 16
      vertex -0.75 8 16
    endloop
  endfacet
  facet normal 0 0 1
    outer loop
      vertex -0.75 8 16
      vertex -1.38 11 16
      vertex -0.75 7 16
    endloop
  endfacet
  facet normal 0 0 1
    outer loop
      vertex -0.75 7 16
      vertex -1.38 11 16
      vertex -0.75 6 16
    endloop
  endfacet
  facet normal 0 0 1
    outer loop
      vertex -0.75 6 16
      vertex -1.38 11 16
      vertex -0.75 5 16
    endloop
  endfacet
  facet normal 0 0 1
    outer loop
      vertex -1.38 0 16
      vertex -0.75 5 16
      vertex -1.38 11 16
    endloop
  endfacet
  facet normal 0 0 1
    outer loop
      vertex -0.75 5 16
      vertex -1.38 0 16
      vertex -0.75 4 16
    endloop
  endfacet
  facet normal 0 0 1
    outer loop
      vertex -0.75 4 16
      vertex -1.38 0 16
      vertex -0.75 3 16
    endloop
  endfacet
  facet normal 0 0 1
    outer loop
      vertex -0.75 3 16
      vertex -1.38 0 16
      vertex -0.75 2 16
    endloop
  endfacet
  facet normal 0 0 1
    outer loop
      vertex -0.75 2 16
      vertex -1.38 0 16
      vertex -0.75 1 16
    endloop
  endfacet
  facet normal 0 0 1
    outer loop
      vertex -0.75 1 16
      vertex -1.38 0 16
      vertex -0.75 0 16
    endloop
  endfacet
  facet normal -0 0 1
    outer loop
      vertex -0.75 10 16
      vertex 0 9 16
      vertex 0 10 16
    endloop
  endfacet
  facet normal 0 0 1
    outer loop
      vertex 0 9 16
      vertex -0.75 10 16
      vertex -0.75 9 16
    endloop
  endfacet
  facet normal -0 0 1
    outer loop
      vertex -0.75 8 16
      vertex 0 7 16
      vertex 0 8 16
    endloop
  endfacet
  facet normal 0 0 1
    outer loop
      vertex 0 7 16
      vertex -0.75 8 16
      vertex -0.75 7 16
    endloop
  endfacet
  facet normal -0 0 1
    outer loop
      vertex -0.75 6 16
      vertex 0 5 16
      vertex 0 6 16
    endloop
  endfacet
  facet normal 0 0 1
    outer loop
      vertex 0 5 16
      vertex -0.75 6 16
      vertex -0.75 5 16
    endloop
  endfacet
  facet normal -0 0 1
    outer loop
      vertex -0.75 4 16
      vertex 0 3 16
      vertex 0 4 16
    endloop
  endfacet
  facet normal 0 0 1
    outer loop
      vertex 0 3 16
      vertex -0.75 4 16
      vertex -0.75 3 16
    endloop
  endfacet
  facet normal -0 0 1
    outer loop
      vertex -0.75 2 16
      vertex 0 1 16
      vertex 0 2 16
    endloop
  endfacet
  facet normal 0 0 1
    outer loop
      vertex 0 1 16
      vertex -0.75 2 16
      vertex -0.75 1 16
    endloop
  endfacet
  facet normal 0 1 0
    outer loop
      vertex 0 11 25
      vertex -0.75 11 16
      vertex -0.75 11 25
    endloop
  endfacet
  facet normal 0 1 0
    outer loop
      vertex -0.75 11 16
      vertex 0 11 12
      vertex -1.38 11 16
    endloop
  endfacet
  facet normal 0 1 -0
    outer loop
      vertex 0 11 12
      vertex -0.75 11 16
      vertex 0 11 25
    endloop
  endfacet
  facet normal 0 1 0
    outer loop
      vertex -1.38 11 25
      vertex -5.38 11 19.6834
      vertex -5.38 11 25
    endloop
  endfacet
  facet normal 0 1 -0
    outer loop
      vertex -1.38 11 16
      vertex -5.38 11 19.6834
      vertex -1.38 11 25
    endloop
  endfacet
  facet normal 0 1 0
    outer loop
      vertex -5.38 11 19.6834
      vertex -1.38 11 16
      vertex 0 11 12
    endloop
  endfacet
  facet normal -0 0 1
    outer loop
      vertex -5.38 11 25
      vertex -1.38 0 25
      vertex -1.38 11 25
    endloop
  endfacet
  facet normal 0 0 1
    outer loop
      vertex -1.38 0 25
      vertex -5.38 11 25
      vertex -5.38 0 25
    endloop
  endfacet
  facet normal 1 -0 0
    outer loop
      vertex -1.38 0 25
      vertex -1.38 11 16
      vertex -1.38 11 25
    endloop
  endfacet
  facet normal 1 0 0
    outer loop
      vertex -1.38 11 16
      vertex -1.38 0 25
      vertex -1.38 0 16
    endloop
  endfacet
  facet normal -0.819152 0 -0.573576
    outer loop
      vertex 0 0 12
      vertex -5.38 11 19.6834
      vertex 0 11 12
    endloop
  endfacet
  facet normal -0.819152 -0 -0.573576
    outer loop
      vertex -5.38 11 19.6834
      vertex 0 0 12
      vertex -5.38 0 19.6834
    endloop
  endfacet
  facet normal -1 0 0
    outer loop
      vertex -0.75 0 16
      vertex -0.75 1 25
      vertex -0.75 1 16
    endloop
  endfacet
  facet normal -1 -0 0
    outer loop
      vertex -0.75 1 25
      vertex -0.75 0 16
      vertex -0.75 0 25
    endloop
  endfacet
  facet normal -0 0 1
    outer loop
      vertex -0.75 1 25
      vertex 0 0 25
      vertex 0 1 25
    endloop
  endfacet
  facet normal 0 0 1
    outer loop
      vertex 0 0 25
      vertex -0.75 1 25
      vertex -0.75 0 25
    endloop
  endfacet
  facet normal 0 1 -0
    outer loop
      vertex 0 1 16
      vertex -0.75 1 25
      vertex 0 1 25
    endloop
  endfacet
  facet normal 0 1 0
    outer loop
      vertex -0.75 1 25
      vertex 0 1 16
      vertex -0.75 1 16
    endloop
  endfacet
  facet normal -1 0 0
    outer loop
      vertex -0.75 2 16
      vertex -0.75 3 25
      vertex -0.75 3 16
    endloop
  endfacet
  facet normal -1 -0 0
    outer loop
      vertex -0.75 3 25
      vertex -0.75 2 16
      vertex -0.75 2 25
    endloop
  endfacet
  facet normal -0 0 1
    outer loop
      vertex -0.75 3 25
      vertex 0 2 25
      vertex 0 3 25
    endloop
  endfacet
  facet normal 0 0 1
    outer loop
      vertex 0 2 25
      vertex -0.75 3 25
      vertex -0.75 2 25
    endloop
  endfacet
  facet normal 0 -1 0
    outer loop
      vertex -0.75 2 16
      vertex 0 2 25
      vertex -0.75 2 25
    endloop
  endfacet
  facet normal 0 -1 -0
    outer loop
      vertex 0 2 25
      vertex -0.75 2 16
      vertex 0 2 16
    endloop
  endfacet
  facet normal 0 1 -0
    outer loop
      vertex 0 3 16
      vertex -0.75 3 25
      vertex 0 3 25
    endloop
  endfacet
  facet normal 0 1 0
    outer loop
      vertex -0.75 3 25
      vertex 0 3 16
      vertex -0.75 3 16
    endloop
  endfacet
  facet normal -1 0 0
    outer loop
      vertex -0.75 4 16
      vertex -0.75 5 25
      vertex -0.75 5 16
    endloop
  endfacet
  facet normal -1 -0 0
    outer loop
      vertex -0.75 5 25
      vertex -0.75 4 16
      vertex -0.75 4 25
    endloop
  endfacet
  facet normal -0 0 1
    outer loop
      vertex -0.75 5 25
      vertex 0 4 25
      vertex 0 5 25
    endloop
  endfacet
  facet normal 0 0 1
    outer loop
      vertex 0 4 25
      vertex -0.75 5 25
      vertex -0.75 4 25
    endloop
  endfacet
  facet normal 0 -1 0
    outer loop
      vertex -0.75 4 16
      vertex 0 4 25
      vertex -0.75 4 25
    endloop
  endfacet
  facet normal 0 -1 -0
    outer loop
      vertex 0 4 25
      vertex -0.75 4 16
      vertex 0 4 16
    endloop
  endfacet
  facet normal 0 1 -0
    outer loop
      vertex 0 5 16
      vertex -0.75 5 25
      vertex 0 5 25
    endloop
  endfacet
  facet normal 0 1 0
    outer loop
      vertex -0.75 5 25
      vertex 0 5 16
      vertex -0.75 5 16
    endloop
  endfacet
  facet normal -1 0 0
    outer loop
      vertex -0.75 6 16
      vertex -0.75 7 25
      vertex -0.75 7 16
    endloop
  endfacet
  facet normal -1 -0 0
    outer loop
      vertex -0.75 7 25
      vertex -0.75 6 16
      vertex -0.75 6 25
    endloop
  endfacet
  facet normal -0 0 1
    outer loop
      vertex -0.75 7 25
      vertex 0 6 25
      vertex 0 7 25
    endloop
  endfacet
  facet normal 0 0 1
    outer loop
      vertex 0 6 25
      vertex -0.75 7 25
      vertex -0.75 6 25
    endloop
  endfacet
  facet normal 0 1 -0
    outer loop
      vertex 0 7 16
      vertex -0.75 7 25
      vertex 0 7 25
    endloop
  endfacet
  facet normal 0 1 0
    outer loop
      vertex -0.75 7 25
      vertex 0 7 16
      vertex -0.75 7 16
    endloop
  endfacet
  facet normal 0 -1 0
    outer loop
      vertex -0.75 6 16
      vertex 0 6 25
      vertex -0.75 6 25
    endloop
  endfacet
  facet normal 0 -1 -0
    outer loop
      vertex 0 6 25
      vertex -0.75 6 16
      vertex 0 6 16
    endloop
  endfacet
  facet normal -1 0 0
    outer loop
      vertex -0.75 8 16
      vertex -0.75 9 25
      vertex -0.75 9 16
    endloop
  endfacet
  facet normal -1 -0 0
    outer loop
      vertex -0.75 9 25
      vertex -0.75 8 16
      vertex -0.75 8 25
    endloop
  endfacet
  facet normal -0 0 1
    outer loop
      vertex -0.75 9 25
      vertex 0 8 25
      vertex 0 9 25
    endloop
  endfacet
  facet normal 0 0 1
    outer loop
      vertex 0 8 25
      vertex -0.75 9 25
      vertex -0.75 8 25
    endloop
  endfacet
  facet normal 0 1 -0
    outer loop
      vertex 0 9 16
      vertex -0.75 9 25
      vertex 0 9 25
    endloop
  endfacet
  facet normal 0 1 0
    outer loop
      vertex -0.75 9 25
      vertex 0 9 16
      vertex -0.75 9 16
    endloop
  endfacet
  facet normal 0 -1 0
    outer loop
      vertex -0.75 8 16
      vertex 0 8 25
      vertex -0.75 8 25
    endloop
  endfacet
  facet normal 0 -1 -0
    outer loop
      vertex 0 8 25
      vertex -0.75 8 16
      vertex 0 8 16
    endloop
  endfacet
  facet normal -1 0 0
    outer loop
      vertex -0.75 10 16
      vertex -0.75 11 25
      vertex -0.75 11 16
    endloop
  endfacet
  facet normal -1 -0 0
    outer loop
      vertex -0.75 11 25
      vertex -0.75 10 16
      vertex -0.75 10 25
    endloop
  endfacet
  facet normal -0 0 1
    outer loop
      vertex -0.75 11 25
      vertex 0 10 25
      vertex 0 11 25
    endloop
  endfacet
  facet normal 0 0 1
    outer loop
      vertex 0 10 25
      vertex -0.75 11 25
      vertex -0.75 10 25
    endloop
  endfacet
  facet normal 0 -1 0
    outer loop
      vertex -0.75 10 16
      vertex 0 10 25
      vertex -0.75 10 25
    endloop
  endfacet
  facet normal 0 -1 -0
    outer loop
      vertex 0 10 25
      vertex -0.75 10 16
      vertex 0 10 16
    endloop
  endfacet
  facet normal 1 -0 0
    outer loop
      vertex 45.38 19 25
      vertex 45.38 30 19.6834
      vertex 45.38 30 25
    endloop
  endfacet
  facet normal 1 0 0
    outer loop
      vertex 45.38 30 19.6834
      vertex 45.38 19 25
      vertex 45.38 19 19.6834
    endloop
  endfacet
  facet normal -0 0 1
    outer loop
      vertex 40 21 16
      vertex 40.75 20 16
      vertex 40.75 21 16
    endloop
  endfacet
  facet normal 0 0 1
    outer loop
      vertex 40.75 20 16
      vertex 40 21 16
      vertex 40 20 16
    endloop
  endfacet
  facet normal -0 0 1
    outer loop
      vertex 40 23 16
      vertex 40.75 22 16
      vertex 40.75 23 16
    endloop
  endfacet
  facet normal 0 0 1
    outer loop
      vertex 40.75 22 16
      vertex 40 23 16
      vertex 40 22 16
    endloop
  endfacet
  facet normal -0 0 1
    outer loop
      vertex 40 25 16
      vertex 40.75 24 16
      vertex 40.75 25 16
    endloop
  endfacet
  facet normal 0 0 1
    outer loop
      vertex 40.75 24 16
      vertex 40 25 16
      vertex 40 24 16
    endloop
  endfacet
  facet normal -0 0 1
    outer loop
      vertex 40 27 16
      vertex 40.75 26 16
      vertex 40.75 27 16
    endloop
  endfacet
  facet normal 0 0 1
    outer loop
      vertex 40.75 26 16
      vertex 40 27 16
      vertex 40 26 16
    endloop
  endfacet
  facet normal -0 0 1
    outer loop
      vertex 40 29 16
      vertex 40.75 28 16
      vertex 40.75 29 16
    endloop
  endfacet
  facet normal 0 0 1
    outer loop
      vertex 40.75 28 16
      vertex 40 29 16
      vertex 40 28 16
    endloop
  endfacet
  facet normal 0 0 1
    outer loop
      vertex 40.75 29 16
      vertex 41.38 30 16
      vertex 40.75 30 16
    endloop
  endfacet
  facet normal 0 0 1
    outer loop
      vertex 40.75 28 16
      vertex 41.38 30 16
      vertex 40.75 29 16
    endloop
  endfacet
  facet normal 0 0 1
    outer loop
      vertex 40.75 27 16
      vertex 41.38 30 16
      vertex 40.75 28 16
    endloop
  endfacet
  facet normal 0 0 1
    outer loop
      vertex 40.75 26 16
      vertex 41.38 30 16
      vertex 40.75 27 16
    endloop
  endfacet
  facet normal 0 0 1
    outer loop
      vertex 40.75 25 16
      vertex 41.38 30 16
      vertex 40.75 26 16
    endloop
  endfacet
  facet normal 0 0 1
    outer loop
      vertex 41.38 30 16
      vertex 40.75 25 16
      vertex 41.38 19 16
    endloop
  endfacet
  facet normal -0 0 1
    outer loop
      vertex 40.75 24 16
      vertex 41.38 19 16
      vertex 40.75 25 16
    endloop
  endfacet
  facet normal -0 0 1
    outer loop
      vertex 40.75 23 16
      vertex 41.38 19 16
      vertex 40.75 24 16
    endloop
  endfacet
  facet normal -0 0 1
    outer loop
      vertex 40.75 22 16
      vertex 41.38 19 16
      vertex 40.75 23 16
    endloop
  endfacet
  facet normal -0 0 1
    outer loop
      vertex 40.75 21 16
      vertex 41.38 19 16
      vertex 40.75 22 16
    endloop
  endfacet
  facet normal -0 0 1
    outer loop
      vertex 40.75 20 16
      vertex 41.38 19 16
      vertex 40.75 21 16
    endloop
  endfacet
  facet normal 0 0 1
    outer loop
      vertex 41.38 19 16
      vertex 40.75 20 16
      vertex 40.75 19 16
    endloop
  endfacet
  facet normal 0 1 -0
    outer loop
      vertex 45.38 30 19.6834
      vertex 41.38 30 25
      vertex 45.38 30 25
    endloop
  endfacet
  facet normal 0 1 0
    outer loop
      vertex 45.38 30 19.6834
      vertex 41.38 30 16
      vertex 41.38 30 25
    endloop
  endfacet
  facet normal 0 1 0
    outer loop
      vertex 41.38 30 16
      vertex 40 30 12
      vertex 40.75 30 16
    endloop
  endfacet
  facet normal 0 1 0
    outer loop
      vertex 40 30 12
      vertex 41.38 30 16
      vertex 45.38 30 19.6834
    endloop
  endfacet
  facet normal 0 1 -0
    outer loop
      vertex 40.75 30 16
      vertex 40 30 25
      vertex 40.75 30 25
    endloop
  endfacet
  facet normal 0 1 0
    outer loop
      vertex 40 30 25
      vertex 40.75 30 16
      vertex 40 30 12
    endloop
  endfacet
  facet normal 0 -1 0
    outer loop
      vertex 40 19 25
      vertex 40.75 19 16
      vertex 40.75 19 25
    endloop
  endfacet
  facet normal 0 -1 -0
    outer loop
      vertex 40.75 19 16
      vertex 40 19 12
      vertex 41.38 19 16
    endloop
  endfacet
  facet normal 0 -1 0
    outer loop
      vertex 40 19 12
      vertex 40.75 19 16
      vertex 40 19 25
    endloop
  endfacet
  facet normal 0 -1 0
    outer loop
      vertex 41.38 19 25
      vertex 45.38 19 19.6834
      vertex 45.38 19 25
    endloop
  endfacet
  facet normal 0 -1 0
    outer loop
      vertex 41.38 19 16
      vertex 45.38 19 19.6834
      vertex 41.38 19 25
    endloop
  endfacet
  facet normal 0 -1 0
    outer loop
      vertex 45.38 19 19.6834
      vertex 41.38 19 16
      vertex 40 19 12
    endloop
  endfacet
  facet normal -0 0 1
    outer loop
      vertex 41.38 30 25
      vertex 45.38 19 25
      vertex 45.38 30 25
    endloop
  endfacet
  facet normal 0 0 1
    outer loop
      vertex 45.38 19 25
      vertex 41.38 30 25
      vertex 41.38 19 25
    endloop
  endfacet
  facet normal -1 0 0
    outer loop
      vertex 41.38 19 16
      vertex 41.38 30 25
      vertex 41.38 30 16
    endloop
  endfacet
  facet normal -1 -0 0
    outer loop
      vertex 41.38 30 25
      vertex 41.38 19 16
      vertex 41.38 19 25
    endloop
  endfacet
  facet normal 0.819152 0 -0.573576
    outer loop
      vertex 45.38 19 19.6834
      vertex 40 30 12
      vertex 45.38 30 19.6834
    endloop
  endfacet
  facet normal 0.819152 0 -0.573576
    outer loop
      vertex 40 30 12
      vertex 45.38 19 19.6834
      vertex 40 19 12
    endloop
  endfacet
  facet normal 1 -0 0
    outer loop
      vertex 40.75 29 25
      vertex 40.75 30 16
      vertex 40.75 30 25
    endloop
  endfacet
  facet normal 1 0 0
    outer loop
      vertex 40.75 30 16
      vertex 40.75 29 25
      vertex 40.75 29 16
    endloop
  endfacet
  facet normal -0 0 1
    outer loop
      vertex 40 30 25
      vertex 40.75 29 25
      vertex 40.75 30 25
    endloop
  endfacet
  facet normal 0 0 1
    outer loop
      vertex 40.75 29 25
      vertex 40 30 25
      vertex 40 29 25
    endloop
  endfacet
  facet normal 0 -1 0
    outer loop
      vertex 40 29 16
      vertex 40.75 29 25
      vertex 40 29 25
    endloop
  endfacet
  facet normal 0 -1 -0
    outer loop
      vertex 40.75 29 25
      vertex 40 29 16
      vertex 40.75 29 16
    endloop
  endfacet
  facet normal 1 -0 0
    outer loop
      vertex 40.75 27 25
      vertex 40.75 28 16
      vertex 40.75 28 25
    endloop
  endfacet
  facet normal 1 0 0
    outer loop
      vertex 40.75 28 16
      vertex 40.75 27 25
      vertex 40.75 27 16
    endloop
  endfacet
  facet normal -0 0 1
    outer loop
      vertex 40 28 25
      vertex 40.75 27 25
      vertex 40.75 28 25
    endloop
  endfacet
  facet normal 0 0 1
    outer loop
      vertex 40.75 27 25
      vertex 40 28 25
      vertex 40 27 25
    endloop
  endfacet
  facet normal 0 1 -0
    outer loop
      vertex 40.75 28 16
      vertex 40 28 25
      vertex 40.75 28 25
    endloop
  endfacet
  facet normal 0 1 0
    outer loop
      vertex 40 28 25
      vertex 40.75 28 16
      vertex 40 28 16
    endloop
  endfacet
  facet normal 0 -1 0
    outer loop
      vertex 40 27 16
      vertex 40.75 27 25
      vertex 40 27 25
    endloop
  endfacet
  facet normal 0 -1 -0
    outer loop
      vertex 40.75 27 25
      vertex 40 27 16
      vertex 40.75 27 16
    endloop
  endfacet
  facet normal 1 -0 0
    outer loop
      vertex 40.75 25 25
      vertex 40.75 26 16
      vertex 40.75 26 25
    endloop
  endfacet
  facet normal 1 0 0
    outer loop
      vertex 40.75 26 16
      vertex 40.75 25 25
      vertex 40.75 25 16
    endloop
  endfacet
  facet normal -0 0 1
    outer loop
      vertex 40 26 25
      vertex 40.75 25 25
      vertex 40.75 26 25
    endloop
  endfacet
  facet normal 0 0 1
    outer loop
      vertex 40.75 25 25
      vertex 40 26 25
      vertex 40 25 25
    endloop
  endfacet
  facet normal 0 1 -0
    outer loop
      vertex 40.75 26 16
      vertex 40 26 25
      vertex 40.75 26 25
    endloop
  endfacet
  facet normal 0 1 0
    outer loop
      vertex 40 26 25
      vertex 40.75 26 16
      vertex 40 26 16
    endloop
  endfacet
  facet normal 0 -1 0
    outer loop
      vertex 40 25 16
      vertex 40.75 25 25
      vertex 40 25 25
    endloop
  endfacet
  facet normal 0 -1 -0
    outer loop
      vertex 40.75 25 25
      vertex 40 25 16
      vertex 40.75 25 16
    endloop
  endfacet
  facet normal 1 -0 0
    outer loop
      vertex 40.75 23 25
      vertex 40.75 24 16
      vertex 40.75 24 25
    endloop
  endfacet
  facet normal 1 0 0
    outer loop
      vertex 40.75 24 16
      vertex 40.75 23 25
      vertex 40.75 23 16
    endloop
  endfacet
  facet normal -0 0 1
    outer loop
      vertex 40 24 25
      vertex 40.75 23 25
      vertex 40.75 24 25
    endloop
  endfacet
  facet normal 0 0 1
    outer loop
      vertex 40.75 23 25
      vertex 40 24 25
      vertex 40 23 25
    endloop
  endfacet
  facet normal 0 -1 0
    outer loop
      vertex 40 23 16
      vertex 40.75 23 25
      vertex 40 23 25
    endloop
  endfacet
  facet normal 0 -1 -0
    outer loop
      vertex 40.75 23 25
      vertex 40 23 16
      vertex 40.75 23 16
    endloop
  endfacet
  facet normal 0 1 -0
    outer loop
      vertex 40.75 24 16
      vertex 40 24 25
      vertex 40.75 24 25
    endloop
  endfacet
  facet normal 0 1 0
    outer loop
      vertex 40 24 25
      vertex 40.75 24 16
      vertex 40 24 16
    endloop
  endfacet
  facet normal 1 -0 0
    outer loop
      vertex 40.75 21 25
      vertex 40.75 22 16
      vertex 40.75 22 25
    endloop
  endfacet
  facet normal 1 0 0
    outer loop
      vertex 40.75 22 16
      vertex 40.75 21 25
      vertex 40.75 21 16
    endloop
  endfacet
  facet normal -0 0 1
    outer loop
      vertex 40 22 25
      vertex 40.75 21 25
      vertex 40.75 22 25
    endloop
  endfacet
  facet normal 0 0 1
    outer loop
      vertex 40.75 21 25
      vertex 40 22 25
      vertex 40 21 25
    endloop
  endfacet
  facet normal 0 -1 0
    outer loop
      vertex 40 21 16
      vertex 40.75 21 25
      vertex 40 21 25
    endloop
  endfacet
  facet normal 0 -1 -0
    outer loop
      vertex 40.75 21 25
      vertex 40 21 16
      vertex 40.75 21 16
    endloop
  endfacet
  facet normal 0 1 -0
    outer loop
      vertex 40.75 22 16
      vertex 40 22 25
      vertex 40.75 22 25
    endloop
  endfacet
  facet normal 0 1 0
    outer loop
      vertex 40 22 25
      vertex 40.75 22 16
      vertex 40 22 16
    endloop
  endfacet
  facet normal 1 -0 0
    outer loop
      vertex 40.75 19 25
      vertex 40.75 20 16
      vertex 40.75 20 25
    endloop
  endfacet
  facet normal 1 0 0
    outer loop
      vertex 40.75 20 16
      vertex 40.75 19 25
      vertex 40.75 19 16
    endloop
  endfacet
  facet normal -0 0 1
    outer loop
      vertex 40 20 25
      vertex 40.75 19 25
      vertex 40.75 20 25
    endloop
  endfacet
  facet normal 0 0 1
    outer loop
      vertex 40.75 19 25
      vertex 40 20 25
      vertex 40 19 25
    endloop
  endfacet
  facet normal 0 1 -0
    outer loop
      vertex 40.75 20 16
      vertex 40 20 25
      vertex 40.75 20 25
    endloop
  endfacet
  facet normal 0 1 0
    outer loop
      vertex 40 20 25
      vertex 40.75 20 16
      vertex 40 20 16
    endloop
  endfacet
endsolid OpenSCAD_Model
