solid OpenSCAD_Model
  facet normal -1 0 0
    outer loop
      vertex -4.75 0 0
      vertex -4.75 11 13
      vertex -4.75 11 0
    endloop
  endfacet
  facet normal -1 -0 0
    outer loop
      vertex -4.75 11 13
      vertex -4.75 0 0
      vertex -4.75 0 13
    endloop
  endfacet
  facet normal -0 0 1
    outer loop
      vertex -0.75 11 4
      vertex 0 10 4
      vertex 0 11 4
    endloop
  endfacet
  facet normal 0 0 1
    outer loop
      vertex 0 10 4
      vertex -0.75 11 4
      vertex 0 9 4
    endloop
  endfacet
  facet normal 0 0 1
    outer loop
      vertex 0 9 4
      vertex -0.75 11 4
      vertex 0 8 4
    endloop
  endfacet
  facet normal 0 0 1
    outer loop
      vertex 0 8 4
      vertex -0.75 11 4
      vertex 0 7 4
    endloop
  endfacet
  facet normal 0 0 1
    outer loop
      vertex 0 7 4
      vertex -0.75 11 4
      vertex 0 6 4
    endloop
  endfacet
  facet normal 0 0 1
    outer loop
      vertex 0 6 4
      vertex -0.75 11 4
      vertex 0 5 4
    endloop
  endfacet
  facet normal 0 0 1
    outer loop
      vertex -0.75 0 4
      vertex 0 5 4
      vertex -0.75 11 4
    endloop
  endfacet
  facet normal 0 0 1
    outer loop
      vertex 0 5 4
      vertex -0.75 0 4
      vertex 0 4 4
    endloop
  endfacet
  facet normal 0 0 1
    outer loop
      vertex 0 4 4
      vertex -0.75 0 4
      vertex 0 3 4
    endloop
  endfacet
  facet normal 0 0 1
    outer loop
      vertex 0 3 4
      vertex -0.75 0 4
      vertex 0 2 4
    endloop
  endfacet
  facet normal 0 0 1
    outer loop
      vertex 0 2 4
      vertex -0.75 0 4
      vertex 0 1 4
    endloop
  endfacet
  facet normal 0 0 1
    outer loop
      vertex 0 1 4
      vertex -0.75 0 4
      vertex 0 0 4
    endloop
  endfacet
  facet normal -0 0 1
    outer loop
      vertex 0 10 4
      vertex 0.75 9 4
      vertex 0.75 10 4
    endloop
  endfacet
  facet normal 0 0 1
    outer loop
      vertex 0.75 9 4
      vertex 0 10 4
      vertex 0 9 4
    endloop
  endfacet
  facet normal -0 0 1
    outer loop
      vertex 0 8 4
      vertex 0.75 7 4
      vertex 0.75 8 4
    endloop
  endfacet
  facet normal 0 0 1
    outer loop
      vertex 0.75 7 4
      vertex 0 8 4
      vertex 0 7 4
    endloop
  endfacet
  facet normal -0 0 1
    outer loop
      vertex 0 6 4
      vertex 0.75 5 4
      vertex 0.75 6 4
    endloop
  endfacet
  facet normal 0 0 1
    outer loop
      vertex 0.75 5 4
      vertex 0 6 4
      vertex 0 5 4
    endloop
  endfacet
  facet normal -0 0 1
    outer loop
      vertex 0 4 4
      vertex 0.75 3 4
      vertex 0.75 4 4
    endloop
  endfacet
  facet normal 0 0 1
    outer loop
      vertex 0.75 3 4
      vertex 0 4 4
      vertex 0 3 4
    endloop
  endfacet
  facet normal -0 0 1
    outer loop
      vertex 0 2 4
      vertex 0.75 1 4
      vertex 0.75 2 4
    endloop
  endfacet
  facet normal 0 0 1
    outer loop
      vertex 0.75 1 4
      vertex 0 2 4
      vertex 0 1 4
    endloop
  endfacet
  facet normal -1 0 0
    outer loop
      vertex 0.75 9 4
      vertex 0.75 10 13
      vertex 0.75 10 4
    endloop
  endfacet
  facet normal -1 -0 0
    outer loop
      vertex 0.75 10 13
      vertex 0.75 9 4
      vertex 0.75 9 13
    endloop
  endfacet
  facet normal -1 0 0
    outer loop
      vertex 0.75 7 4
      vertex 0.75 8 13
      vertex 0.75 8 4
    endloop
  endfacet
  facet normal -1 -0 0
    outer loop
      vertex 0.75 8 13
      vertex 0.75 7 4
      vertex 0.75 7 13
    endloop
  endfacet
  facet normal -1 0 0
    outer loop
      vertex 0.75 5 4
      vertex 0.75 6 13
      vertex 0.75 6 4
    endloop
  endfacet
  facet normal -1 -0 0
    outer loop
      vertex 0.75 6 13
      vertex 0.75 5 4
      vertex 0.75 5 13
    endloop
  endfacet
  facet normal -1 0 0
    outer loop
      vertex 0.75 3 4
      vertex 0.75 4 13
      vertex 0.75 4 4
    endloop
  endfacet
  facet normal -1 -0 0
    outer loop
      vertex 0.75 4 13
      vertex 0.75 3 4
      vertex 0.75 3 13
    endloop
  endfacet
  facet normal -1 0 0
    outer loop
      vertex 0.75 1 4
      vertex 0.75 2 13
      vertex 0.75 2 4
    endloop
  endfacet
  facet normal -1 -0 0
    outer loop
      vertex 0.75 2 13
      vertex 0.75 1 4
      vertex 0.75 1 13
    endloop
  endfacet
  facet normal 0 0 -1
    outer loop
      vertex -4.75 0 0
      vertex 4.75 11 0
      vertex 4.75 0 0
    endloop
  endfacet
  facet normal -0 0 -1
    outer loop
      vertex 4.75 11 0
      vertex -4.75 0 0
      vertex -4.75 11 0
    endloop
  endfacet
  facet normal 0 -1 0
    outer loop
      vertex -4.75 0 13
      vertex -0.75 0 4
      vertex -0.75 0 13
    endloop
  endfacet
  facet normal 0 -1 -0
    outer loop
      vertex -0.75 0 4
      vertex -4.75 0 0
      vertex 0 0 4
    endloop
  endfacet
  facet normal 0 -1 0
    outer loop
      vertex -4.75 0 0
      vertex -0.75 0 4
      vertex -4.75 0 13
    endloop
  endfacet
  facet normal 0 -1 0
    outer loop
      vertex 0 0 4
      vertex 4.75 0 13
      vertex 0 0 13
    endloop
  endfacet
  facet normal 0 -1 0
    outer loop
      vertex 0 0 4
      vertex 4.75 0 0
      vertex 4.75 0 13
    endloop
  endfacet
  facet normal 0 -1 0
    outer loop
      vertex 4.75 0 0
      vertex 0 0 4
      vertex -4.75 0 0
    endloop
  endfacet
  facet normal 0 1 0
    outer loop
      vertex 4.75 11 13
      vertex 0 11 4
      vertex 0 11 13
    endloop
  endfacet
  facet normal 0 1 0
    outer loop
      vertex -4.75 11 0
      vertex 0 11 4
      vertex 4.75 11 0
    endloop
  endfacet
  facet normal 0 1 -0
    outer loop
      vertex 4.75 11 0
      vertex 0 11 4
      vertex 4.75 11 13
    endloop
  endfacet
  facet normal 0 1 -0
    outer loop
      vertex -0.75 11 4
      vertex -4.75 11 13
      vertex -0.75 11 13
    endloop
  endfacet
  facet normal 0 1 0
    outer loop
      vertex -0.75 11 4
      vertex -4.75 11 0
      vertex -4.75 11 13
    endloop
  endfacet
  facet normal 0 1 0
    outer loop
      vertex 0 11 4
      vertex -4.75 11 0
      vertex -0.75 11 4
    endloop
  endfacet
  facet normal -0 0 1
    outer loop
      vertex -4.75 11 13
      vertex -0.75 0 13
      vertex -0.75 11 13
    endloop
  endfacet
  facet normal 0 0 1
    outer loop
      vertex -0.75 0 13
      vertex -4.75 11 13
      vertex -4.75 0 13
    endloop
  endfacet
  facet normal 1 -0 0
    outer loop
      vertex -0.75 0 13
      vertex -0.75 11 4
      vertex -0.75 11 13
    endloop
  endfacet
  facet normal 1 0 0
    outer loop
      vertex -0.75 11 4
      vertex -0.75 0 13
      vertex -0.75 0 4
    endloop
  endfacet
  facet normal -1 0 0
    outer loop
      vertex 0 0 4
      vertex 0 1 13
      vertex 0 1 4
    endloop
  endfacet
  facet normal -1 -0 0
    outer loop
      vertex 0 1 13
      vertex 0 0 4
      vertex 0 0 13
    endloop
  endfacet
  facet normal -0 0 1
    outer loop
      vertex 0 3 13
      vertex 0.75 2 13
      vertex 0.75 3 13
    endloop
  endfacet
  facet normal 0 0 1
    outer loop
      vertex 0.75 2 13
      vertex 0 3 13
      vertex 0 2 13
    endloop
  endfacet
  facet normal -0 0 1
    outer loop
      vertex 0 5 13
      vertex 0.75 4 13
      vertex 0.75 5 13
    endloop
  endfacet
  facet normal 0 0 1
    outer loop
      vertex 0.75 4 13
      vertex 0 5 13
      vertex 0 4 13
    endloop
  endfacet
  facet normal -0 0 1
    outer loop
      vertex 0 7 13
      vertex 0.75 6 13
      vertex 0.75 7 13
    endloop
  endfacet
  facet normal 0 0 1
    outer loop
      vertex 0.75 6 13
      vertex 0 7 13
      vertex 0 6 13
    endloop
  endfacet
  facet normal -0 0 1
    outer loop
      vertex 0 9 13
      vertex 0.75 8 13
      vertex 0.75 9 13
    endloop
  endfacet
  facet normal 0 0 1
    outer loop
      vertex 0.75 8 13
      vertex 0 9 13
      vertex 0 8 13
    endloop
  endfacet
  facet normal 0 0 1
    outer loop
      vertex 0.75 9 13
      vertex 4.75 11 13
      vertex 0.75 10 13
    endloop
  endfacet
  facet normal -0 0 1
    outer loop
      vertex 0 11 13
      vertex 0.75 10 13
      vertex 4.75 11 13
    endloop
  endfacet
  facet normal 0 0 1
    outer loop
      vertex 0.75 10 13
      vertex 0 11 13
      vertex 0 10 13
    endloop
  endfacet
  facet normal 0 0 1
    outer loop
      vertex 0.75 8 13
      vertex 4.75 11 13
      vertex 0.75 9 13
    endloop
  endfacet
  facet normal 0 0 1
    outer loop
      vertex 0.75 7 13
      vertex 4.75 11 13
      vertex 0.75 8 13
    endloop
  endfacet
  facet normal 0 0 1
    outer loop
      vertex 0.75 6 13
      vertex 4.75 11 13
      vertex 0.75 7 13
    endloop
  endfacet
  facet normal 0 0 1
    outer loop
      vertex 4.75 11 13
      vertex 0.75 6 13
      vertex 4.75 0 13
    endloop
  endfacet
  facet normal -0 0 1
    outer loop
      vertex 0.75 5 13
      vertex 4.75 0 13
      vertex 0.75 6 13
    endloop
  endfacet
  facet normal -0 0 1
    outer loop
      vertex 0.75 4 13
      vertex 4.75 0 13
      vertex 0.75 5 13
    endloop
  endfacet
  facet normal -0 0 1
    outer loop
      vertex 0.75 3 13
      vertex 4.75 0 13
      vertex 0.75 4 13
    endloop
  endfacet
  facet normal -0 0 1
    outer loop
      vertex 0.75 2 13
      vertex 4.75 0 13
      vertex 0.75 3 13
    endloop
  endfacet
  facet normal -0 0 1
    outer loop
      vertex 0.75 1 13
      vertex 4.75 0 13
      vertex 0.75 2 13
    endloop
  endfacet
  facet normal 0 0 1
    outer loop
      vertex 0 0 13
      vertex 0.75 1 13
      vertex 0 1 13
    endloop
  endfacet
  facet normal 0 0 1
    outer loop
      vertex 0.75 1 13
      vertex 0 0 13
      vertex 4.75 0 13
    endloop
  endfacet
  facet normal 0 1 -0
    outer loop
      vertex 0.75 1 4
      vertex 0 1 13
      vertex 0.75 1 13
    endloop
  endfacet
  facet normal 0 1 0
    outer loop
      vertex 0 1 13
      vertex 0.75 1 4
      vertex 0 1 4
    endloop
  endfacet
  facet normal -1 0 0
    outer loop
      vertex 0 2 4
      vertex 0 3 13
      vertex 0 3 4
    endloop
  endfacet
  facet normal -1 -0 0
    outer loop
      vertex 0 3 13
      vertex 0 2 4
      vertex 0 2 13
    endloop
  endfacet
  facet normal 0 1 -0
    outer loop
      vertex 0.75 3 4
      vertex 0 3 13
      vertex 0.75 3 13
    endloop
  endfacet
  facet normal 0 1 0
    outer loop
      vertex 0 3 13
      vertex 0.75 3 4
      vertex 0 3 4
    endloop
  endfacet
  facet normal 0 -1 0
    outer loop
      vertex 0 2 4
      vertex 0.75 2 13
      vertex 0 2 13
    endloop
  endfacet
  facet normal 0 -1 -0
    outer loop
      vertex 0.75 2 13
      vertex 0 2 4
      vertex 0.75 2 4
    endloop
  endfacet
  facet normal -1 0 0
    outer loop
      vertex 0 4 4
      vertex 0 5 13
      vertex 0 5 4
    endloop
  endfacet
  facet normal -1 -0 0
    outer loop
      vertex 0 5 13
      vertex 0 4 4
      vertex 0 4 13
    endloop
  endfacet
  facet normal 0 1 -0
    outer loop
      vertex 0.75 5 4
      vertex 0 5 13
      vertex 0.75 5 13
    endloop
  endfacet
  facet normal 0 1 0
    outer loop
      vertex 0 5 13
      vertex 0.75 5 4
      vertex 0 5 4
    endloop
  endfacet
  facet normal 0 -1 0
    outer loop
      vertex 0 4 4
      vertex 0.75 4 13
      vertex 0 4 13
    endloop
  endfacet
  facet normal 0 -1 -0
    outer loop
      vertex 0.75 4 13
      vertex 0 4 4
      vertex 0.75 4 4
    endloop
  endfacet
  facet normal -1 0 0
    outer loop
      vertex 0 6 4
      vertex 0 7 13
      vertex 0 7 4
    endloop
  endfacet
  facet normal -1 -0 0
    outer loop
      vertex 0 7 13
      vertex 0 6 4
      vertex 0 6 13
    endloop
  endfacet
  facet normal 0 1 -0
    outer loop
      vertex 0.75 7 4
      vertex 0 7 13
      vertex 0.75 7 13
    endloop
  endfacet
  facet normal 0 1 0
    outer loop
      vertex 0 7 13
      vertex 0.75 7 4
      vertex 0 7 4
    endloop
  endfacet
  facet normal 0 -1 0
    outer loop
      vertex 0 6 4
      vertex 0.75 6 13
      vertex 0 6 13
    endloop
  endfacet
  facet normal 0 -1 -0
    outer loop
      vertex 0.75 6 13
      vertex 0 6 4
      vertex 0.75 6 4
    endloop
  endfacet
  facet normal -1 0 0
    outer loop
      vertex 0 8 4
      vertex 0 9 13
      vertex 0 9 4
    endloop
  endfacet
  facet normal -1 -0 0
    outer loop
      vertex 0 9 13
      vertex 0 8 4
      vertex 0 8 13
    endloop
  endfacet
  facet normal 0 -1 0
    outer loop
      vertex 0 8 4
      vertex 0.75 8 13
      vertex 0 8 13
    endloop
  endfacet
  facet normal 0 -1 -0
    outer loop
      vertex 0.75 8 13
      vertex 0 8 4
      vertex 0.75 8 4
    endloop
  endfacet
  facet normal 0 1 -0
    outer loop
      vertex 0.75 9 4
      vertex 0 9 13
      vertex 0.75 9 13
    endloop
  endfacet
  facet normal 0 1 0
    outer loop
      vertex 0 9 13
      vertex 0.75 9 4
      vertex 0 9 4
    endloop
  endfacet
  facet normal -1 0 0
    outer loop
      vertex 0 10 4
      vertex 0 11 13
      vertex 0 11 4
    endloop
  endfacet
  facet normal -1 -0 0
    outer loop
      vertex 0 11 13
      vertex 0 10 4
      vertex 0 10 13
    endloop
  endfacet
  facet normal 0 -1 0
    outer loop
      vertex 0 10 4
      vertex 0.75 10 13
      vertex 0 10 13
    endloop
  endfacet
  facet normal 0 -1 -0
    outer loop
      vertex 0.75 10 13
      vertex 0 10 4
      vertex 0.75 10 4
    endloop
  endfacet
  facet normal 1 -0 0
    outer loop
      vertex 4.75 0 13
      vertex 4.75 11 0
      vertex 4.75 11 13
    endloop
  endfacet
  facet normal 1 0 0
    outer loop
      vertex 4.75 11 0
      vertex 4.75 0 13
      vertex 4.75 0 0
    endloop
  endfacet
endsolid OpenSCAD_Model
