solid OpenSCAD_Model
  facet normal -0 0 1
    outer loop
      vertex -41 8 5
      vertex -29 0 5
      vertex -29 8 5
    endloop
  endfacet
  facet normal 0 0 1
    outer loop
      vertex -29 0 5
      vertex -41 8 5
      vertex -41 0 5
    endloop
  endfacet
  facet normal -0 0 1
    outer loop
      vertex -41 28 5
      vertex -29 20 5
      vertex -29 28 5
    endloop
  endfacet
  facet normal 0 0 1
    outer loop
      vertex -29 20 5
      vertex -41 28 5
      vertex -41 20 5
    endloop
  endfacet
  facet normal 0 0 1
    outer loop
      vertex -31.1958 15.2361 5
      vertex -31.1958 12.7639 5
      vertex -31 14 5
    endloop
  endfacet
  facet normal 0 0 1
    outer loop
      vertex -31.7639 16.3511 5
      vertex -31.1958 12.7639 5
      vertex -31.1958 15.2361 5
    endloop
  endfacet
  facet normal 0 0 1
    outer loop
      vertex -31.7639 16.3511 5
      vertex -31.7639 11.6489 5
      vertex -31.1958 12.7639 5
    endloop
  endfacet
  facet normal 0 0 1
    outer loop
      vertex -32.6489 17.2361 5
      vertex -31.7639 11.6489 5
      vertex -31.7639 16.3511 5
    endloop
  endfacet
  facet normal 0 0 1
    outer loop
      vertex -32.6489 17.2361 5
      vertex -32.6489 10.7639 5
      vertex -31.7639 11.6489 5
    endloop
  endfacet
  facet normal 0 0 1
    outer loop
      vertex -33.7639 17.8042 5
      vertex -32.6489 10.7639 5
      vertex -32.6489 17.2361 5
    endloop
  endfacet
  facet normal 0 0 1
    outer loop
      vertex -33.7639 17.8042 5
      vertex -33.7639 10.1958 5
      vertex -32.6489 10.7639 5
    endloop
  endfacet
  facet normal 0 0 1
    outer loop
      vertex -35 18 5
      vertex -33.7639 10.1958 5
      vertex -33.7639 17.8042 5
    endloop
  endfacet
  facet normal 0 0 1
    outer loop
      vertex -35 18 5
      vertex -35 10 5
      vertex -33.7639 10.1958 5
    endloop
  endfacet
  facet normal -0 0 1
    outer loop
      vertex -36.2361 17.8042 5
      vertex -35 10 5
      vertex -35 18 5
    endloop
  endfacet
  facet normal 0 0 1
    outer loop
      vertex -36.2361 17.8042 5
      vertex -36.2361 10.1958 5
      vertex -35 10 5
    endloop
  endfacet
  facet normal -0 0 1
    outer loop
      vertex -37.3511 17.2361 5
      vertex -36.2361 10.1958 5
      vertex -36.2361 17.8042 5
    endloop
  endfacet
  facet normal 0 0 1
    outer loop
      vertex -37.3511 17.2361 5
      vertex -37.3511 10.7639 5
      vertex -36.2361 10.1958 5
    endloop
  endfacet
  facet normal -0 0 1
    outer loop
      vertex -38.2361 16.3511 5
      vertex -37.3511 10.7639 5
      vertex -37.3511 17.2361 5
    endloop
  endfacet
  facet normal 0 0 1
    outer loop
      vertex -38.2361 16.3511 5
      vertex -38.2361 11.6489 5
      vertex -37.3511 10.7639 5
    endloop
  endfacet
  facet normal -0 0 1
    outer loop
      vertex -38.8042 15.2361 5
      vertex -38.2361 11.6489 5
      vertex -38.2361 16.3511 5
    endloop
  endfacet
  facet normal 0 0 1
    outer loop
      vertex -38.8042 15.2361 5
      vertex -38.8042 12.7639 5
      vertex -38.2361 11.6489 5
    endloop
  endfacet
  facet normal 0 -0 1
    outer loop
      vertex -38.8042 12.7639 5
      vertex -38.8042 15.2361 5
      vertex -39 14 5
    endloop
  endfacet
  facet normal -0 0 1
    outer loop
      vertex -13 28 5
      vertex -4 0 5
      vertex -4 28 5
    endloop
  endfacet
  facet normal 0 0 1
    outer loop
      vertex -4 0 5
      vertex -13 28 5
      vertex -13 0 5
    endloop
  endfacet
  facet normal -0 0 1
    outer loop
      vertex -25 28 5
      vertex -16 0 5
      vertex -16 28 5
    endloop
  endfacet
  facet normal 0 0 1
    outer loop
      vertex -16 0 5
      vertex -25 28 5
      vertex -25 0 5
    endloop
  endfacet
  facet normal -1 0 0
    outer loop
      vertex -29 8 5
      vertex -29 0 5
      vertex -29 8 13.5
    endloop
  endfacet
  facet normal -1 0 0
    outer loop
      vertex -29 20 13.5
      vertex -29 17.8042 17.7639
      vertex -29 18 19
    endloop
  endfacet
  facet normal -1 0 0
    outer loop
      vertex -29 20 13.5
      vertex -29 17.2361 16.6489
      vertex -29 17.8042 17.7639
    endloop
  endfacet
  facet normal -1 0 0
    outer loop
      vertex -29 20 13.5
      vertex -29 16.3511 15.7639
      vertex -29 17.2361 16.6489
    endloop
  endfacet
  facet normal -1 0 0
    outer loop
      vertex -29 20 13.5
      vertex -29 15.2361 15.1958
      vertex -29 16.3511 15.7639
    endloop
  endfacet
  facet normal -1 0 0
    outer loop
      vertex -29 20 13.5
      vertex -29 14 15
      vertex -29 15.2361 15.1958
    endloop
  endfacet
  facet normal -1 0 0
    outer loop
      vertex -29 8 13.5
      vertex -29 14 15
      vertex -29 20 13.5
    endloop
  endfacet
  facet normal -1 -0 0
    outer loop
      vertex -29 10.1958 17.7639
      vertex -29 8 13.5
      vertex -29 10 19
    endloop
  endfacet
  facet normal -1 -0 0
    outer loop
      vertex -29 10.7639 16.6489
      vertex -29 8 13.5
      vertex -29 10.1958 17.7639
    endloop
  endfacet
  facet normal -1 -0 0
    outer loop
      vertex -29 11.6489 15.7639
      vertex -29 8 13.5
      vertex -29 10.7639 16.6489
    endloop
  endfacet
  facet normal -1 -0 0
    outer loop
      vertex -29 12.7639 15.1958
      vertex -29 8 13.5
      vertex -29 11.6489 15.7639
    endloop
  endfacet
  facet normal -1 -0 0
    outer loop
      vertex -29 14 15
      vertex -29 8 13.5
      vertex -29 12.7639 15.1958
    endloop
  endfacet
  facet normal -1 0 0
    outer loop
      vertex -29 20 13.5
      vertex -29 28 5
      vertex -29 20 5
    endloop
  endfacet
  facet normal -1 0 0
    outer loop
      vertex -29 28 5
      vertex -29 20 13.5
      vertex -29 28 33
    endloop
  endfacet
  facet normal -1 0 0
    outer loop
      vertex -29 18 19
      vertex -29 28 33
      vertex -29 20 13.5
    endloop
  endfacet
  facet normal -1 0 0
    outer loop
      vertex -29 17.8042 20.2361
      vertex -29 28 33
      vertex -29 18 19
    endloop
  endfacet
  facet normal -1 0 0
    outer loop
      vertex -29 17.2361 21.3511
      vertex -29 28 33
      vertex -29 17.8042 20.2361
    endloop
  endfacet
  facet normal -1 0 0
    outer loop
      vertex -29 16.3511 22.2361
      vertex -29 28 33
      vertex -29 17.2361 21.3511
    endloop
  endfacet
  facet normal -1 0 0
    outer loop
      vertex -29 15.2361 22.8042
      vertex -29 28 33
      vertex -29 16.3511 22.2361
    endloop
  endfacet
  facet normal -1 0 0
    outer loop
      vertex -29 14 23
      vertex -29 28 33
      vertex -29 15.2361 22.8042
    endloop
  endfacet
  facet normal -1 0 0
    outer loop
      vertex -29 0 33
      vertex -29 14 23
      vertex -29 12.7639 22.8042
    endloop
  endfacet
  facet normal -1 0 0
    outer loop
      vertex -29 0 33
      vertex -29 12.7639 22.8042
      vertex -29 11.6489 22.2361
    endloop
  endfacet
  facet normal -1 0 0
    outer loop
      vertex -29 0 33
      vertex -29 10 19
      vertex -29 8 13.5
    endloop
  endfacet
  facet normal -1 0 0
    outer loop
      vertex -29 0 33
      vertex -29 8 13.5
      vertex -29 0 5
    endloop
  endfacet
  facet normal -1 0 0
    outer loop
      vertex -29 10 19
      vertex -29 0 33
      vertex -29 10.1958 20.2361
    endloop
  endfacet
  facet normal -1 0 0
    outer loop
      vertex -29 14 23
      vertex -29 0 33
      vertex -29 28 33
    endloop
  endfacet
  facet normal -1 0 0
    outer loop
      vertex -29 10.7639 21.3511
      vertex -29 0 33
      vertex -29 11.6489 22.2361
    endloop
  endfacet
  facet normal -1 0 0
    outer loop
      vertex -29 10.1958 20.2361
      vertex -29 0 33
      vertex -29 10.7639 21.3511
    endloop
  endfacet
  facet normal -0 0 1
    outer loop
      vertex -29 28 33
      vertex -25 0 33
      vertex -25 28 33
    endloop
  endfacet
  facet normal 0 0 1
    outer loop
      vertex -25 0 33
      vertex -29 28 33
      vertex -29 0 33
    endloop
  endfacet
  facet normal -0 0 1
    outer loop
      vertex -4 28 33
      vertex 7.32747e-015 0 33
      vertex 7.32747e-015 28 33
    endloop
  endfacet
  facet normal 0 0 1
    outer loop
      vertex 7.32747e-015 0 33
      vertex -4 28 33
      vertex -4 0 33
    endloop
  endfacet
  facet normal -0 0 1
    outer loop
      vertex -16 28 33
      vertex -13 0 33
      vertex -13 28 33
    endloop
  endfacet
  facet normal 0 0 1
    outer loop
      vertex -13 0 33
      vertex -16 28 33
      vertex -16 0 33
    endloop
  endfacet
  facet normal 1 0 -2.22045e-016
    outer loop
      vertex 7.32747e-015 28 33
      vertex 4.21885e-015 18 19
      vertex 0 28 0
    endloop
  endfacet
  facet normal 1 0 -2.22045e-016
    outer loop
      vertex 7.32747e-015 28 33
      vertex 4.49331e-015 17.8042 20.2361
      vertex 4.21885e-015 18 19
    endloop
  endfacet
  facet normal 1 0 -2.22045e-016
    outer loop
      vertex 7.32747e-015 28 33
      vertex 4.74091e-015 17.2361 21.3511
      vertex 4.49331e-015 17.8042 20.2361
    endloop
  endfacet
  facet normal 1 0 -2.22045e-016
    outer loop
      vertex 7.32747e-015 28 33
      vertex 4.9374e-015 16.3511 22.2361
      vertex 4.74091e-015 17.2361 21.3511
    endloop
  endfacet
  facet normal 1 0 -2.22045e-016
    outer loop
      vertex 7.32747e-015 28 33
      vertex 5.06356e-015 15.2361 22.8042
      vertex 4.9374e-015 16.3511 22.2361
    endloop
  endfacet
  facet normal 1 0 -2.22045e-016
    outer loop
      vertex 7.32747e-015 28 33
      vertex 5.10703e-015 14 23
      vertex 5.06356e-015 15.2361 22.8042
    endloop
  endfacet
  facet normal 1 0 -2.22045e-016
    outer loop
      vertex 7.32747e-015 0 33
      vertex 5.10703e-015 14 23
      vertex 7.32747e-015 28 33
    endloop
  endfacet
  facet normal 1 0 -2.22045e-016
    outer loop
      vertex 5.10703e-015 14 23
      vertex 7.32747e-015 0 33
      vertex 5.06356e-015 12.7639 22.8042
    endloop
  endfacet
  facet normal 1 0 -2.22045e-016
    outer loop
      vertex 4.49331e-015 10.1958 20.2361
      vertex 7.32747e-015 0 33
      vertex 4.21885e-015 10 19
    endloop
  endfacet
  facet normal 1 0 -2.22045e-016
    outer loop
      vertex 4.74091e-015 10.7639 21.3511
      vertex 7.32747e-015 0 33
      vertex 4.49331e-015 10.1958 20.2361
    endloop
  endfacet
  facet normal 1 0 -2.22045e-016
    outer loop
      vertex 4.9374e-015 11.6489 22.2361
      vertex 7.32747e-015 0 33
      vertex 4.74091e-015 10.7639 21.3511
    endloop
  endfacet
  facet normal 1 0 -2.22045e-016
    outer loop
      vertex 5.06356e-015 12.7639 22.8042
      vertex 7.32747e-015 0 33
      vertex 4.9374e-015 11.6489 22.2361
    endloop
  endfacet
  facet normal 1 0 -2.22045e-016
    outer loop
      vertex 3.94439e-015 17.8042 17.7639
      vertex 0 28 0
      vertex 4.21885e-015 18 19
    endloop
  endfacet
  facet normal 1 0 -2.22045e-016
    outer loop
      vertex 3.69679e-015 17.2361 16.6489
      vertex 0 28 0
      vertex 3.94439e-015 17.8042 17.7639
    endloop
  endfacet
  facet normal 1 0 -2.22045e-016
    outer loop
      vertex 3.5003e-015 16.3511 15.7639
      vertex 0 28 0
      vertex 3.69679e-015 17.2361 16.6489
    endloop
  endfacet
  facet normal 1 0 -2.22045e-016
    outer loop
      vertex 3.37414e-015 15.2361 15.1958
      vertex 0 28 0
      vertex 3.5003e-015 16.3511 15.7639
    endloop
  endfacet
  facet normal 1 0 -2.22045e-016
    outer loop
      vertex 3.33067e-015 14 15
      vertex 0 28 0
      vertex 3.37414e-015 15.2361 15.1958
    endloop
  endfacet
  facet normal 1 0 -2.22045e-016
    outer loop
      vertex 0 0 0
      vertex 3.33067e-015 14 15
      vertex 3.37414e-015 12.7639 15.1958
    endloop
  endfacet
  facet normal 1 0 -2.22045e-016
    outer loop
      vertex 0 0 0
      vertex 3.37414e-015 12.7639 15.1958
      vertex 3.5003e-015 11.6489 15.7639
    endloop
  endfacet
  facet normal 1 0 -2.22045e-016
    outer loop
      vertex 0 0 0
      vertex 4.21885e-015 10 19
      vertex 7.32747e-015 0 33
    endloop
  endfacet
  facet normal 1 0 -2.22045e-016
    outer loop
      vertex 4.21885e-015 10 19
      vertex 0 0 0
      vertex 3.94439e-015 10.1958 17.7639
    endloop
  endfacet
  facet normal 1 0 -2.22045e-016
    outer loop
      vertex 3.33067e-015 14 15
      vertex 0 0 0
      vertex 0 28 0
    endloop
  endfacet
  facet normal 1 0 -2.22045e-016
    outer loop
      vertex 3.69679e-015 10.7639 16.6489
      vertex 0 0 0
      vertex 3.5003e-015 11.6489 15.7639
    endloop
  endfacet
  facet normal 1 0 -2.22045e-016
    outer loop
      vertex 3.94439e-015 10.1958 17.7639
      vertex 0 0 0
      vertex 3.69679e-015 10.7639 16.6489
    endloop
  endfacet
  facet normal 0 -1 0
    outer loop
      vertex -41 0 9.10383e-015
      vertex -29 0 5
      vertex -41 0 5
    endloop
  endfacet
  facet normal 0 -1 -0
    outer loop
      vertex -29 0 5
      vertex -41 0 9.10383e-015
      vertex -25 0 5
    endloop
  endfacet
  facet normal 0 -1 -0
    outer loop
      vertex -25 0 5
      vertex -41 0 9.10383e-015
      vertex -16 0 5
    endloop
  endfacet
  facet normal 0 -1 0
    outer loop
      vertex 0 0 0
      vertex -16 0 5
      vertex -41 0 9.10383e-015
    endloop
  endfacet
  facet normal 0 -1 0
    outer loop
      vertex -16 0 5
      vertex 0 0 0
      vertex -13 0 5
    endloop
  endfacet
  facet normal 0 -1 0
    outer loop
      vertex -29 0 5
      vertex -25 0 33
      vertex -29 0 33
    endloop
  endfacet
  facet normal 0 -1 -0
    outer loop
      vertex -25 0 33
      vertex -29 0 5
      vertex -25 0 5
    endloop
  endfacet
  facet normal 0 -1 0
    outer loop
      vertex -16 0 5
      vertex -13 0 33
      vertex -16 0 33
    endloop
  endfacet
  facet normal 0 -1 -0
    outer loop
      vertex -13 0 33
      vertex -16 0 5
      vertex -13 0 5
    endloop
  endfacet
  facet normal 0 -1 0
    outer loop
      vertex -4 0 5
      vertex 7.32747e-015 0 33
      vertex -4 0 33
    endloop
  endfacet
  facet normal 0 -1 0
    outer loop
      vertex -4 0 5
      vertex 0 0 0
      vertex 7.32747e-015 0 33
    endloop
  endfacet
  facet normal 0 -1 0
    outer loop
      vertex -13 0 5
      vertex 0 0 0
      vertex -4 0 5
    endloop
  endfacet
  facet normal 0 1 0
    outer loop
      vertex 7.32747e-015 28 33
      vertex -4 28 5
      vertex -4 28 33
    endloop
  endfacet
  facet normal 0 1 0
    outer loop
      vertex 0 28 0
      vertex -13 28 5
      vertex -4 28 5
    endloop
  endfacet
  facet normal 0 1 0
    outer loop
      vertex -13 28 5
      vertex 0 28 0
      vertex -16 28 5
    endloop
  endfacet
  facet normal 0 1 0
    outer loop
      vertex -16 28 5
      vertex 0 28 0
      vertex -25 28 5
    endloop
  endfacet
  facet normal -0 1 0
    outer loop
      vertex -41 28 9.10383e-015
      vertex -25 28 5
      vertex 0 28 0
    endloop
  endfacet
  facet normal 0 1 0
    outer loop
      vertex -29 28 5
      vertex -41 28 9.10383e-015
      vertex -41 28 5
    endloop
  endfacet
  facet normal 0 1 0
    outer loop
      vertex -25 28 5
      vertex -41 28 9.10383e-015
      vertex -29 28 5
    endloop
  endfacet
  facet normal 0 1 -0
    outer loop
      vertex 0 28 0
      vertex -4 28 5
      vertex 7.32747e-015 28 33
    endloop
  endfacet
  facet normal 0 1 -0
    outer loop
      vertex -13 28 5
      vertex -16 28 33
      vertex -13 28 33
    endloop
  endfacet
  facet normal 0 1 0
    outer loop
      vertex -16 28 33
      vertex -13 28 5
      vertex -16 28 5
    endloop
  endfacet
  facet normal 0 1 -0
    outer loop
      vertex -25 28 5
      vertex -29 28 33
      vertex -25 28 33
    endloop
  endfacet
  facet normal 0 1 0
    outer loop
      vertex -29 28 33
      vertex -25 28 5
      vertex -29 28 5
    endloop
  endfacet
  facet normal 0 -0.156435 -0.987688
    outer loop
      vertex -4 14 23
      vertex 5.06356e-015 15.2361 22.8042
      vertex 5.10703e-015 14 23
    endloop
  endfacet
  facet normal -0 -0.156435 -0.987688
    outer loop
      vertex 5.06356e-015 15.2361 22.8042
      vertex -4 14 23
      vertex -4 15.2361 22.8042
    endloop
  endfacet
  facet normal 0 -0.156435 -0.987688
    outer loop
      vertex -29 14 23
      vertex -25 15.2361 22.8042
      vertex -25 14 23
    endloop
  endfacet
  facet normal -0 -0.156435 -0.987688
    outer loop
      vertex -25 15.2361 22.8042
      vertex -29 14 23
      vertex -29 15.2361 22.8042
    endloop
  endfacet
  facet normal 0 -0.156435 -0.987688
    outer loop
      vertex -16 14 23
      vertex -13 15.2361 22.8042
      vertex -13 14 23
    endloop
  endfacet
  facet normal -0 -0.156435 -0.987688
    outer loop
      vertex -13 15.2361 22.8042
      vertex -16 14 23
      vertex -16 15.2361 22.8042
    endloop
  endfacet
  facet normal 0 -0.987688 -0.156434
    outer loop
      vertex -29 18 19
      vertex -25 17.8042 20.2361
      vertex -29 17.8042 20.2361
    endloop
  endfacet
  facet normal 0 -0.987688 -0.156434
    outer loop
      vertex -25 17.8042 20.2361
      vertex -29 18 19
      vertex -25 18 19
    endloop
  endfacet
  facet normal 0 -0.987688 -0.156434
    outer loop
      vertex -4 18 19
      vertex 4.49331e-015 17.8042 20.2361
      vertex -4 17.8042 20.2361
    endloop
  endfacet
  facet normal 0 -0.987688 -0.156434
    outer loop
      vertex 4.49331e-015 17.8042 20.2361
      vertex -4 18 19
      vertex 4.21885e-015 18 19
    endloop
  endfacet
  facet normal 0 -0.987688 -0.156434
    outer loop
      vertex -16 18 19
      vertex -13 17.8042 20.2361
      vertex -16 17.8042 20.2361
    endloop
  endfacet
  facet normal 0 -0.987688 -0.156434
    outer loop
      vertex -13 17.8042 20.2361
      vertex -16 18 19
      vertex -13 18 19
    endloop
  endfacet
  facet normal -0 0.156434 0.987688
    outer loop
      vertex -4 14 15
      vertex 3.37414e-015 12.7639 15.1958
      vertex 3.33067e-015 14 15
    endloop
  endfacet
  facet normal 0 0.156434 0.987688
    outer loop
      vertex 3.37414e-015 12.7639 15.1958
      vertex -4 14 15
      vertex -4 12.7639 15.1958
    endloop
  endfacet
  facet normal -0 0.156434 0.987688
    outer loop
      vertex -29 14 15
      vertex -25 12.7639 15.1958
      vertex -25 14 15
    endloop
  endfacet
  facet normal 0 0.156434 0.987688
    outer loop
      vertex -25 12.7639 15.1958
      vertex -29 14 15
      vertex -29 12.7639 15.1958
    endloop
  endfacet
  facet normal -0 0.156434 0.987688
    outer loop
      vertex -16 14 15
      vertex -13 12.7639 15.1958
      vertex -13 14 15
    endloop
  endfacet
  facet normal 0 0.156434 0.987688
    outer loop
      vertex -13 12.7639 15.1958
      vertex -16 14 15
      vertex -16 12.7639 15.1958
    endloop
  endfacet
  facet normal 0 0.987688 -0.156434
    outer loop
      vertex -25 10 19
      vertex -29 10.1958 20.2361
      vertex -25 10.1958 20.2361
    endloop
  endfacet
  facet normal 0 0.987688 -0.156434
    outer loop
      vertex -29 10.1958 20.2361
      vertex -25 10 19
      vertex -29 10 19
    endloop
  endfacet
  facet normal 0 0.987688 -0.156434
    outer loop
      vertex 4.21885e-015 10 19
      vertex -4 10.1958 20.2361
      vertex 4.49331e-015 10.1958 20.2361
    endloop
  endfacet
  facet normal 0 0.987688 -0.156434
    outer loop
      vertex -4 10.1958 20.2361
      vertex 4.21885e-015 10 19
      vertex -4 10 19
    endloop
  endfacet
  facet normal 0 0.987688 -0.156434
    outer loop
      vertex -13 10 19
      vertex -16 10.1958 20.2361
      vertex -13 10.1958 20.2361
    endloop
  endfacet
  facet normal 0 0.987688 -0.156434
    outer loop
      vertex -16 10.1958 20.2361
      vertex -13 10 19
      vertex -16 10 19
    endloop
  endfacet
  facet normal 0 -0.45399 -0.891007
    outer loop
      vertex -4 15.2361 22.8042
      vertex 4.9374e-015 16.3511 22.2361
      vertex 5.06356e-015 15.2361 22.8042
    endloop
  endfacet
  facet normal -0 -0.45399 -0.891007
    outer loop
      vertex 4.9374e-015 16.3511 22.2361
      vertex -4 15.2361 22.8042
      vertex -4 16.3511 22.2361
    endloop
  endfacet
  facet normal 0 -0.45399 -0.891007
    outer loop
      vertex -29 15.2361 22.8042
      vertex -25 16.3511 22.2361
      vertex -25 15.2361 22.8042
    endloop
  endfacet
  facet normal -0 -0.45399 -0.891007
    outer loop
      vertex -25 16.3511 22.2361
      vertex -29 15.2361 22.8042
      vertex -29 16.3511 22.2361
    endloop
  endfacet
  facet normal 0 -0.45399 -0.891007
    outer loop
      vertex -16 15.2361 22.8042
      vertex -13 16.3511 22.2361
      vertex -13 15.2361 22.8042
    endloop
  endfacet
  facet normal -0 -0.45399 -0.891007
    outer loop
      vertex -13 16.3511 22.2361
      vertex -16 15.2361 22.8042
      vertex -16 16.3511 22.2361
    endloop
  endfacet
  facet normal 0 -0.987688 0.156434
    outer loop
      vertex -4 17.8042 17.7639
      vertex 4.21885e-015 18 19
      vertex -4 18 19
    endloop
  endfacet
  facet normal 0 -0.987688 0.156434
    outer loop
      vertex 4.21885e-015 18 19
      vertex -4 17.8042 17.7639
      vertex 3.94439e-015 17.8042 17.7639
    endloop
  endfacet
  facet normal 0 -0.987688 0.156434
    outer loop
      vertex -29 17.8042 17.7639
      vertex -25 18 19
      vertex -29 18 19
    endloop
  endfacet
  facet normal 0 -0.987688 0.156434
    outer loop
      vertex -25 18 19
      vertex -29 17.8042 17.7639
      vertex -25 17.8042 17.7639
    endloop
  endfacet
  facet normal 0 -0.987688 0.156434
    outer loop
      vertex -16 17.8042 17.7639
      vertex -13 18 19
      vertex -16 18 19
    endloop
  endfacet
  facet normal 0 -0.987688 0.156434
    outer loop
      vertex -13 18 19
      vertex -16 17.8042 17.7639
      vertex -13 17.8042 17.7639
    endloop
  endfacet
  facet normal 0 -0.891007 0.45399
    outer loop
      vertex -4 17.2361 16.6489
      vertex 3.94439e-015 17.8042 17.7639
      vertex -4 17.8042 17.7639
    endloop
  endfacet
  facet normal 0 -0.891007 0.45399
    outer loop
      vertex 3.94439e-015 17.8042 17.7639
      vertex -4 17.2361 16.6489
      vertex 3.69679e-015 17.2361 16.6489
    endloop
  endfacet
  facet normal 0 -0.891007 0.45399
    outer loop
      vertex -29 17.2361 16.6489
      vertex -25 17.8042 17.7639
      vertex -29 17.8042 17.7639
    endloop
  endfacet
  facet normal 0 -0.891007 0.45399
    outer loop
      vertex -25 17.8042 17.7639
      vertex -29 17.2361 16.6489
      vertex -25 17.2361 16.6489
    endloop
  endfacet
  facet normal 0 -0.891007 0.45399
    outer loop
      vertex -16 17.2361 16.6489
      vertex -13 17.8042 17.7639
      vertex -16 17.8042 17.7639
    endloop
  endfacet
  facet normal 2.88639e-007 -0.891007 0.45399
    outer loop
      vertex -13 17.8042 17.7639
      vertex -16 17.2361 16.6489
      vertex -13 17.2361 16.6489
    endloop
  endfacet
  facet normal 0 0.156434 -0.987688
    outer loop
      vertex -29 12.7639 22.8042
      vertex -25 14 23
      vertex -25 12.7639 22.8042
    endloop
  endfacet
  facet normal 0 0.156434 -0.987688
    outer loop
      vertex -25 14 23
      vertex -29 12.7639 22.8042
      vertex -29 14 23
    endloop
  endfacet
  facet normal 0 0.156434 -0.987688
    outer loop
      vertex -4 12.7639 22.8042
      vertex 5.10703e-015 14 23
      vertex 5.06356e-015 12.7639 22.8042
    endloop
  endfacet
  facet normal 0 0.156434 -0.987688
    outer loop
      vertex 5.10703e-015 14 23
      vertex -4 12.7639 22.8042
      vertex -4 14 23
    endloop
  endfacet
  facet normal 0 0.156434 -0.987688
    outer loop
      vertex -16 12.7639 22.8042
      vertex -13 14 23
      vertex -13 12.7639 22.8042
    endloop
  endfacet
  facet normal 0 0.156434 -0.987688
    outer loop
      vertex -13 14 23
      vertex -16 12.7639 22.8042
      vertex -16 14 23
    endloop
  endfacet
  facet normal 0 0.891006 -0.453991
    outer loop
      vertex -25 10.1958 20.2361
      vertex -29 10.7639 21.3511
      vertex -25 10.7639 21.3511
    endloop
  endfacet
  facet normal 0 0.891006 -0.453991
    outer loop
      vertex -29 10.7639 21.3511
      vertex -25 10.1958 20.2361
      vertex -29 10.1958 20.2361
    endloop
  endfacet
  facet normal 0 0.891006 -0.453991
    outer loop
      vertex 4.49331e-015 10.1958 20.2361
      vertex -4 10.7639 21.3511
      vertex 4.74091e-015 10.7639 21.3511
    endloop
  endfacet
  facet normal 0 0.891006 -0.453991
    outer loop
      vertex -4 10.7639 21.3511
      vertex 4.49331e-015 10.1958 20.2361
      vertex -4 10.1958 20.2361
    endloop
  endfacet
  facet normal 0 0.891006 -0.453991
    outer loop
      vertex -13 10.1958 20.2361
      vertex -16 10.7639 21.3511
      vertex -13 10.7639 21.3511
    endloop
  endfacet
  facet normal 0 0.891006 -0.453991
    outer loop
      vertex -16 10.7639 21.3511
      vertex -13 10.1958 20.2361
      vertex -16 10.1958 20.2361
    endloop
  endfacet
  facet normal 0 0.707107 -0.707106
    outer loop
      vertex 4.74091e-015 10.7639 21.3511
      vertex -4 11.6489 22.2361
      vertex 4.9374e-015 11.6489 22.2361
    endloop
  endfacet
  facet normal 0 0.707107 -0.707106
    outer loop
      vertex -4 11.6489 22.2361
      vertex 4.74091e-015 10.7639 21.3511
      vertex -4 10.7639 21.3511
    endloop
  endfacet
  facet normal 0 0.707107 -0.707106
    outer loop
      vertex -25 10.7639 21.3511
      vertex -29 11.6489 22.2361
      vertex -25 11.6489 22.2361
    endloop
  endfacet
  facet normal 0 0.707107 -0.707106
    outer loop
      vertex -29 11.6489 22.2361
      vertex -25 10.7639 21.3511
      vertex -29 10.7639 21.3511
    endloop
  endfacet
  facet normal 0 0.707107 -0.707106
    outer loop
      vertex -13 10.7639 21.3511
      vertex -16 11.6489 22.2361
      vertex -13 11.6489 22.2361
    endloop
  endfacet
  facet normal 0 0.707107 -0.707106
    outer loop
      vertex -16 11.6489 22.2361
      vertex -13 10.7639 21.3511
      vertex -16 10.7639 21.3511
    endloop
  endfacet
  facet normal -0 0.45399 0.891007
    outer loop
      vertex -4 12.7639 15.1958
      vertex 3.5003e-015 11.6489 15.7639
      vertex 3.37414e-015 12.7639 15.1958
    endloop
  endfacet
  facet normal 0 0.45399 0.891007
    outer loop
      vertex 3.5003e-015 11.6489 15.7639
      vertex -4 12.7639 15.1958
      vertex -4 11.6489 15.7639
    endloop
  endfacet
  facet normal -0 0.45399 0.891007
    outer loop
      vertex -29 12.7639 15.1958
      vertex -25 11.6489 15.7639
      vertex -25 12.7639 15.1958
    endloop
  endfacet
  facet normal 0 0.45399 0.891007
    outer loop
      vertex -25 11.6489 15.7639
      vertex -29 12.7639 15.1958
      vertex -29 11.6489 15.7639
    endloop
  endfacet
  facet normal -0 0.45399 0.891007
    outer loop
      vertex -16 12.7639 15.1958
      vertex -13 11.6489 15.7639
      vertex -13 12.7639 15.1958
    endloop
  endfacet
  facet normal 0 0.45399 0.891007
    outer loop
      vertex -13 11.6489 15.7639
      vertex -16 12.7639 15.1958
      vertex -16 11.6489 15.7639
    endloop
  endfacet
  facet normal 0 0.987688 0.156434
    outer loop
      vertex 3.94439e-015 10.1958 17.7639
      vertex -4 10 19
      vertex 4.21885e-015 10 19
    endloop
  endfacet
  facet normal 0 0.987688 0.156434
    outer loop
      vertex -4 10 19
      vertex 3.94439e-015 10.1958 17.7639
      vertex -4 10.1958 17.7639
    endloop
  endfacet
  facet normal 0 0.987688 0.156434
    outer loop
      vertex -25 10.1958 17.7639
      vertex -29 10 19
      vertex -25 10 19
    endloop
  endfacet
  facet normal 0 0.987688 0.156434
    outer loop
      vertex -29 10 19
      vertex -25 10.1958 17.7639
      vertex -29 10.1958 17.7639
    endloop
  endfacet
  facet normal 0 0.987688 0.156434
    outer loop
      vertex -13 10.1958 17.7639
      vertex -16 10 19
      vertex -13 10 19
    endloop
  endfacet
  facet normal 0 0.987688 0.156434
    outer loop
      vertex -16 10 19
      vertex -13 10.1958 17.7639
      vertex -16 10.1958 17.7639
    endloop
  endfacet
  facet normal 0 -0.707107 -0.707107
    outer loop
      vertex -29 17.2361 21.3511
      vertex -25 16.3511 22.2361
      vertex -29 16.3511 22.2361
    endloop
  endfacet
  facet normal 0 -0.707107 -0.707107
    outer loop
      vertex -25 16.3511 22.2361
      vertex -29 17.2361 21.3511
      vertex -25 17.2361 21.3511
    endloop
  endfacet
  facet normal 0 -0.707107 -0.707107
    outer loop
      vertex -4 17.2361 21.3511
      vertex 4.9374e-015 16.3511 22.2361
      vertex -4 16.3511 22.2361
    endloop
  endfacet
  facet normal 0 -0.707107 -0.707107
    outer loop
      vertex 4.9374e-015 16.3511 22.2361
      vertex -4 17.2361 21.3511
      vertex 4.74091e-015 17.2361 21.3511
    endloop
  endfacet
  facet normal 0 -0.707107 -0.707107
    outer loop
      vertex -16 17.2361 21.3511
      vertex -13 16.3511 22.2361
      vertex -16 16.3511 22.2361
    endloop
  endfacet
  facet normal 0 -0.707107 -0.707107
    outer loop
      vertex -13 16.3511 22.2361
      vertex -16 17.2361 21.3511
      vertex -13 17.2361 21.3511
    endloop
  endfacet
  facet normal 0 -0.891007 -0.45399
    outer loop
      vertex -29 17.8042 20.2361
      vertex -25 17.2361 21.3511
      vertex -29 17.2361 21.3511
    endloop
  endfacet
  facet normal 0 -0.891007 -0.45399
    outer loop
      vertex -25 17.2361 21.3511
      vertex -29 17.8042 20.2361
      vertex -25 17.8042 20.2361
    endloop
  endfacet
  facet normal 0 -0.891007 -0.45399
    outer loop
      vertex -4 17.8042 20.2361
      vertex 4.74091e-015 17.2361 21.3511
      vertex -4 17.2361 21.3511
    endloop
  endfacet
  facet normal 0 -0.891007 -0.45399
    outer loop
      vertex 4.74091e-015 17.2361 21.3511
      vertex -4 17.8042 20.2361
      vertex 4.49331e-015 17.8042 20.2361
    endloop
  endfacet
  facet normal 0 -0.891007 -0.45399
    outer loop
      vertex -16 17.8042 20.2361
      vertex -13 17.2361 21.3511
      vertex -16 17.2361 21.3511
    endloop
  endfacet
  facet normal 0 -0.891007 -0.45399
    outer loop
      vertex -13 17.2361 21.3511
      vertex -16 17.8042 20.2361
      vertex -13 17.8042 20.2361
    endloop
  endfacet
  facet normal 0 -0.156434 0.987688
    outer loop
      vertex -4 15.2361 15.1958
      vertex 3.33067e-015 14 15
      vertex 3.37414e-015 15.2361 15.1958
    endloop
  endfacet
  facet normal 0 -0.156434 0.987688
    outer loop
      vertex 3.33067e-015 14 15
      vertex -4 15.2361 15.1958
      vertex -4 14 15
    endloop
  endfacet
  facet normal 0 -0.156434 0.987688
    outer loop
      vertex -29 15.2361 15.1958
      vertex -25 14 15
      vertex -25 15.2361 15.1958
    endloop
  endfacet
  facet normal 0 -0.156434 0.987688
    outer loop
      vertex -25 14 15
      vertex -29 15.2361 15.1958
      vertex -29 14 15
    endloop
  endfacet
  facet normal 0 -0.156434 0.987688
    outer loop
      vertex -16 15.2361 15.1958
      vertex -13 14 15
      vertex -13 15.2361 15.1958
    endloop
  endfacet
  facet normal 0 -0.156434 0.987688
    outer loop
      vertex -13 14 15
      vertex -16 15.2361 15.1958
      vertex -16 14 15
    endloop
  endfacet
  facet normal 0 -0.707107 0.707107
    outer loop
      vertex -29 16.3511 15.7639
      vertex -25 17.2361 16.6489
      vertex -29 17.2361 16.6489
    endloop
  endfacet
  facet normal 0 -0.707107 0.707107
    outer loop
      vertex -25 17.2361 16.6489
      vertex -29 16.3511 15.7639
      vertex -25 16.3511 15.7639
    endloop
  endfacet
  facet normal 0 -0.707106 0.707108
    outer loop
      vertex -4 17.2361 16.6489
      vertex 3.5003e-015 16.3511 15.7639
      vertex 3.69679e-015 17.2361 16.6489
    endloop
  endfacet
  facet normal 0 -0.707106 0.707108
    outer loop
      vertex 3.5003e-015 16.3511 15.7639
      vertex -4 17.2361 16.6489
      vertex -4 16.3511 15.7639
    endloop
  endfacet
  facet normal 4.49566e-007 -0.707107 0.707107
    outer loop
      vertex -16 16.3511 15.7639
      vertex -13 17.2361 16.6489
      vertex -16 17.2361 16.6489
    endloop
  endfacet
  facet normal 0 -0.707106 0.707108
    outer loop
      vertex -13 17.2361 16.6489
      vertex -16 16.3511 15.7639
      vertex -13 16.3511 15.7639
    endloop
  endfacet
  facet normal 0 -0.45399 0.891007
    outer loop
      vertex -29 16.3511 15.7639
      vertex -25 15.2361 15.1958
      vertex -25 16.3511 15.7639
    endloop
  endfacet
  facet normal 0 -0.45399 0.891007
    outer loop
      vertex -25 15.2361 15.1958
      vertex -29 16.3511 15.7639
      vertex -29 15.2361 15.1958
    endloop
  endfacet
  facet normal 0 -0.45399 0.891007
    outer loop
      vertex -4 16.3511 15.7639
      vertex 3.37414e-015 15.2361 15.1958
      vertex 3.5003e-015 16.3511 15.7639
    endloop
  endfacet
  facet normal 0 -0.45399 0.891007
    outer loop
      vertex 3.37414e-015 15.2361 15.1958
      vertex -4 16.3511 15.7639
      vertex -4 15.2361 15.1958
    endloop
  endfacet
  facet normal 0 -0.45399 0.891007
    outer loop
      vertex -16 16.3511 15.7639
      vertex -13 15.2361 15.1958
      vertex -13 16.3511 15.7639
    endloop
  endfacet
  facet normal 0 -0.45399 0.891007
    outer loop
      vertex -13 15.2361 15.1958
      vertex -16 16.3511 15.7639
      vertex -16 15.2361 15.1958
    endloop
  endfacet
  facet normal 0 0.707107 0.707106
    outer loop
      vertex -25 11.6489 15.7639
      vertex -29 10.7639 16.6489
      vertex -25 10.7639 16.6489
    endloop
  endfacet
  facet normal 0 0.707107 0.707106
    outer loop
      vertex -29 10.7639 16.6489
      vertex -25 11.6489 15.7639
      vertex -29 11.6489 15.7639
    endloop
  endfacet
  facet normal -0 0.707106 0.707107
    outer loop
      vertex -4 11.6489 15.7639
      vertex 3.69679e-015 10.7639 16.6489
      vertex 3.5003e-015 11.6489 15.7639
    endloop
  endfacet
  facet normal 0 0.707106 0.707107
    outer loop
      vertex 3.69679e-015 10.7639 16.6489
      vertex -4 11.6489 15.7639
      vertex -4 10.7639 16.6489
    endloop
  endfacet
  facet normal 4.49567e-007 0.707106 0.707107
    outer loop
      vertex -13 11.6489 15.7639
      vertex -16 10.7639 16.6489
      vertex -13 10.7639 16.6489
    endloop
  endfacet
  facet normal 0 0.707107 0.707106
    outer loop
      vertex -16 10.7639 16.6489
      vertex -13 11.6489 15.7639
      vertex -16 11.6489 15.7639
    endloop
  endfacet
  facet normal 0 0.891007 0.45399
    outer loop
      vertex 3.69679e-015 10.7639 16.6489
      vertex -4 10.1958 17.7639
      vertex 3.94439e-015 10.1958 17.7639
    endloop
  endfacet
  facet normal 0 0.891007 0.45399
    outer loop
      vertex -4 10.1958 17.7639
      vertex 3.69679e-015 10.7639 16.6489
      vertex -4 10.7639 16.6489
    endloop
  endfacet
  facet normal 0 0.891006 0.453991
    outer loop
      vertex -25 10.7639 16.6489
      vertex -29 10.1958 17.7639
      vertex -25 10.1958 17.7639
    endloop
  endfacet
  facet normal 0 0.891006 0.453991
    outer loop
      vertex -29 10.1958 17.7639
      vertex -25 10.7639 16.6489
      vertex -29 10.7639 16.6489
    endloop
  endfacet
  facet normal 0 0.891006 0.453991
    outer loop
      vertex -13 10.1958 17.7639
      vertex -16 10.7639 16.6489
      vertex -16 10.1958 17.7639
    endloop
  endfacet
  facet normal 2.88639e-007 0.891007 0.45399
    outer loop
      vertex -16 10.7639 16.6489
      vertex -13 10.1958 17.7639
      vertex -13 10.7639 16.6489
    endloop
  endfacet
  facet normal 0 0.45399 -0.891007
    outer loop
      vertex -4 11.6489 22.2361
      vertex 5.06356e-015 12.7639 22.8042
      vertex 4.9374e-015 11.6489 22.2361
    endloop
  endfacet
  facet normal 0 0.45399 -0.891007
    outer loop
      vertex 5.06356e-015 12.7639 22.8042
      vertex -4 11.6489 22.2361
      vertex -4 12.7639 22.8042
    endloop
  endfacet
  facet normal 0 0.45399 -0.891007
    outer loop
      vertex -29 11.6489 22.2361
      vertex -25 12.7639 22.8042
      vertex -25 11.6489 22.2361
    endloop
  endfacet
  facet normal 0 0.45399 -0.891007
    outer loop
      vertex -25 12.7639 22.8042
      vertex -29 11.6489 22.2361
      vertex -29 12.7639 22.8042
    endloop
  endfacet
  facet normal 0 0.45399 -0.891007
    outer loop
      vertex -16 11.6489 22.2361
      vertex -13 12.7639 22.8042
      vertex -13 11.6489 22.2361
    endloop
  endfacet
  facet normal 0 0.45399 -0.891007
    outer loop
      vertex -13 12.7639 22.8042
      vertex -16 11.6489 22.2361
      vertex -16 12.7639 22.8042
    endloop
  endfacet
  facet normal 1 0 0
    outer loop
      vertex -13 28 33
      vertex -13 18 19
      vertex -13 28 5
    endloop
  endfacet
  facet normal 1 0 0
    outer loop
      vertex -13 28 33
      vertex -13 17.8042 20.2361
      vertex -13 18 19
    endloop
  endfacet
  facet normal 1 0 0
    outer loop
      vertex -13 28 33
      vertex -13 17.2361 21.3511
      vertex -13 17.8042 20.2361
    endloop
  endfacet
  facet normal 1 0 0
    outer loop
      vertex -13 28 33
      vertex -13 16.3511 22.2361
      vertex -13 17.2361 21.3511
    endloop
  endfacet
  facet normal 1 0 0
    outer loop
      vertex -13 28 33
      vertex -13 15.2361 22.8042
      vertex -13 16.3511 22.2361
    endloop
  endfacet
  facet normal 1 0 0
    outer loop
      vertex -13 28 33
      vertex -13 14 23
      vertex -13 15.2361 22.8042
    endloop
  endfacet
  facet normal 1 -0 0
    outer loop
      vertex -13 0 33
      vertex -13 14 23
      vertex -13 28 33
    endloop
  endfacet
  facet normal 1 0 0
    outer loop
      vertex -13 14 23
      vertex -13 0 33
      vertex -13 12.7639 22.8042
    endloop
  endfacet
  facet normal 1 0 0
    outer loop
      vertex -13 10.1958 20.2361
      vertex -13 0 33
      vertex -13 10 19
    endloop
  endfacet
  facet normal 1 0 0
    outer loop
      vertex -13 10.7639 21.3511
      vertex -13 0 33
      vertex -13 10.1958 20.2361
    endloop
  endfacet
  facet normal 1 0 0
    outer loop
      vertex -13 11.6489 22.2361
      vertex -13 0 33
      vertex -13 10.7639 21.3511
    endloop
  endfacet
  facet normal 1 0 0
    outer loop
      vertex -13 12.7639 22.8042
      vertex -13 0 33
      vertex -13 11.6489 22.2361
    endloop
  endfacet
  facet normal 1 -0 0
    outer loop
      vertex -13 17.8042 17.7639
      vertex -13 28 5
      vertex -13 18 19
    endloop
  endfacet
  facet normal 1 -0 0
    outer loop
      vertex -13 17.2361 16.6489
      vertex -13 28 5
      vertex -13 17.8042 17.7639
    endloop
  endfacet
  facet normal 1 -0 0
    outer loop
      vertex -13 16.3511 15.7639
      vertex -13 28 5
      vertex -13 17.2361 16.6489
    endloop
  endfacet
  facet normal 1 -0 0
    outer loop
      vertex -13 15.2361 15.1958
      vertex -13 28 5
      vertex -13 16.3511 15.7639
    endloop
  endfacet
  facet normal 1 -0 0
    outer loop
      vertex -13 14 15
      vertex -13 28 5
      vertex -13 15.2361 15.1958
    endloop
  endfacet
  facet normal 1 0 0
    outer loop
      vertex -13 0 5
      vertex -13 14 15
      vertex -13 12.7639 15.1958
    endloop
  endfacet
  facet normal 1 0 0
    outer loop
      vertex -13 0 5
      vertex -13 12.7639 15.1958
      vertex -13 11.6489 15.7639
    endloop
  endfacet
  facet normal 1 0 0
    outer loop
      vertex -13 0 5
      vertex -13 10 19
      vertex -13 0 33
    endloop
  endfacet
  facet normal 1 0 0
    outer loop
      vertex -13 10 19
      vertex -13 0 5
      vertex -13 10.1958 17.7639
    endloop
  endfacet
  facet normal 1 0 0
    outer loop
      vertex -13 14 15
      vertex -13 0 5
      vertex -13 28 5
    endloop
  endfacet
  facet normal 1 0 0
    outer loop
      vertex -13 10.7639 16.6489
      vertex -13 0 5
      vertex -13 11.6489 15.7639
    endloop
  endfacet
  facet normal 1 0 0
    outer loop
      vertex -13 10.1958 17.7639
      vertex -13 0 5
      vertex -13 10.7639 16.6489
    endloop
  endfacet
  facet normal -1 0 0
    outer loop
      vertex -4 28 5
      vertex -4 18 19
      vertex -4 28 33
    endloop
  endfacet
  facet normal -1 0 0
    outer loop
      vertex -4 28 5
      vertex -4 17.8042 17.7639
      vertex -4 18 19
    endloop
  endfacet
  facet normal -1 0 0
    outer loop
      vertex -4 28 5
      vertex -4 17.2361 16.6489
      vertex -4 17.8042 17.7639
    endloop
  endfacet
  facet normal -1 0 0
    outer loop
      vertex -4 28 5
      vertex -4 16.3511 15.7639
      vertex -4 17.2361 16.6489
    endloop
  endfacet
  facet normal -1 0 0
    outer loop
      vertex -4 28 5
      vertex -4 15.2361 15.1958
      vertex -4 16.3511 15.7639
    endloop
  endfacet
  facet normal -1 0 0
    outer loop
      vertex -4 28 5
      vertex -4 14 15
      vertex -4 15.2361 15.1958
    endloop
  endfacet
  facet normal -1 0 0
    outer loop
      vertex -4 0 5
      vertex -4 14 15
      vertex -4 28 5
    endloop
  endfacet
  facet normal -1 -0 0
    outer loop
      vertex -4 14 15
      vertex -4 0 5
      vertex -4 12.7639 15.1958
    endloop
  endfacet
  facet normal -1 -0 0
    outer loop
      vertex -4 10.1958 17.7639
      vertex -4 0 5
      vertex -4 10 19
    endloop
  endfacet
  facet normal -1 -0 0
    outer loop
      vertex -4 10.7639 16.6489
      vertex -4 0 5
      vertex -4 10.1958 17.7639
    endloop
  endfacet
  facet normal -1 -0 0
    outer loop
      vertex -4 11.6489 15.7639
      vertex -4 0 5
      vertex -4 10.7639 16.6489
    endloop
  endfacet
  facet normal -1 -0 0
    outer loop
      vertex -4 12.7639 15.1958
      vertex -4 0 5
      vertex -4 11.6489 15.7639
    endloop
  endfacet
  facet normal -1 0 0
    outer loop
      vertex -4 17.8042 20.2361
      vertex -4 28 33
      vertex -4 18 19
    endloop
  endfacet
  facet normal -1 0 0
    outer loop
      vertex -4 17.2361 21.3511
      vertex -4 28 33
      vertex -4 17.8042 20.2361
    endloop
  endfacet
  facet normal -1 0 0
    outer loop
      vertex -4 16.3511 22.2361
      vertex -4 28 33
      vertex -4 17.2361 21.3511
    endloop
  endfacet
  facet normal -1 0 0
    outer loop
      vertex -4 15.2361 22.8042
      vertex -4 28 33
      vertex -4 16.3511 22.2361
    endloop
  endfacet
  facet normal -1 0 0
    outer loop
      vertex -4 14 23
      vertex -4 28 33
      vertex -4 15.2361 22.8042
    endloop
  endfacet
  facet normal -1 0 0
    outer loop
      vertex -4 0 33
      vertex -4 14 23
      vertex -4 12.7639 22.8042
    endloop
  endfacet
  facet normal -1 0 0
    outer loop
      vertex -4 0 33
      vertex -4 12.7639 22.8042
      vertex -4 11.6489 22.2361
    endloop
  endfacet
  facet normal -1 0 0
    outer loop
      vertex -4 0 33
      vertex -4 10 19
      vertex -4 0 5
    endloop
  endfacet
  facet normal -1 0 0
    outer loop
      vertex -4 10 19
      vertex -4 0 33
      vertex -4 10.1958 20.2361
    endloop
  endfacet
  facet normal -1 0 0
    outer loop
      vertex -4 14 23
      vertex -4 0 33
      vertex -4 28 33
    endloop
  endfacet
  facet normal -1 0 0
    outer loop
      vertex -4 10.7639 21.3511
      vertex -4 0 33
      vertex -4 11.6489 22.2361
    endloop
  endfacet
  facet normal -1 0 0
    outer loop
      vertex -4 10.1958 20.2361
      vertex -4 0 33
      vertex -4 10.7639 21.3511
    endloop
  endfacet
  facet normal 1 0 0
    outer loop
      vertex -25 28 33
      vertex -25 18 19
      vertex -25 28 5
    endloop
  endfacet
  facet normal 1 0 0
    outer loop
      vertex -25 28 33
      vertex -25 17.8042 20.2361
      vertex -25 18 19
    endloop
  endfacet
  facet normal 1 0 0
    outer loop
      vertex -25 28 33
      vertex -25 17.2361 21.3511
      vertex -25 17.8042 20.2361
    endloop
  endfacet
  facet normal 1 0 0
    outer loop
      vertex -25 28 33
      vertex -25 16.3511 22.2361
      vertex -25 17.2361 21.3511
    endloop
  endfacet
  facet normal 1 0 0
    outer loop
      vertex -25 28 33
      vertex -25 15.2361 22.8042
      vertex -25 16.3511 22.2361
    endloop
  endfacet
  facet normal 1 0 0
    outer loop
      vertex -25 28 33
      vertex -25 14 23
      vertex -25 15.2361 22.8042
    endloop
  endfacet
  facet normal 1 -0 0
    outer loop
      vertex -25 0 33
      vertex -25 14 23
      vertex -25 28 33
    endloop
  endfacet
  facet normal 1 0 0
    outer loop
      vertex -25 14 23
      vertex -25 0 33
      vertex -25 12.7639 22.8042
    endloop
  endfacet
  facet normal 1 0 0
    outer loop
      vertex -25 10.1958 20.2361
      vertex -25 0 33
      vertex -25 10 19
    endloop
  endfacet
  facet normal 1 0 0
    outer loop
      vertex -25 10.7639 21.3511
      vertex -25 0 33
      vertex -25 10.1958 20.2361
    endloop
  endfacet
  facet normal 1 0 0
    outer loop
      vertex -25 11.6489 22.2361
      vertex -25 0 33
      vertex -25 10.7639 21.3511
    endloop
  endfacet
  facet normal 1 0 0
    outer loop
      vertex -25 12.7639 22.8042
      vertex -25 0 33
      vertex -25 11.6489 22.2361
    endloop
  endfacet
  facet normal 1 -0 0
    outer loop
      vertex -25 17.8042 17.7639
      vertex -25 28 5
      vertex -25 18 19
    endloop
  endfacet
  facet normal 1 -0 0
    outer loop
      vertex -25 17.2361 16.6489
      vertex -25 28 5
      vertex -25 17.8042 17.7639
    endloop
  endfacet
  facet normal 1 -0 0
    outer loop
      vertex -25 16.3511 15.7639
      vertex -25 28 5
      vertex -25 17.2361 16.6489
    endloop
  endfacet
  facet normal 1 -0 0
    outer loop
      vertex -25 15.2361 15.1958
      vertex -25 28 5
      vertex -25 16.3511 15.7639
    endloop
  endfacet
  facet normal 1 -0 0
    outer loop
      vertex -25 14 15
      vertex -25 28 5
      vertex -25 15.2361 15.1958
    endloop
  endfacet
  facet normal 1 0 0
    outer loop
      vertex -25 0 5
      vertex -25 14 15
      vertex -25 12.7639 15.1958
    endloop
  endfacet
  facet normal 1 0 0
    outer loop
      vertex -25 0 5
      vertex -25 12.7639 15.1958
      vertex -25 11.6489 15.7639
    endloop
  endfacet
  facet normal 1 0 0
    outer loop
      vertex -25 0 5
      vertex -25 10 19
      vertex -25 0 33
    endloop
  endfacet
  facet normal 1 0 0
    outer loop
      vertex -25 10 19
      vertex -25 0 5
      vertex -25 10.1958 17.7639
    endloop
  endfacet
  facet normal 1 0 0
    outer loop
      vertex -25 14 15
      vertex -25 0 5
      vertex -25 28 5
    endloop
  endfacet
  facet normal 1 0 0
    outer loop
      vertex -25 10.7639 16.6489
      vertex -25 0 5
      vertex -25 11.6489 15.7639
    endloop
  endfacet
  facet normal 1 0 0
    outer loop
      vertex -25 10.1958 17.7639
      vertex -25 0 5
      vertex -25 10.7639 16.6489
    endloop
  endfacet
  facet normal -1 0 0
    outer loop
      vertex -16 28 5
      vertex -16 18 19
      vertex -16 28 33
    endloop
  endfacet
  facet normal -1 0 0
    outer loop
      vertex -16 28 5
      vertex -16 17.8042 17.7639
      vertex -16 18 19
    endloop
  endfacet
  facet normal -1 0 0
    outer loop
      vertex -16 28 5
      vertex -16 17.2361 16.6489
      vertex -16 17.8042 17.7639
    endloop
  endfacet
  facet normal -1 0 0
    outer loop
      vertex -16 28 5
      vertex -16 16.3511 15.7639
      vertex -16 17.2361 16.6489
    endloop
  endfacet
  facet normal -1 0 0
    outer loop
      vertex -16 28 5
      vertex -16 15.2361 15.1958
      vertex -16 16.3511 15.7639
    endloop
  endfacet
  facet normal -1 0 0
    outer loop
      vertex -16 28 5
      vertex -16 14 15
      vertex -16 15.2361 15.1958
    endloop
  endfacet
  facet normal -1 0 0
    outer loop
      vertex -16 0 5
      vertex -16 14 15
      vertex -16 28 5
    endloop
  endfacet
  facet normal -1 -0 0
    outer loop
      vertex -16 14 15
      vertex -16 0 5
      vertex -16 12.7639 15.1958
    endloop
  endfacet
  facet normal -1 -0 0
    outer loop
      vertex -16 10.1958 17.7639
      vertex -16 0 5
      vertex -16 10 19
    endloop
  endfacet
  facet normal -1 -0 0
    outer loop
      vertex -16 10.7639 16.6489
      vertex -16 0 5
      vertex -16 10.1958 17.7639
    endloop
  endfacet
  facet normal -1 -0 0
    outer loop
      vertex -16 11.6489 15.7639
      vertex -16 0 5
      vertex -16 10.7639 16.6489
    endloop
  endfacet
  facet normal -1 -0 0
    outer loop
      vertex -16 12.7639 15.1958
      vertex -16 0 5
      vertex -16 11.6489 15.7639
    endloop
  endfacet
  facet normal -1 0 0
    outer loop
      vertex -16 17.8042 20.2361
      vertex -16 28 33
      vertex -16 18 19
    endloop
  endfacet
  facet normal -1 0 0
    outer loop
      vertex -16 17.2361 21.3511
      vertex -16 28 33
      vertex -16 17.8042 20.2361
    endloop
  endfacet
  facet normal -1 0 0
    outer loop
      vertex -16 16.3511 22.2361
      vertex -16 28 33
      vertex -16 17.2361 21.3511
    endloop
  endfacet
  facet normal -1 0 0
    outer loop
      vertex -16 15.2361 22.8042
      vertex -16 28 33
      vertex -16 16.3511 22.2361
    endloop
  endfacet
  facet normal -1 0 0
    outer loop
      vertex -16 14 23
      vertex -16 28 33
      vertex -16 15.2361 22.8042
    endloop
  endfacet
  facet normal -1 0 0
    outer loop
      vertex -16 0 33
      vertex -16 14 23
      vertex -16 12.7639 22.8042
    endloop
  endfacet
  facet normal -1 0 0
    outer loop
      vertex -16 0 33
      vertex -16 12.7639 22.8042
      vertex -16 11.6489 22.2361
    endloop
  endfacet
  facet normal -1 0 0
    outer loop
      vertex -16 0 33
      vertex -16 10 19
      vertex -16 0 5
    endloop
  endfacet
  facet normal -1 0 0
    outer loop
      vertex -16 10 19
      vertex -16 0 33
      vertex -16 10.1958 20.2361
    endloop
  endfacet
  facet normal -1 0 0
    outer loop
      vertex -16 14 23
      vertex -16 0 33
      vertex -16 28 33
    endloop
  endfacet
  facet normal -1 0 0
    outer loop
      vertex -16 10.7639 21.3511
      vertex -16 0 33
      vertex -16 11.6489 22.2361
    endloop
  endfacet
  facet normal -1 0 0
    outer loop
      vertex -16 10.1958 20.2361
      vertex -16 0 33
      vertex -16 10.7639 21.3511
    endloop
  endfacet
  facet normal -1 0 0
    outer loop
      vertex -41 28 9.10383e-015
      vertex -41 20 5
      vertex -41 28 5
    endloop
  endfacet
  facet normal -1 0 0
    outer loop
      vertex -41 20 5
      vertex -41 8 5
      vertex -41 20 13.5
    endloop
  endfacet
  facet normal -1 0 0
    outer loop
      vertex -41 28 9.10383e-015
      vertex -41 8 5
      vertex -41 20 5
    endloop
  endfacet
  facet normal -1 0 0
    outer loop
      vertex -41 0 9.10383e-015
      vertex -41 8 5
      vertex -41 28 9.10383e-015
    endloop
  endfacet
  facet normal -1 -0 0
    outer loop
      vertex -41 8 5
      vertex -41 0 9.10383e-015
      vertex -41 0 5
    endloop
  endfacet
  facet normal -1 -0 0
    outer loop
      vertex -41 20 13.5
      vertex -41 8 5
      vertex -41 8 13.5
    endloop
  endfacet
  facet normal 0 0 1
    outer loop
      vertex -29 20 13.5
      vertex -31 14 13.5
      vertex -29 8 13.5
    endloop
  endfacet
  facet normal 0 0 1
    outer loop
      vertex -29 20 13.5
      vertex -31.1958 15.2361 13.5
      vertex -31 14 13.5
    endloop
  endfacet
  facet normal 0 0 1
    outer loop
      vertex -29 20 13.5
      vertex -31.7639 16.3511 13.5
      vertex -31.1958 15.2361 13.5
    endloop
  endfacet
  facet normal 0 0 1
    outer loop
      vertex -29 20 13.5
      vertex -32.6489 17.2361 13.5
      vertex -31.7639 16.3511 13.5
    endloop
  endfacet
  facet normal 0 0 1
    outer loop
      vertex -29 20 13.5
      vertex -33.7639 17.8042 13.5
      vertex -32.6489 17.2361 13.5
    endloop
  endfacet
  facet normal 0 0 1
    outer loop
      vertex -29 20 13.5
      vertex -35 18 13.5
      vertex -33.7639 17.8042 13.5
    endloop
  endfacet
  facet normal -0 0 1
    outer loop
      vertex -41 20 13.5
      vertex -35 18 13.5
      vertex -29 20 13.5
    endloop
  endfacet
  facet normal 0 0 1
    outer loop
      vertex -38.8042 15.2361 13.5
      vertex -41 20 13.5
      vertex -39 14 13.5
    endloop
  endfacet
  facet normal 0 0 1
    outer loop
      vertex -38.2361 16.3511 13.5
      vertex -41 20 13.5
      vertex -38.8042 15.2361 13.5
    endloop
  endfacet
  facet normal 0 0 1
    outer loop
      vertex -37.3511 17.2361 13.5
      vertex -41 20 13.5
      vertex -38.2361 16.3511 13.5
    endloop
  endfacet
  facet normal 0 0 1
    outer loop
      vertex -36.2361 17.8042 13.5
      vertex -41 20 13.5
      vertex -37.3511 17.2361 13.5
    endloop
  endfacet
  facet normal 0 0 1
    outer loop
      vertex -35 18 13.5
      vertex -41 20 13.5
      vertex -36.2361 17.8042 13.5
    endloop
  endfacet
  facet normal -0 0 1
    outer loop
      vertex -31.1958 12.7639 13.5
      vertex -29 8 13.5
      vertex -31 14 13.5
    endloop
  endfacet
  facet normal -0 0 1
    outer loop
      vertex -31.7639 11.6489 13.5
      vertex -29 8 13.5
      vertex -31.1958 12.7639 13.5
    endloop
  endfacet
  facet normal -0 0 1
    outer loop
      vertex -32.6489 10.7639 13.5
      vertex -29 8 13.5
      vertex -31.7639 11.6489 13.5
    endloop
  endfacet
  facet normal -0 0 1
    outer loop
      vertex -33.7639 10.1958 13.5
      vertex -29 8 13.5
      vertex -32.6489 10.7639 13.5
    endloop
  endfacet
  facet normal -0 0 1
    outer loop
      vertex -35 10 13.5
      vertex -29 8 13.5
      vertex -33.7639 10.1958 13.5
    endloop
  endfacet
  facet normal 0 0 1
    outer loop
      vertex -41 8 13.5
      vertex -35 10 13.5
      vertex -36.2361 10.1958 13.5
    endloop
  endfacet
  facet normal 0 0 1
    outer loop
      vertex -41 8 13.5
      vertex -39 14 13.5
      vertex -41 20 13.5
    endloop
  endfacet
  facet normal 0 0 1
    outer loop
      vertex -35 10 13.5
      vertex -41 8 13.5
      vertex -29 8 13.5
    endloop
  endfacet
  facet normal 0 0 1
    outer loop
      vertex -37.3511 10.7639 13.5
      vertex -41 8 13.5
      vertex -36.2361 10.1958 13.5
    endloop
  endfacet
  facet normal 0 0 1
    outer loop
      vertex -38.2361 11.6489 13.5
      vertex -41 8 13.5
      vertex -37.3511 10.7639 13.5
    endloop
  endfacet
  facet normal 0 0 1
    outer loop
      vertex -38.8042 12.7639 13.5
      vertex -41 8 13.5
      vertex -38.2361 11.6489 13.5
    endloop
  endfacet
  facet normal 0 0 1
    outer loop
      vertex -39 14 13.5
      vertex -41 8 13.5
      vertex -38.8042 12.7639 13.5
    endloop
  endfacet
  facet normal 0 -1 0
    outer loop
      vertex -41 8 5
      vertex -29 8 13.5
      vertex -41 8 13.5
    endloop
  endfacet
  facet normal 0 -1 -0
    outer loop
      vertex -29 8 13.5
      vertex -41 8 5
      vertex -29 8 5
    endloop
  endfacet
  facet normal 0 1 -0
    outer loop
      vertex -29 20 5
      vertex -41 20 13.5
      vertex -29 20 13.5
    endloop
  endfacet
  facet normal 0 1 0
    outer loop
      vertex -41 20 13.5
      vertex -29 20 5
      vertex -41 20 5
    endloop
  endfacet
  facet normal -0.987689 -0.156433 0
    outer loop
      vertex -31 14 5
      vertex -31.1958 15.2361 13.5
      vertex -31.1958 15.2361 5
    endloop
  endfacet
  facet normal -0.987689 -0.156433 0
    outer loop
      vertex -31.1958 15.2361 13.5
      vertex -31 14 5
      vertex -31 14 13.5
    endloop
  endfacet
  facet normal -0.891006 -0.453991 0
    outer loop
      vertex -31.1958 15.2361 5
      vertex -31.7639 16.3511 13.5
      vertex -31.7639 16.3511 5
    endloop
  endfacet
  facet normal -0.891006 -0.453991 0
    outer loop
      vertex -31.7639 16.3511 13.5
      vertex -31.1958 15.2361 5
      vertex -31.1958 15.2361 13.5
    endloop
  endfacet
  facet normal -0.156434 -0.987688 0
    outer loop
      vertex -35 18 5
      vertex -33.7639 17.8042 13.5
      vertex -35 18 13.5
    endloop
  endfacet
  facet normal -0.156434 -0.987688 -0
    outer loop
      vertex -33.7639 17.8042 13.5
      vertex -35 18 5
      vertex -33.7639 17.8042 5
    endloop
  endfacet
  facet normal -0.45399 -0.891007 0
    outer loop
      vertex -33.7639 17.8042 5
      vertex -32.6489 17.2361 13.5
      vertex -33.7639 17.8042 13.5
    endloop
  endfacet
  facet normal -0.45399 -0.891007 -0
    outer loop
      vertex -32.6489 17.2361 13.5
      vertex -33.7639 17.8042 5
      vertex -32.6489 17.2361 5
    endloop
  endfacet
  facet normal 0.156434 -0.987688 0
    outer loop
      vertex -36.2361 17.8042 5
      vertex -35 18 13.5
      vertex -36.2361 17.8042 13.5
    endloop
  endfacet
  facet normal 0.156434 -0.987688 0
    outer loop
      vertex -35 18 13.5
      vertex -36.2361 17.8042 5
      vertex -35 18 5
    endloop
  endfacet
  facet normal 0.453991 -0.891006 0
    outer loop
      vertex -37.3511 17.2361 5
      vertex -36.2361 17.8042 13.5
      vertex -37.3511 17.2361 13.5
    endloop
  endfacet
  facet normal 0.453991 -0.891006 0
    outer loop
      vertex -36.2361 17.8042 13.5
      vertex -37.3511 17.2361 5
      vertex -36.2361 17.8042 5
    endloop
  endfacet
  facet normal -0.707108 -0.707106 0
    outer loop
      vertex -31.7639 16.3511 5
      vertex -32.6489 17.2361 13.5
      vertex -32.6489 17.2361 5
    endloop
  endfacet
  facet normal -0.707108 -0.707106 0
    outer loop
      vertex -32.6489 17.2361 13.5
      vertex -31.7639 16.3511 5
      vertex -31.7639 16.3511 13.5
    endloop
  endfacet
  facet normal 0.987688 -0.156435 0
    outer loop
      vertex -39 14 13.5
      vertex -38.8042 15.2361 5
      vertex -38.8042 15.2361 13.5
    endloop
  endfacet
  facet normal 0.987688 -0.156435 0
    outer loop
      vertex -38.8042 15.2361 5
      vertex -39 14 13.5
      vertex -39 14 5
    endloop
  endfacet
  facet normal 0.707106 -0.707108 0
    outer loop
      vertex -38.2361 16.3511 5
      vertex -37.3511 17.2361 13.5
      vertex -38.2361 16.3511 13.5
    endloop
  endfacet
  facet normal 0.707106 -0.707108 0
    outer loop
      vertex -37.3511 17.2361 13.5
      vertex -38.2361 16.3511 5
      vertex -37.3511 17.2361 5
    endloop
  endfacet
  facet normal -0.45399 0.891007 0
    outer loop
      vertex -32.6489 10.7639 5
      vertex -33.7639 10.1958 13.5
      vertex -32.6489 10.7639 13.5
    endloop
  endfacet
  facet normal -0.45399 0.891007 0
    outer loop
      vertex -33.7639 10.1958 13.5
      vertex -32.6489 10.7639 5
      vertex -33.7639 10.1958 5
    endloop
  endfacet
  facet normal -0.707107 0.707106 0
    outer loop
      vertex -32.6489 10.7639 5
      vertex -31.7639 11.6489 13.5
      vertex -31.7639 11.6489 5
    endloop
  endfacet
  facet normal -0.707107 0.707106 0
    outer loop
      vertex -31.7639 11.6489 13.5
      vertex -32.6489 10.7639 5
      vertex -32.6489 10.7639 13.5
    endloop
  endfacet
  facet normal -0.987689 0.156433 0
    outer loop
      vertex -31.1958 12.7639 5
      vertex -31 14 13.5
      vertex -31 14 5
    endloop
  endfacet
  facet normal -0.987689 0.156433 0
    outer loop
      vertex -31 14 13.5
      vertex -31.1958 12.7639 5
      vertex -31.1958 12.7639 13.5
    endloop
  endfacet
  facet normal 0.987688 0.156434 0
    outer loop
      vertex -38.8042 12.7639 13.5
      vertex -39 14 5
      vertex -39 14 13.5
    endloop
  endfacet
  facet normal 0.987688 0.156434 0
    outer loop
      vertex -39 14 5
      vertex -38.8042 12.7639 13.5
      vertex -38.8042 12.7639 5
    endloop
  endfacet
  facet normal 0.891007 -0.45399 0
    outer loop
      vertex -38.8042 15.2361 13.5
      vertex -38.2361 16.3511 5
      vertex -38.2361 16.3511 13.5
    endloop
  endfacet
  facet normal 0.891007 -0.45399 0
    outer loop
      vertex -38.2361 16.3511 5
      vertex -38.8042 15.2361 13.5
      vertex -38.8042 15.2361 5
    endloop
  endfacet
  facet normal 0.453991 0.891006 -0
    outer loop
      vertex -36.2361 10.1958 5
      vertex -37.3511 10.7639 13.5
      vertex -36.2361 10.1958 13.5
    endloop
  endfacet
  facet normal 0.453991 0.891006 0
    outer loop
      vertex -37.3511 10.7639 13.5
      vertex -36.2361 10.1958 5
      vertex -37.3511 10.7639 5
    endloop
  endfacet
  facet normal 0.891007 0.45399 0
    outer loop
      vertex -38.2361 11.6489 13.5
      vertex -38.8042 12.7639 5
      vertex -38.8042 12.7639 13.5
    endloop
  endfacet
  facet normal 0.891007 0.45399 0
    outer loop
      vertex -38.8042 12.7639 5
      vertex -38.2361 11.6489 13.5
      vertex -38.2361 11.6489 5
    endloop
  endfacet
  facet normal -0.891006 0.453991 0
    outer loop
      vertex -31.7639 11.6489 5
      vertex -31.1958 12.7639 13.5
      vertex -31.1958 12.7639 5
    endloop
  endfacet
  facet normal -0.891006 0.453991 0
    outer loop
      vertex -31.1958 12.7639 13.5
      vertex -31.7639 11.6489 5
      vertex -31.7639 11.6489 13.5
    endloop
  endfacet
  facet normal -0.156434 0.987688 0
    outer loop
      vertex -33.7639 10.1958 5
      vertex -35 10 13.5
      vertex -33.7639 10.1958 13.5
    endloop
  endfacet
  facet normal -0.156434 0.987688 0
    outer loop
      vertex -35 10 13.5
      vertex -33.7639 10.1958 5
      vertex -35 10 5
    endloop
  endfacet
  facet normal 0.156434 0.987688 -0
    outer loop
      vertex -35 10 5
      vertex -36.2361 10.1958 13.5
      vertex -35 10 13.5
    endloop
  endfacet
  facet normal 0.156434 0.987688 0
    outer loop
      vertex -36.2361 10.1958 13.5
      vertex -35 10 5
      vertex -36.2361 10.1958 5
    endloop
  endfacet
  facet normal 0.707106 0.707108 -0
    outer loop
      vertex -37.3511 10.7639 5
      vertex -38.2361 11.6489 13.5
      vertex -37.3511 10.7639 13.5
    endloop
  endfacet
  facet normal 0.707106 0.707108 0
    outer loop
      vertex -38.2361 11.6489 13.5
      vertex -37.3511 10.7639 5
      vertex -38.2361 11.6489 5
    endloop
  endfacet
  facet normal -2.22045e-016 0 -1
    outer loop
      vertex -41 0 9.10383e-015
      vertex 0 28 0
      vertex 0 0 0
    endloop
  endfacet
  facet normal -2.22045e-016 0 -1
    outer loop
      vertex 0 28 0
      vertex -41 0 9.10383e-015
      vertex -41 28 9.10383e-015
    endloop
  endfacet
endsolid OpenSCAD_Model
